<?xml version="1.0" standalone="no"?>
<!DOCTYPE svg PUBLIC "-//W3C//DTD SVG 1.1//EN" "http://www.w3.org/Graphics/SVG/1.1/DTD/svg11.dtd" >
<svg>
<metadata>
Created by FontForge 20090914 at Sat Jul 30 15:00:00 2022
 By www-data
Copyright (c) 2011 by AndrijType. All rights reserved.
</metadata>
<defs>
<font id="BanderaPro" horiz-adv-x="467" >
  <font-face 
    font-family="Bandera Pro"
    font-weight="400"
    font-stretch="normal"
    units-per-em="1000"
    panose-1="2 6 5 4 4 2 0 2 0 4"
    ascent="750"
    descent="-250"
    x-height="500"
    cap-height="650"
    bbox="-70 -297 1804 944"
    underline-thickness="30"
    underline-position="-150"
    unicode-range="U+0020-U+FB06"
  />
<missing-glyph horiz-adv-x="619" 
d="M344 102h-65v188h-185v61h185v187h65v-187h182v-61h-182v-188zM136 440l-54 54l56 56l54 -54zM483 91l-54 54l56 56l54 -54zM485 440l-56 56l54 53l56 -55zM138 91l-56 56l54 53l56 -55z" />
    <glyph glyph-name="arrowleft" unicode="&#x3c;&#x2d;&#x2d;" horiz-adv-x="731" 
d="M415 466l-213 -161l477 2v-58l-476 1l212 -160l-35 -44l-300 232l300 232z" />
    <glyph glyph-name="arrowright" unicode="&#x2d;&#x2d;&#x3e;" horiz-adv-x="709" 
d="M653 278l-300 -232l-35 44l210 160l-474 -1v58l475 -2l-211 161l35 44z" />
    <glyph glyph-name="ff" unicode="ff" horiz-adv-x="678" 
d="M720 614l-57.001 0.000976562l-5 58c-17.333 20.667 -39.666 31 -66.999 31c-31.333 0 -53.333 -9.33301 -66 -28s-19 -52.667 -19 -102v-73h171v-63h-171v-379l60 -2l-4 -56h-192l-4 60l60 2v375h-237v-378l60 -3v-56h-196l-4 60l60 3v374h-61v60l61 3v71
c0 65.333 13.333 113.666 40 144.999s73 47 139 47c37.333 0 96 -13 176 -39c24 26 60.333 39 109 39c33.333 0 64 -11 92 -33l8 24h47v-140zM188.999 563.001v-63h237v81c0 38 3.66699 69 11 93c-62 18.667 -106 28 -132 28c-44.667 0 -75.167 -10.333 -91.5 -31
s-24.5 -56.667 -24.5 -108z" />
    <glyph glyph-name="fi" unicode="fi" horiz-adv-x="629" 
d="M249 0l-196 0.000976562l-4 60l60 3v374h-61v60l61 3v71c0 65.333 13.333 113.666 40 144.999s73 47 139 47c32 0 84 -11 156 -33l5 24h63v-148h-64l-5 66c-66.667 20 -112.667 30 -138 30c-44.667 0 -75.167 -10.333 -91.5 -31s-24.5 -56.667 -24.5 -108v-63h171v-63
h-171v-378l60 -3v-56zM592 0.000976562h-192l-4 60l60 3v374l-59 3l3 60h136v-441l60 -3z" />
    <glyph glyph-name="fl" unicode="fl" horiz-adv-x="632" 
d="M249 0l-196 0.000976562l-4 60l60 3v374h-61v60l61 3v71c0 65.333 13.333 113.666 40 144.999s73 47 139 47c34.667 0 91.667 -12.333 171 -37v24h81v-691l60 -3l-4 -56h-193l-4 60l60 2v605c-76.667 23.333 -128 35 -154 35c-44.667 0 -75.167 -10.333 -91.5 -31
s-24.5 -56.667 -24.5 -108v-63h171v-63h-171v-378l60 -3v-56z" />
    <glyph glyph-name="ffi" unicode="ffi" horiz-adv-x="946" 
d="M249 0l-196 0.000976562l-4 60l60 3v374h-61v60l61 3v71c0 65.333 13.333 113.666 40 144.999s73 47 139 47c38.667 0 100 -13.667 184 -41c28.667 27.333 73 41 133 41c32 0 84 -11 156 -33l5 24h64v-148h-65l-5 66c-65.333 20 -111 30 -137 30
c-44.667 0 -75.167 -10.333 -91.5 -31s-24.5 -56.667 -24.5 -108v-63h171v-63h-171v-378l60 -3v-56h-197l-3 60l59 3v374h-237v-378l60 -3v-56zM189 563.001v-63h237v71c0 42 4.66699 76 14 102c-64.667 19.333 -109.667 29 -135 29c-44.667 0 -75.167 -10.333 -91.5 -31
s-24.5 -56.667 -24.5 -108zM909 0.000976562h-192l-4 60l60 3v374l-59 3l3 60h136v-441l60 -3z" />
    <glyph glyph-name="ffl" unicode="ffl" horiz-adv-x="942" 
d="M249 0l-196.001 0.000976562l-4 60l60 3v374h-61v60l61 3v71c0 65.333 13.333 113.666 40 144.999s73 47 139 47c38.667 0 100 -13.667 184 -41c28.667 27.333 73 41 133 41c32.667 0 87.334 -11.667 164.001 -35v22h80v-691l60 -3l-4 -56h-192l-4 60l60 2v608
c-67.333 21.333 -116 32 -146 32c-44.667 0 -75.167 -10.333 -91.5 -31s-24.5 -56.667 -24.5 -108v-63h171v-63h-171v-378l60 -3v-56h-197l-3 60l59 3v374h-237v-378l60 -3v-56zM188.999 563.001v-63h237v71c0 42 4.66699 76 14 102c-64.667 19.333 -109.667 29 -135 29
c-44.667 0 -75.167 -10.333 -91.5 -31s-24.5 -56.667 -24.5 -108z" />
    <glyph glyph-name="ft" unicode="ft" horiz-adv-x="684" 
d="M650 437l-151.998 0.000976562v-285c0 -34.667 5.16699 -59.834 15.5 -75.501s27.5 -23.5 51.5 -23.5l77 8v-54c-29.333 -10 -63.333 -15 -102 -15c-42 0 -72.833 11 -92.5 33s-29.5 58.333 -29.5 109v303h-229v-379l60 -2l-4 -56h-192l-4 60l60 2v375h-61v60l61 3v81
c0 62.667 10.667 108.667 32 138s54.666 44 99.999 44c28.667 0 57.667 -11 87 -33l7 24h47v-133h-58l-2 55c-16.667 18 -36.334 27 -59.001 27c-27.333 0 -46.5 -9 -57.5 -27s-16.5 -52.333 -16.5 -103v-73h229l9 150h71v-150h152v-63z" />
    <glyph glyph-name="tt" unicode="tt" horiz-adv-x="668" 
d="M634 437l-152 0.00195312v-285c0 -34.667 5.16699 -59.834 15.5 -75.501s27.5 -23.5 51.5 -23.5l77 8v-54c-29.333 -10 -63.333 -15 -102 -15c-42 0 -72.833 11 -92.5 33s-29.5 58.333 -29.5 109v303h-221v-285c0 -34.667 5.16699 -59.834 15.5 -75.501
s27.5 -23.5 51.5 -23.5l77 8v-54c-29.333 -10 -63.333 -15 -102 -15c-42 0 -72.833 11 -92.5 33s-29.5 58.333 -29.5 109v303h-61v60l61 2l9 151h71v-150h221l9 150h71v-150h152v-63z" />
    <glyph glyph-name="afii10056_afii10056" unicode="&#x407;&#x407;" horiz-adv-x="665" 
d="M272 750c-8.66699 -6.66699 -18.668 -10 -30.001 -10c-12 0 -21.667 3.33301 -29 10c-8.66699 8 -13 17.667 -13 29c0 12 4.33301 22 13 30c8.66699 6.66699 18.334 10 29.001 10c10 0 20 -3.33301 30 -10c8 -8 12 -18 12 -30c0 -11.333 -4 -21 -12 -29zM103.999 750
c-7.33301 -6.66699 -17.002 -9.99902 -29.002 -9.99902s-21.667 3.33301 -29 10c-8.66699 8 -13 17.667 -13 29c0 12 4.33301 22 13 30c8.66699 6.66699 18.334 10 29.001 10s20.334 -3.33301 29.001 -10c8.66699 -8.66699 13 -18.667 13 -30
c0 -10.667 -4.33301 -20.334 -13 -29.001zM611.997 750.001c-8.66699 -6.66699 -18.668 -10 -30.001 -10c-12 0 -21.667 3.33301 -29 10c-8.66699 8 -13 17.667 -13 29c0 12 4.33301 22 13 30c8.66699 6.66699 18.334 10 29.001 10c10 0 20 -3.33301 30 -10
c8 -8 12 -18 12 -30c0 -11.333 -4 -21 -12 -29zM443.996 750.001c-7.33301 -6.66699 -17.002 -9.99902 -29.002 -9.99902s-21.667 3.33301 -29 10c-8.66699 8 -13 17.667 -13 29c0 12 4.33301 22 13 30c8.66699 6.66699 18.334 10 29.001 10s20.334 -3.33301 29.001 -10
c8.66699 -8.66699 13 -18.667 13 -30c0 -10.667 -4.33301 -20.334 -13 -29.001zM281.994 0.00195312h-236l-4 60l80 3v528l-81 3l4 56h239v-60l-78 -3v-528l80 -3zM617.994 0.00195312h-236l-4 60l80 3v528l-81 3l4 56h239v-60l-78 -3v-528l80 -3z" />
    <glyph glyph-name="quoteright_afii10104" unicode="&#x27;&#x457;" horiz-adv-x="344" 
d="M33 492l-29.001 25.999c25.333 19.333 47.333 44 66 74s29 57 31 81c-10 1.33301 -17.667 4.66602 -23 9.99902c-9.33301 8 -14 17.667 -14 29c0 12 4.66699 22 14 30c7.33301 6.66699 17.333 10 30 10c12 0 22.333 -3.33301 31 -10
c2.66699 -2.66699 4.33398 -4.66699 5.00098 -6c1.33301 -1.33301 2 -2.33301 2 -3c3.33301 -5.33301 5.33301 -10 6 -14c7.33301 -29.333 -1.66699 -68.166 -27 -116.499s-56 -85.166 -92 -110.499zM325.999 613.999c-8.66699 -6.66699 -18.667 -10 -30 -10
c-12.667 0 -22.667 3.33301 -30 10c-8.66699 8 -13 18 -13 30c0 12.667 4.33301 23 13 31c8.66699 6.66699 18.667 10 30 10c10 0 20 -3.33301 30 -10c8.66699 -8.66699 13 -19 13 -31c0 -11.333 -4.33301 -21.333 -13 -30zM307.999 -0.000976562h-192l-4 60l60 3v374l-59 3
l3 60h136v-441l60 -3z" />
    <glyph glyph-name="afii10104_afii10104" unicode="&#x457;&#x457;" horiz-adv-x="554" 
d="M223 614c-8.66699 -6.66699 -18.667 -10 -30 -10c-12.667 0 -22.667 3.33301 -30 10c-8.66699 8 -13 18 -13 30c0 12.667 4.33301 23 13 31c8.66699 6.66699 18.667 10 30 10c10 0 20 -3.33301 30 -10c8.66699 -8.66699 13 -19 13 -31
c0 -11.333 -4.33301 -21.333 -13 -30zM69 614c-7.33301 -6.66699 -17.334 -10 -30.001 -10c-12 0 -21.667 3.33301 -29 10c-8.66699 8 -13 18 -13 30c0 12.667 4.33301 23 13 31c8.66699 6.66699 18.334 10 29.001 10c11.333 0 21.333 -3.33301 30 -10
c8.66699 -8.66699 13 -19 13 -31c0 -11.333 -4.33301 -21.333 -13 -30zM526.999 614c-8.66699 -6.66699 -18.667 -10 -30 -10c-12.667 0 -22.667 3.33301 -30 10c-8 8 -12 18 -12 30c0 12.667 4 23 12 31c8.66699 6.66699 18.667 10 30 10c10 0 20 -3.33301 30 -10
c8.66699 -8.66699 13 -19 13 -31c0 -11.333 -4.33301 -21.333 -13 -30zM375.999 614c-8.66699 -6.66699 -18.667 -10 -30 -10c-12.667 0 -22.667 3.33301 -30 10c-8.66699 8 -13 18 -13 30c0 12.667 4.33301 23 13 31c8.66699 6.66699 18.667 10 30 10
c10 0 20 -3.33301 30 -10c8 -8 12 -18.333 12 -31c0 -12 -4 -22 -12 -30zM232.999 0h-192l-4 60l60 3v374l-59 3l3 60h136v-441l60 -3zM517.999 0h-192l-4 60l60 3v374l-59 3l3 60h136v-441l60 -3z" />
    <glyph glyph-name="afii10103_afii10104" unicode="&#x456;&#x457;" horiz-adv-x="554" 
d="M540 614c-7.33301 -6.66699 -17.334 -10 -30.001 -10c-12 0 -21.667 3.33301 -29 10c-8.66699 8 -13 18 -13 30c0 12.667 4.33301 23 13 31c8.66699 6.66699 18.334 10 29.001 10c11.333 0 21.333 -3.33301 30 -10c8.66699 -8.66699 13 -19 13 -31
c0 -11.333 -4.33301 -21.333 -13 -30zM368.999 614c-7.33301 -6.66699 -17.334 -10 -30.001 -10c-12 0 -21.667 3.33301 -29 10c-8.66699 8 -13 18 -13 30c0 12.667 4.33301 23 13 31c8.66699 6.66699 18.334 10 29.001 10c11.333 0 21.333 -3.33301 30 -10
c8.66699 -8.66699 13 -19 13 -31c0 -11.333 -4.33301 -21.333 -13 -30zM232.998 0h-192l-4 60l60 3v374l-59 3l3 60h136v-441l60 -3zM172.998 609c-8.66699 -6.66699 -20.333 -10 -35 -10c-16 0 -28 3.66699 -36 11c-9.33301 7.33301 -14 18.666 -14 33.999
c0 14.667 4.66699 26.334 14 35.001c9.33301 7.33301 21 11 35 11c13.333 0 25.333 -3.66699 36 -11c9.33301 -9.33301 14 -21 14 -35s-4.66699 -25.667 -14 -35zM517.999 0h-192l-4 60l60 3v374l-59 3l3 60h136v-441l60 -3z" />
    <glyph glyph-name=".notdef" horiz-adv-x="619" 
d="M344 102h-65v188h-185v61h185v187h65v-187h182v-61h-182v-188zM136 440l-54 54l56 56l54 -54zM483 91l-54 54l56 56l54 -54zM485 440l-56 56l54 53l56 -55zM138 91l-56 56l54 53l56 -55z" />
    <glyph glyph-name="space" unicode=" " horiz-adv-x="271" 
 />
    <glyph glyph-name="exclam" unicode="!" horiz-adv-x="316" 
d="M192 212h-65l-10 447v91h84v-91zM195 3c-10 -8 -21.667 -12.002 -35 -12.002c-14.667 0 -26.334 4 -35.001 12c-10.667 8.66699 -16 20 -16 34s5.33301 25.333 16 34c8.66699 8 20.334 12 35.001 12c13.333 0 25 -4 35 -12c10.667 -9.33301 16 -20.666 16 -33.999
s-5.33301 -24.666 -16 -33.999z" />
    <glyph glyph-name="quotedbl" unicode="&#x22;" horiz-adv-x="339" 
d="M97 522h-58l-1 226h74zM259 522h-58l-1 226h74z" />
    <glyph glyph-name="numbersign" unicode="#" horiz-adv-x="556" 
d="M168 89l-47 12l28 117h-93v52h106l26 108h-132v53h145l34 137l48 -12l-31 -125h101l31 129l48 -13l-28 -116h95v-53h-108l-26 -108h134v-52h-147l-33 -138l-47 13l30 125h-102zM239 378l-26 -108h101l26 108h-101z" />
    <glyph glyph-name="dollar" unicode="$" horiz-adv-x="469" 
d="M268 -50h-60.001l-4 102c-28 0.666992 -54.333 3.16699 -79 7.5s-42.334 8.5 -53.001 12.5l-16 6l-7 127l50 4l6 -83c38 -11.333 76 -17 114 -17c44.667 0 78.334 8.83301 101.001 26.5s34 39.5 34 65.5c0 22.667 -10.167 41 -30.5 55s-44.833 25 -73.5 33
s-57.5 16.833 -86.5 26.5s-53.667 25 -74 46s-30.5 48.167 -30.5 81.5c0 37.333 13.333 68 40 92s61.334 38.333 104.001 43l1 122h60l4 -124c30 -5.33301 59.667 -18.333 89 -39l11 34h41v-138h-54l-6 49c-31.333 27.333 -66.333 41 -105 41
c-31.333 0 -56.666 -6.33301 -75.999 -19s-29 -30 -29 -52c0 -22.667 10.167 -41.167 30.5 -55.5s45.166 -25.833 74.499 -34.5s58.5 -18 87.5 -28s53.667 -25.333 74 -46s30.5 -46.667 30.5 -78c0 -40.667 -13.667 -75.167 -41 -103.5s-69.333 -45.833 -126 -52.5z" />
    <glyph glyph-name="percent" unicode="%" horiz-adv-x="931" 
d="M328 2l-62 10l330 629l62 -10zM237 286c-58 0 -102.834 17.002 -134.501 51.002s-47.5 79.667 -47.5 137s16.167 103.166 48.5 137.499s76.833 51.5 133.5 51.5c56 0 100.5 -17.333 133.5 -52s49.5 -80.334 49.5 -137.001c0 -57.333 -16.167 -103 -48.5 -137
s-77.166 -51 -134.499 -51zM236.999 343.002c36.667 0 65.334 12.001 86.001 36.001s31 56 31 96s-10.333 71.833 -31 95.5s-49.334 35.5 -86.001 35.5s-65.167 -11.833 -85.5 -35.5s-30.5 -55.5 -30.5 -95.5c0 -40.667 10 -72.834 30 -96.501s48.667 -35.5 86 -35.5z
M692.999 -13.9971c-58 0 -102.834 17.002 -134.501 51.002s-47.5 79.667 -47.5 137s16.167 103.166 48.5 137.499s76.833 51.5 133.5 51.5c56 0 100.5 -17.333 133.5 -52s49.5 -80.334 49.5 -137.001c0 -57.333 -16.167 -103 -48.5 -137s-77.166 -51 -134.499 -51z
M692.998 43.0049c36.667 0 65.334 12.001 86.001 36.001s31 56 31 96s-10.333 71.833 -31 95.5s-49.334 35.5 -86.001 35.5s-65.167 -11.833 -85.5 -35.5s-30.5 -55.5 -30.5 -95.5c0 -40.667 10 -72.834 30 -96.501s48.667 -35.5 86 -35.5z" />
    <glyph glyph-name="ampersand" unicode="&#x26;" horiz-adv-x="700" 
d="M434 509l-58.0029 -0.000976562l-3 61c-24 20.667 -50.333 31 -79 31c-38 0 -68 -10.167 -90 -30.5s-33 -47.833 -33 -82.5c0 -37.333 11.833 -67.666 35.5 -90.999s49.834 -35.666 78.501 -36.999h151l28 140h47v-140h152v-57h-152v-165
c0 -32.667 5.83301 -55.834 17.5 -69.501s29.834 -20.5 54.501 -20.5c12 0 24.5 0.666992 37.5 2s22.833 2.66602 29.5 3.99902l10 2v-56c-19.333 -9.33301 -52 -14 -98 -14c-58 0 -95.667 20 -113 60c-38.667 -40 -92 -60 -160 -60
c-79.333 0 -138.166 18.833 -176.499 56.5s-57.5 84.834 -57.5 141.501c0 40 13 72.833 39 98.5s59 44.167 99 55.5c-29.333 15.333 -53.5 36.5 -72.5 63.5s-28.5 58.5 -28.5 94.5c0 50.667 17.333 91.167 52 121.5s78.667 45.5 132 45.5c31.333 0 66 -12.333 104 -37l7 28
h47v-145zM433.997 128.999l-0.00195312 174h-158c-38 -2 -70.667 -12.5 -98 -31.5s-41 -46.833 -41 -83.5c0 -38.667 13.333 -71.5 40 -98.5s66.667 -40.5 120 -40.5c24.667 0 46.334 3.16699 65.001 9.5s32.834 14.666 42.501 24.999s16.5 18.833 20.5 25.5
s7 13.334 9 20.001z" />
    <glyph glyph-name="quotesingle" unicode="'" horiz-adv-x="178" 
d="M97 522h-58l-1 226h74z" />
    <glyph glyph-name="parenleft" unicode="(" horiz-adv-x="352" 
d="M305 -158l-59.999 -25.002c-4 4 -9.16699 9.83301 -15.5 17.5s-17.833 25.5 -34.5 53.5s-31.334 58.167 -44.001 90.5s-24.167 74.833 -34.5 127.5s-15.5 108 -15.5 166s5 113.333 15 166s22 96 36 130s28 64 42 90s26 44.667 36 56l15 18l60 -25
c-3.33301 -4 -7.83301 -10.167 -13.5 -18.5s-15.667 -26.5 -30 -54.5s-26.833 -57.667 -37.5 -89s-20.5 -71.666 -29.5 -120.999s-13.5 -100 -13.5 -152s4.33301 -102.167 13 -150.5s19 -88.666 31 -120.999s24 -61 36 -86s22.333 -43.167 31 -54.5z" />
    <glyph glyph-name="parenright" unicode=")" horiz-adv-x="352" 
d="M47 707l59.998 25.002c4 -4 9.16699 -9.83301 15.5 -17.5s17.833 -25.5 34.5 -53.5s31.334 -58.167 44.001 -90.5s24.167 -74.833 34.5 -127.5s15.5 -108 15.5 -166s-5 -113.333 -15 -166s-22 -96 -36 -130s-28 -64 -42 -90s-26 -45 -36 -57l-15 -17l-60 25
c3.33301 4 7.83301 10.167 13.5 18.5s15.5 26.5 29.5 54.5s26.333 57.667 37 89s20.5 71.666 29.5 120.999s13.5 100 13.5 152s-4.16699 102.167 -12.5 150.5s-18.666 88.666 -30.999 120.999s-24.5 61 -36.5 86s-22 43.5 -30 55.5z" />
    <glyph glyph-name="asterisk" unicode="*" horiz-adv-x="456" 
d="M137 310l-60 44l120 133l-175 40l23 70l163 -74l-18 181h75l-20 -180l166 73l23 -70l-175 -38l119 -135l-60 -44l-90 155z" />
    <glyph glyph-name="plus" unicode="+" horiz-adv-x="471" 
d="M269 80h-65v167h-165v61h165v167h65v-167h163v-61h-163v-167z" />
    <glyph glyph-name="comma" unicode="," horiz-adv-x="258" 
d="M85 -163l-39.999 26.001c23.333 22 40.666 47.667 51.999 77s15.666 55.666 12.999 78.999c-5.33301 2 -10.666 5 -15.999 9c-9.33301 8 -14 17.667 -14 29c0 12 4.66699 22 14 30c7.33301 6.66699 17.333 10 30 10c12 0 22.333 -3.33301 31 -10
c14.667 -12.667 22 -34 22 -64c0 -32.667 -8.5 -67 -25.5 -103s-39.167 -63.667 -66.5 -83z" />
    <glyph glyph-name="hyphen" unicode="-" horiz-adv-x="341" 
d="M303 247h-264v61h264v-61z" />
    <glyph glyph-name="period" unicode="." horiz-adv-x="277" 
d="M172 3c-10 -8 -21.667 -12.002 -35 -12.002c-14 0 -25.667 4 -35 12c-10.667 8.66699 -16 20 -16 34s5.33301 25.333 16 34c9.33301 8 21 12 35 12c13.333 0 25 -4 35 -12c10.667 -9.33301 16 -20.666 16 -33.999s-5.33301 -24.666 -16 -33.999z" />
    <glyph glyph-name="slash" unicode="/" horiz-adv-x="482" 
d="M69 -250h-76l439 1000h75z" />
    <glyph glyph-name="zero" unicode="0" horiz-adv-x="653" 
d="M326 -14c-85.333 0 -150.168 31.167 -194.501 93.5s-66.5 147.166 -66.5 254.499c0 106 21.833 187.333 65.5 244s108.834 85 195.501 85c87.333 0 152.833 -28.333 196.5 -85s65.5 -138 65.5 -244c0 -107.333 -22.167 -192.166 -66.5 -254.499
s-109.5 -93.5 -195.5 -93.5zM325.998 48c58 0 101.833 24.667 131.5 74s44.5 120 44.5 212c0 178 -58.667 267 -176 267c-116.667 0 -175 -89 -175 -267c0 -92 14.667 -162.667 44 -212s73 -74 131 -74z" />
    <glyph glyph-name="one" unicode="1" horiz-adv-x="426" 
d="M231 650h67v-591l60 -3l-4 -56h-226l-3 60l93 3v515l-133 -57l-21 58z" />
    <glyph glyph-name="two" unicode="2" horiz-adv-x="553" 
d="M123 498l-58.001 -0.00195312l4 156h47l8 -43c44 34.667 92.667 52 146 52c68 0 119.5 -15.667 154.5 -47s52.5 -74.666 52.5 -129.999c0 -38 -11.167 -78.167 -33.5 -120.5s-52 -82.5 -89 -120.5s-71.667 -70.667 -104 -98s-66.166 -53.666 -101.499 -78.999h288l9 77
l56 -4l-4 -141h-449v67c2 0.666992 14.333 9.5 37 26.5s51 40.5 85 70.5s67.333 62.167 100 96.5s60.5 71.333 83.5 111s34.5 75.5 34.5 107.5c0 40.667 -11.333 70.5 -34 89.5s-58.667 28.5 -108 28.5c-52 0 -92 -16 -120 -48z" />
    <glyph glyph-name="three" unicode="3" horiz-adv-x="551" 
d="M468 603l-200.999 -228.999c2 0 5.5 0.166992 10.5 0.5s8.83301 0.5 11.5 0.5c62 0 111.833 -15.667 149.5 -47s56.5 -74 56.5 -128c0 -64 -25.333 -115.667 -76 -155s-116 -59 -196 -59c-34.667 0 -65.334 2.5 -92.001 7.5s-44.334 9.83301 -53.001 14.5l-14 8l-4 125
l54 4l8 -82c27.333 -8.66699 61.333 -13 102 -13c58 0 104 14.167 138 42.5s51 64.166 51 107.499c0 36.667 -12.667 65.5 -38 86.5s-61.333 31.5 -108 31.5c-12.667 0 -24.667 -1.83301 -36 -5.5s-19.666 -7.16699 -24.999 -10.5l-7 -6l-37 39l208 248h-237l-7 -81h-56
l4 152l65 -4h329v-47z" />
    <glyph glyph-name="four" unicode="4" horiz-adv-x="573" 
d="M505 0l-200 0.00195312l-4 56l68 3v114h-330l-5 50c72.667 127.333 134 272.666 184 435.999l76 -9c-44.667 -142.667 -102.667 -281.334 -174 -416.001h249v231l11 90h69v-321h84v-56l-84 -5v-118l60 -3z" />
    <glyph glyph-name="five" unicode="5" horiz-adv-x="539" 
d="M64 16l-3.99902 125.001l54 3l8 -80c24.667 -9.33301 59.667 -14 105 -14c54.667 0 98.334 15.5 131.001 46.5s49 69.5 49 115.5c0 38.667 -15.333 70 -46 94s-71 36 -121 36c-18.667 0 -36 -1.83301 -52 -5.5s-27.5 -7.33398 -34.5 -11.001s-11.167 -6.5 -12.5 -8.5
l-42 5l33 328h270l6 36l56 -4l-4 -103l-68 4h-199l-20 -192c25.333 6 50 9 74 9c74 0 132.833 -16.667 176.5 -50s65.5 -79.333 65.5 -138c0 -68 -24.833 -122.667 -74.5 -164s-112.834 -62 -189.501 -62c-37.333 0 -69.333 2.5 -96 7.5s-44.334 9.83301 -53.001 14.5z" />
    <glyph glyph-name="six" unicode="6" horiz-adv-x="601" 
d="M481 509l-57.999 0.000976562l-4 51c-29.333 27.333 -63.333 41 -102 41c-106.667 0 -165 -82.667 -175 -248c49.333 40 107.333 60 174 60c72 0 128.333 -17 169 -51s61 -81.333 61 -142c0 -64.667 -20.333 -119.834 -61 -165.501s-98.334 -68.5 -173.001 -68.5
c-78 0 -138.667 24.5 -182 73.5s-65 115.833 -65 200.5c0 20 1 41 3 63c8 112.667 33 197.5 75 254.5s97.333 85.5 166 85.5c38.667 0 77 -14.333 115 -43l10 34h47v-145zM307.001 359.001c-43.333 0 -78.001 -8.99902 -104.001 -26.999s-43.333 -36 -52 -54
c-2.66699 -8 -4 -21.667 -4 -41c0 -58.667 13.833 -105.5 41.5 -140.5s68.834 -52.5 123.501 -52.5c51.333 0 89.5 17.667 114.5 53s37.5 76.666 37.5 123.999c0 40 -13.167 73 -39.5 99s-65.5 39 -117.5 39z" />
    <glyph glyph-name="seven" unicode="7" horiz-adv-x="488" 
d="M467 584c-50 -83.333 -98 -177.832 -144 -283.499s-80.333 -205.834 -103 -300.501h-93c42.667 171.333 125 364.333 247 579h-276l-6 -81h-56l4 156l64 -4h363v-66z" />
    <glyph glyph-name="eight" unicode="8" horiz-adv-x="582" 
d="M513 497c0 -76 -44.6689 -130.332 -134.002 -162.999c18 -4.66699 34.833 -11 50.5 -19s31.334 -18.333 47.001 -31s28.167 -29.334 37.5 -50.001s14 -43.667 14 -69c0 -60.667 -20.833 -105.667 -62.5 -135s-99.834 -44 -174.501 -44s-132.667 14.833 -174 44.5
s-62 75.5 -62 137.5c0 42.667 13.833 77.334 41.5 104.001s61.834 47 102.501 61c-86 29.333 -129 84.666 -129 165.999c0 52 19.833 92.333 59.5 121s93.5 43 161.5 43c68.667 0 122.834 -14.5 162.501 -43.5s59.5 -69.833 59.5 -122.5zM439.998 170.001
c0 24.667 -5.50098 46.167 -16.501 64.5s-25.333 32.166 -43 41.499s-33.667 16.166 -48 20.499s-29.166 7.16602 -44.499 8.49902c-13.333 -1.33301 -26.833 -4.16602 -40.5 -8.49902s-29.167 -11.166 -46.5 -20.499s-31.333 -23.166 -42 -41.499s-16 -39.5 -16 -63.5
c0 -43.333 13 -76 39 -98s62.333 -33 109 -33s83.167 11 109.5 33s39.5 54.333 39.5 97zM152.997 495.001c0 -24.667 4.99902 -46.167 14.999 -64.5s23.167 -32.333 39.5 -42s31.333 -16.667 45 -21s27.5 -7.5 41.5 -9.5c12.667 2 25.334 5.16699 38.001 9.5
s27 11.333 43 21s29 23.667 39 42s15 39.5 15 63.5c0 76.667 -46 115 -138 115s-138 -38 -138 -114z" />
    <glyph glyph-name="nine" unicode="9" horiz-adv-x="601" 
d="M261 48c55.333 0 100.834 21.334 136.501 64.001s55.834 103 60.501 181c-42.667 -46 -100.334 -69 -173.001 -69c-70.667 0 -126.667 20.167 -168 60.5s-62 91.833 -62 154.5c0 63.333 21.333 116.5 64 159.5s102 64.5 178 64.5c159.333 0 239 -84.667 239 -254
c0 -34.667 -1 -62 -3 -82c-4.66699 -110.667 -31.667 -195.167 -81 -253.5s-113 -87.5 -191 -87.5c-30.667 0 -59.334 1.66699 -86.001 5s-45.667 6.66602 -57 9.99902l-16 5l-4 134l54 4l8 -86c32 -6.66699 65.667 -10 101 -10zM294.001 278.001
c22 0 42.333 2.66895 61 8.00195s34.167 12.166 46.5 20.499s22 16.166 29 23.499s12.833 14.333 17.5 21c4 20 6 46 6 78c0 117.333 -52.333 176 -157 176c-52 0 -91.667 -16.333 -119 -49s-41 -71.667 -41 -117c0 -42.667 13.5 -80.167 40.5 -112.5
s65.833 -48.5 116.5 -48.5z" />
    <glyph glyph-name="colon" unicode=":" horiz-adv-x="279" 
d="M172 382c-10 -8 -21.668 -12.002 -35.001 -12.002c-14 0 -25.667 4 -35 12c-10.667 8.66699 -16 20 -16 34s5.33301 25.333 16 34c8.66699 8 20.334 12 35.001 12c13.333 0 25 -4 35 -12c10.667 -9.33301 16 -20.666 16 -33.999s-5.33301 -24.666 -16 -33.999z
M171.999 2.99805c-10 -8 -21.667 -12.002 -35 -12.002c-14 0 -25.667 4 -35 12c-10.667 8.66699 -16 20 -16 34s5.33301 25.333 16 34c9.33301 8 21 12 35 12c13.333 0 25 -4 35 -12c10.667 -9.33301 16 -20.666 16 -33.999s-5.33301 -24.666 -16 -33.999z" />
    <glyph glyph-name="semicolon" unicode=";" horiz-adv-x="277" 
d="M96 -163l-39.999 26.001c23.333 22 40.666 47.667 51.999 77s15.666 55.666 12.999 78.999c-5.33301 2 -10.666 5 -15.999 9c-9.33301 8 -14 17.667 -14 29c0 12 4.66699 22 14 30c7.33301 6.66699 17.333 10 30 10c12 0 22.333 -3.33301 31 -10
c14.667 -12.667 22 -34 22 -64c0 -32.667 -8.5 -67 -25.5 -103s-39.167 -63.667 -66.5 -83zM172.001 382.001c-10 -8 -21.668 -12.002 -35.001 -12.002c-14 0 -25.667 4 -35 12c-10.667 8.66699 -16 20 -16 34s5.33301 25.333 16 34c8.66699 8 20.334 12 35.001 12
c13.333 0 25 -4 35 -12c10.667 -9.33301 16 -20.666 16 -33.999s-5.33301 -24.666 -16 -33.999z" />
    <glyph glyph-name="less" unicode="&#x3c;" horiz-adv-x="427" 
d="M352 118l-281 200l281 199l35 -38l-234 -161l235 -162z" />
    <glyph glyph-name="equal" unicode="=" horiz-adv-x="543" 
d="M504 148h-465v61h465v-61zM504 346h-465v61h465v-61z" />
    <glyph glyph-name="greater" unicode="&#x3e;" horiz-adv-x="427" 
d="M357 318l-282 -200l-36 38l235 162l-235 161l36 38z" />
    <glyph glyph-name="question" unicode="?" horiz-adv-x="476" 
d="M99 602l-56.998 -0.00488281l3 152h47l8 -35c42 29.333 85.667 44 131 44c66 0 115.167 -17 147.5 -51s48.5 -73.667 48.5 -119c0 -32.667 -6.33301 -61.167 -19 -85.5s-28.334 -43.166 -47.001 -56.499l-60.5 -43c-21.667 -15.333 -41.334 -30.166 -59.001 -44.499
s-31.667 -34.666 -42 -60.999s-13.833 -57.166 -10.5 -92.499l-46 -4c-6 26.667 -9 50.334 -9 71.001c0 27.333 5 51.5 15 72.5s22.667 37.833 38 50.5s31.833 25.5 49.5 38.5l49.5 36.5c15.333 11.333 28 26.333 38 45s15 39.667 15 63
c0 32.667 -9.83301 60.167 -29.5 82.5s-53.167 33.5 -100.5 33.5c-42.667 0 -78 -14 -106 -42zM202.002 2.99512c-10 -8 -21.667 -12.002 -35 -12.002c-14 0 -25.667 4 -35 12c-10.667 8.66699 -16 20 -16 34s5.33301 25.333 16 34c9.33301 8 21 12 35 12
c13.333 0 25 -4 35 -12c10.667 -9.33301 16 -20.666 16 -33.999s-5.33301 -24.666 -16 -33.999z" />
    <glyph glyph-name="at" unicode="@" horiz-adv-x="968" 
d="M769 -77l23.9951 -50.998c-2 -2.66699 -5.16699 -6.33398 -9.5 -11.001s-14.833 -12.834 -31.5 -24.501s-35.167 -22 -55.5 -31s-47.666 -17.167 -81.999 -24.5s-71.166 -11 -110.499 -11c-142 0 -250.667 37.667 -326 113s-113 180.333 -113 315
c0 139.333 38.833 246.833 116.5 322.5s190.167 113.5 337.5 113.5c125.333 0 221.833 -31 289.5 -93s101.5 -148 101.5 -258c0 -102 -18.833 -176.833 -56.5 -224.5s-85.5 -71.5 -143.5 -71.5s-92.333 17.667 -103 53c-30 -36 -73 -54 -129 -54
c-57.333 0 -103.5 18.667 -138.5 56s-52.5 90 -52.5 158c0 64 18.167 114.667 54.5 152s85.833 56 148.5 56c49.333 0 89 -13.667 119 -41l15 27h36v-307c0 -35.333 18 -53 54 -53c36.667 0 67.834 19 93.501 57s38.5 100.667 38.5 188c0 96 -27.833 169.667 -83.5 221
s-136.834 77 -243.501 77c-122.667 0 -217 -31.167 -283 -93.5s-99 -157.5 -99 -285.5c0 -117.333 32.833 -208 98.5 -272s155.167 -96 268.5 -96c34 0 66.333 3.16699 97 9.5s55.834 14 75.501 23s36.834 18.167 51.501 27.5s25.334 17.333 32.001 24zM491.995 34.002
c54 0 91 24.667 111 74v198c-16.667 36.667 -52.334 55 -107.001 55c-47.333 0 -83.166 -14.167 -107.499 -42.5s-36.5 -67.833 -36.5 -118.5c0 -51.333 12.333 -91.833 37 -121.5s59 -44.5 103 -44.5z" />
    <glyph glyph-name="A" unicode="A" horiz-adv-x="700" 
d="M209 0h-217l-4 60l79 3l228 587h111l228 -591l79 -3l-4 -56h-225v48l66 2l-59 150h-290l-59 -148l71 -2zM346 583l-124 -328h247z" />
    <glyph glyph-name="B" unicode="B" horiz-adv-x="631" 
d="M320 0h-274.001l-4 60l80 3v528l-81 3l4 56h273c74.667 0 130.334 -13.5 167.001 -40.5s55 -65.167 55 -114.5c0 -60 -29 -109 -87 -147c82.667 -22 124 -72.333 124 -151c0 -61.333 -20.833 -109.5 -62.5 -144.5s-106.5 -52.5 -194.5 -52.5zM355.999 308h-159v-247h118
c120.667 0 181 45.333 181 136c0 74 -46.667 111 -140 111zM196.999 363l155 -0.000976562c25.333 0 50 10.5 74 31.5s36 51.833 36 92.5c0 36.667 -12.5 62.834 -37.5 78.501s-61.833 23.5 -110.5 23.5h-117v-226z" />
    <glyph glyph-name="C" unicode="C" horiz-adv-x="665" 
d="M593 429l-66.0039 -0.00195312l-6 121c-39.333 30 -83.666 45 -132.999 45c-73.333 0 -132.833 -23.5 -178.5 -70.5s-68.5 -111.833 -68.5 -194.5c0 -84 22.833 -151 68.5 -201s107.167 -75 184.5 -75c42 0 81.167 8.66699 117.5 26s62.5 34.666 78.5 51.999l23 25
l32 -54c-2 -3.33301 -5.16699 -7.66602 -9.5 -12.999s-14.166 -14.666 -29.499 -27.999s-32.166 -25.166 -50.499 -35.499s-42.666 -19.666 -72.999 -27.999s-62.166 -12.5 -95.499 -12.5c-105.333 0 -187 31.167 -245 93.5s-87 145.833 -87 250.5
c0 101.333 30.167 182.166 90.5 242.499s137.166 90.5 230.499 90.5c53.333 0 104 -16.333 152 -49l14 40h51v-225z" />
    <glyph glyph-name="D" unicode="D" horiz-adv-x="750" 
d="M46 0l-4 59.999l80 3v528l-81 3l4 56h309c109.333 0 193.5 -26.5 252.5 -79.5s88.5 -132.167 88.5 -237.5s-29.5 -187.166 -88.5 -245.499s-142.833 -87.5 -251.5 -87.5h-309zM354 581.999h-147.999v-514h150c81.333 0 143.666 22.833 186.999 68.5s65 111.167 65 196.5
c0 166 -84.667 249 -254 249z" />
    <glyph glyph-name="E" unicode="E" horiz-adv-x="601" 
d="M533 505h-66l-4 80h-257v-226l296 1v-63h-296v-232h284l8 90l62 -4l-4 -151h-510l-4 60l80 3v528l-81 3l4 56h416l72 4v-149z" />
    <glyph glyph-name="F" unicode="F" horiz-adv-x="550" 
d="M543 505h-66l-4 80h-267v-228h284v-63h-284v-235l100 -3l-4 -56h-256l-4 60l80 3v528l-81 3l4 56h426l72 4v-149z" />
    <glyph glyph-name="G" unicode="G" horiz-adv-x="723" 
d="M593 459l-62.002 0.000976562l-6 92c-35.333 29.333 -79.666 44 -132.999 44c-83.333 0 -146 -22.333 -188 -67s-63 -109.667 -63 -195c0 -86 21.333 -154 64 -204s100.334 -75 173.001 -75c33.333 0 62.5 4.16699 87.5 12.5s43.833 19 56.5 32s21.667 23.667 27 32
s9.33301 16.5 12 24.5v101h-157v55h228v-311h-50l-11 70c-48 -56 -118.333 -84 -211 -84c-96 0 -170.833 31.333 -224.5 94s-80.5 147 -80.5 253c0 103.333 29.333 184.166 88 242.499s138.667 87.5 240 87.5c50.667 0 100 -16 148 -48l11 39h51v-195z" />
    <glyph glyph-name="H" unicode="H" horiz-adv-x="766" 
d="M282 0h-236l-4 60l80 3v528l-81 3l4 56h239v-60l-78 -3v-233h354v233l-81 3l3 60h239v-60l-77 -3v-528l80 -3l-4 -56h-236l-4 60l80 3v228h-354v-229l80 -2z" />
    <glyph glyph-name="I" unicode="I" horiz-adv-x="329" 
d="M282 0h-236l-4 60l80 3v528l-81 3l4 56h239v-60l-78 -3v-528l80 -3z" />
    <glyph glyph-name="J" unicode="J" horiz-adv-x="449" 
d="M407 590l-63.001 -3.00098v-400c0 -75.333 -15.667 -127.666 -47 -156.999s-75 -44 -131 -44c-28 0 -53.667 2 -77 6s-39.666 8 -48.999 12l-13 5l-7 139l58 4l7 -92c22.667 -6.66699 46.667 -10 72 -10c68.667 0 103 45.667 103 137v404l-95 3l4 56h238v-60z" />
    <glyph glyph-name="K" unicode="K" horiz-adv-x="713" 
d="M713 0h-153l-39 34l-221 254l-94 -64v-162l80 -2l-4 -60h-236l-4 60l80 3v528l-81 3l4 56h231v-52l-70 -3v-289l92 62l207 230l-44 2v50h229v-60l-107 -3l-220 -245l245 -281l109 -1z" />
    <glyph glyph-name="L" unicode="L" horiz-adv-x="559" 
d="M46 0l-4 60l80 3v528l-81 3l4 56h239v-60l-78 -3v-522h276l8 94l62 -4l-4 -155h-502z" />
    <glyph glyph-name="M" unicode="M" horiz-adv-x="1002" 
d="M269 0h-223l-4 60l80 3l1 528l-81 3l3 56h186l272 -564l269 564h185v-60l-78 -3l1 -525l80 -2l-4 -60h-225l-4 52l72 3v481h-1l-258 -536h-80l-259 536h-1v-483l73 -3z" />
    <glyph glyph-name="N" unicode="N" horiz-adv-x="788" 
d="M674 -6h-88l-389 537h-1l4 -31v-440l81 -2l-4 -58h-231l-4 60l80 3v528l-81 3l4 56h165l387 -544l-2 23v461l-81 2l3 58h234v-60l-77 -3v-593z" />
    <glyph glyph-name="O" unicode="O" horiz-adv-x="761" 
d="M707 334c0 -104.667 -29.1689 -188.832 -87.502 -252.499s-138.166 -95.5 -239.499 -95.5s-180.833 31.667 -238.5 95s-86.5 147.666 -86.5 252.999c0 103.333 28.667 184 86 242s137 87 239 87c102.667 0 182.834 -29 240.501 -87s86.5 -138.667 86.5 -242z
M619.998 334.002c0 82.667 -21.1689 146.834 -63.502 192.501s-101.166 68.5 -176.499 68.5s-134 -22.833 -176 -68.5s-63 -109.834 -63 -192.501c0 -84.667 21.167 -152.5 63.5 -203.5s100.833 -76.5 175.5 -76.5s133.334 25.5 176.001 76.5s64 118.833 64 203.5z" />
    <glyph glyph-name="P" unicode="P" horiz-adv-x="580" 
d="M291 0h-245l-4 60l80 3v528l-81 3l4 56h254c162 0 243 -65.333 243 -196c0 -31.333 -4.66699 -59.833 -14 -85.5s-21.833 -47.167 -37.5 -64.5s-34 -31.833 -55 -43.5s-42.833 -20.167 -65.5 -25.5s-46 -8 -70 -8h-100v-172l94 -3zM285 589h-85v-303h84
c50 0 91 13.167 123 39.5s48 67.5 48 123.5c0 93.333 -56.667 140 -170 140z" />
    <glyph glyph-name="Q" unicode="Q" horiz-adv-x="761" 
d="M652 -71l7.99902 -63.001c-22.667 -8 -46.667 -12 -72 -12c-44 0 -87.167 11.833 -129.5 35.5s-76.833 56.167 -103.5 97.5c-94 5.33301 -167.5 39.333 -220.5 102s-79.5 144.334 -79.5 245.001c0 103.333 28.667 184 86 242s137 87 239 87
c102.667 0 182.834 -28.5 240.501 -85.5s86.5 -136.833 86.5 -239.5c0 -94.667 -24 -173.167 -72 -235.5s-114 -99.5 -198 -111.5c50 -48 102.667 -72 158 -72c20 0 39 3.33301 57 10zM379.999 53.999c74.667 0 133.332 25.5 175.999 76.5s64 118.833 64 203.5
c0 82.667 -21.167 146.834 -63.5 192.501s-101.166 68.5 -176.499 68.5s-134 -22.833 -176 -68.5s-63 -109.834 -63 -192.501c0 -84.667 21.167 -152.5 63.5 -203.5s100.833 -76.5 175.5 -76.5z" />
    <glyph glyph-name="R" unicode="R" horiz-adv-x="628" 
d="M642 0l-142.999 -0.000976562l-33 33l-144 199h-122v-177l73 -3l-4 -52h-223l-4 60l80 6v525l-81 3l4 56h254c78 0 138 -16 180 -48s63 -80 63 -144c0 -49.333 -12.833 -92.166 -38.5 -128.499s-58.834 -62.833 -99.501 -79.5l142 -189l100 -1zM285.001 588.999
l-84.999 -0.000976562v-294h109c41.333 0 76.166 14.333 104.499 43s42.5 67.334 42.5 116.001c0 90 -57 135 -171 135z" />
    <glyph glyph-name="S" unicode="S" horiz-adv-x="580" 
d="M497 501l-64.998 -0.000976562l-5 55c-34 30 -74.333 45 -121 45c-45.333 0 -80.333 -10 -105 -30s-37 -48 -37 -84c0 -30 12.5 -54.5 37.5 -73.5s55.333 -33.833 91 -44.5s71.5 -22 107.5 -34s66.5 -30.5 91.5 -55.5s37.5 -57.167 37.5 -96.5
c0 -60 -20.667 -107.833 -62 -143.5s-99.333 -53.5 -174 -53.5c-42.667 0 -82.334 3.33301 -119.001 10s-62.667 13.334 -78 20.001l-23 10l-2 143l62 4l7 -101c46.667 -16 95 -24 145 -24c53.333 0 93.666 11.833 120.999 35.5s41 53.834 41 90.501
c0 28.667 -12.5 51.667 -37.5 69s-55.5 31.166 -91.5 41.499s-72 21.666 -108 33.999s-66.5 31.833 -91.5 58.5s-37.5 61 -37.5 103c0 54.667 18.833 98.834 56.5 132.501s89.167 50.5 154.5 50.5c48.667 0 96 -16.333 142 -49l13 40h50v-153z" />
    <glyph glyph-name="T" unicode="T" horiz-adv-x="540" 
d="M60 494h-62l4 160l72 -4h396l72 4v-160h-62l-6 91h-162v-523l80 -2l-4 -60h-236l-4 60l80 3v522h-160z" />
    <glyph glyph-name="U" unicode="U" horiz-adv-x="742" 
d="M266 594l-78.001 -3v-352c0 -52.667 15.833 -95.834 47.5 -129.501s77.167 -50.5 136.5 -50.5c60 0 105.833 16.833 137.5 50.5s47.5 76.834 47.5 129.501v351l-82 2l3 58h237v-56l-77 -3v-369c0 -68 -22.5 -124.333 -67.5 -169s-111.5 -67 -199.5 -67
c-87.333 0 -153.666 22.5 -198.999 67.5s-68 101.167 -68 168.5v369l-81 3l4 56h239v-56z" />
    <glyph glyph-name="V" unicode="V" horiz-adv-x="672" 
d="M393 0h-110l-226 591l-78 3l4 56h225v-56l-65 -3l197 -528l196 527l-69 2l4 58h221v-56l-74 -3z" />
    <glyph glyph-name="W" unicode="W" horiz-adv-x="1025" 
d="M335 0h-89l-190 591l-77 3l4 56h225v-56l-66 -3l153 -498l179 557h88l183 -555l148 495l-72 2l4 58h221v-56l-71 -3l-186 -591h-89l-184 547z" />
    <glyph glyph-name="X" unicode="X" horiz-adv-x="696" 
d="M244 594l-47 -2l151 -208v-1l1 1l151 207l-48 1v58h235v-60l-98 -2l-191 -261l199 -266l101 -1l-3 -60h-240v56l45 1l-154 210l-154 -208l47 -1v-58h-237l-4 60l102 2l196 263l-195 266l-97 3l3 56h237v-56z" />
    <glyph glyph-name="Y" unicode="Y" horiz-adv-x="637" 
d="M441 0h-236l-4 60l79 3v206l-220 322l-93 3l3 56h237v-56l-52 -2l170 -253l168 252l-51 1v58h228v-60l-92 -2l-213 -318v-208l80 -2z" />
    <glyph glyph-name="Z" unicode="Z" horiz-adv-x="608" 
d="M559 593l-407 -528h345l8 90l62 -4l-4 -151h-518v57l407 528h-331l-6 -80h-65l3 145v4l73 -4h433v-57z" />
    <glyph glyph-name="bracketleft" unicode="[" horiz-adv-x="385" 
d="M373 -76h-272v777h272v-57h-201v-662h201v-58z" />
    <glyph glyph-name="backslash" unicode="\" horiz-adv-x="482" 
d="M489 -250h-75l-439 1000h75z" />
    <glyph glyph-name="bracketright" unicode="]" horiz-adv-x="385" 
d="M283 -76h-272v58h201v661h-201v58h272v-777z" />
    <glyph glyph-name="asciicircum" unicode="^" horiz-adv-x="388" 
d="M70 488l-32 32l155 167l157 -167l-33 -32l-123 134z" />
    <glyph glyph-name="underscore" unicode="_" horiz-adv-x="723" 
d="M684 -153h-645v61h645v-61z" />
    <glyph glyph-name="grave" unicode="`" horiz-adv-x="237" 
d="M157 577l-57 -5l-116 139l77 9z" />
    <glyph glyph-name="a" unicode="a" horiz-adv-x="536" 
d="M146 348l-61 0.00195312l3 157h51l7 -37c42 30.667 87 46 135 46c114.667 0 172 -60.667 172 -182v-273l60 -3l-4 -56h-122l-12 64c-3.33301 -6.66699 -8 -13.167 -14 -19.5s-15 -14.5 -27 -24.5s-28.333 -18.167 -49 -24.5s-43.667 -9.5 -69 -9.5
c-56.667 0 -100.167 12.5 -130.5 37.5s-45.5 60.167 -45.5 105.5c0 26 7.16699 48.667 21.5 68s29.833 34.166 46.5 44.499s42.167 19.5 76.5 27.5s60 13.167 77 15.5s44.5 5.16602 82.5 8.49902c13.333 1.33301 23 2.33301 29 3v35c0 44 -8.5 75.667 -25.5 95
s-46.167 29 -87.5 29c-43.333 0 -80 -14 -110 -42zM240 42.002c18 0 34.834 2.33398 50.501 7.00098s28.167 10.167 37.5 16.5s17.666 13.5 24.999 21.5s12.166 14.167 14.499 18.5l5.5 10.5v127c-91.333 -6.66699 -151.666 -15.334 -180.999 -26.001
c-46.667 -16 -70 -42.667 -70 -80c0 -63.333 39.333 -95 118 -95z" />
    <glyph glyph-name="b" unicode="b" horiz-adv-x="593" 
d="M149 0l-64 0.000976562v687l-59 3l4 60h136v-305h1l5 7.5c2 3 7.5 8.5 16.5 16.5s19 15 30 21s26 11.5 45 16.5s39.5 7.5 61.5 7.5c70 0 125.833 -20.833 167.5 -62.5s62.5 -100.834 62.5 -177.501c0 -84.667 -21.167 -153.834 -63.5 -207.501s-101.5 -80.5 -177.5 -80.5
c-28.667 0 -55.167 3.83301 -79.5 11.5s-41.333 14.834 -51 21.501s-17.5 13 -23.5 19zM302 452.001c-19.333 0 -37.168 -2.49902 -53.501 -7.49902s-29.333 -11 -39 -18s-18 -14 -25 -21s-11.833 -12.833 -14.5 -17.5l-4 -8v-287c3.33301 -4 8.33301 -8.83301 15 -14.5
s20.5 -12.334 41.5 -20.001s44.167 -11.5 69.5 -11.5c60.667 0 105.834 20.333 135.501 61s44.5 95.334 44.5 164.001c0 63.333 -14.333 109.166 -43 137.499s-71 42.5 -127 42.5z" />
    <glyph glyph-name="c" unicode="c" horiz-adv-x="487" 
d="M458 335h-62l-5 71c-30 32.667 -66 49 -108 49c-56 0 -97 -15.5 -123 -46.5s-39 -81.833 -39 -152.5c0 -70 15.167 -122.667 45.5 -158s72.833 -53 127.5 -53c27.333 0 53.166 5 77.499 15s41.833 20 52.5 30l15 15l36 -40c-1.33301 -2 -3.5 -4.83301 -6.5 -8.5
s-9.83301 -10 -20.5 -19s-22.667 -17 -36 -24s-31.166 -13.333 -53.499 -19s-46.166 -8.5 -71.499 -8.5c-80.667 0 -142.334 23.167 -185.001 69.5s-64 112.833 -64 199.5c0 84.667 20 149 60 193s97.667 66 173 66c42 0 83.333 -16.333 124 -49l11 40h52v-170z" />
    <glyph glyph-name="d" unicode="d" horiz-adv-x="600" 
d="M563 0l-125.999 0.000976562l-8 55c-5.33301 -8 -12.666 -16.333 -21.999 -25s-26.833 -18.167 -52.5 -28.5s-54.834 -15.5 -87.501 -15.5c-68 0 -123.167 24 -165.5 72s-63.5 111 -63.5 189c0 83.333 20.333 148.666 61 195.999s99 71 175 71c32 0 60.667 -4 86 -12
s42.666 -16 51.999 -24l14 -12h1v221l-59 3l4 60h135v-691l60 -3zM291.001 48.001c26.667 0 50.833 5.5 72.5 16.5s36.5 20.833 44.5 29.5s14.333 16.667 19 24v288c-31.333 31.333 -73.333 47 -126 47c-62 0 -107.5 -17.167 -136.5 -51.5s-43.5 -85.166 -43.5 -152.499
c0 -64.667 14.833 -114.334 44.5 -149.001s71.5 -52 125.5 -52z" />
    <glyph glyph-name="e" unicode="e" horiz-adv-x="518" 
d="M474 235l-356.005 -0.00195312c2.66699 -62 19.334 -108.833 50.001 -140.5s72.334 -47.5 125.001 -47.5c30 0 57.5 5.5 82.5 16.5s42.5 21.833 52.5 32.5l15 17l38 -41c-1.33301 -2 -3.5 -5 -6.5 -9s-10.167 -11 -21.5 -21s-23.666 -18.667 -36.999 -26
s-31.166 -14.166 -53.499 -20.499s-46.166 -9.5 -71.499 -9.5c-78.667 0 -140.5 23 -185.5 69s-67.5 111.333 -67.5 196c0 82.667 21.5 147.167 64.5 193.5s101.167 69.5 174.5 69.5c68 0 119.833 -18.167 155.5 -54.5s53.5 -90.5 53.5 -162.5
c0 -10.667 -1 -21.167 -3 -31.5s-4 -18.166 -6 -23.499zM277.995 454.998c-48 0 -85.332 -14.333 -111.999 -43s-42.334 -69.334 -47.001 -122.001h293c0.666992 8.66699 1 16.334 1 23.001c0 94.667 -45 142 -135 142z" />
    <glyph glyph-name="f" unicode="f" horiz-adv-x="361" 
d="M403 614h-57.001l-5 58c-17.333 20.667 -39.666 31 -66.999 31c-31.333 0 -53.333 -9.33301 -66 -28s-19 -52.667 -19 -102v-73h171v-63h-171v-379l60 -2l-4 -56h-192l-4 60l60 2v375h-61v60l61 3v81c0 63.333 11.5 109.5 34.5 138.5s60.5 43.5 112.5 43.5
c33.333 0 64 -11 92 -33l8 24h47v-140z" />
    <glyph glyph-name="g" unicode="g" horiz-adv-x="532" 
d="M513 439l-62.001 -2.00391c15.333 -25.333 23 -57.666 23 -96.999c0 -58.667 -18.5 -104.5 -55.5 -137.5s-86.5 -49.5 -148.5 -49.5c-2.66699 0 -6 -0.166992 -10 -0.5s-11.167 -1.16602 -21.5 -2.49902s-19.5 -3.16602 -27.5 -5.49902s-15.167 -6.16602 -21.5 -11.499
s-9.5 -11.666 -9.5 -18.999c0 -16 7.66699 -28.667 23 -38s44.333 -15 87 -17c76 -3.33301 132.667 -15.333 170 -36s56 -57 56 -109c0 -54 -20 -97.167 -60 -129.5s-99.333 -48.5 -178 -48.5c-79.333 0 -138.666 15.833 -177.999 47.5s-59 74.167 -59 127.5
c0 62.667 34 105 102 127c-18.667 17.333 -28 41.333 -28 72c0 28 15.333 49.667 46 65c-32.667 15.333 -58 37.166 -76 65.499s-27 61.5 -27 99.5c0 42 11 76.5 33 103.5s48.5 45.5 79.5 55.5s66.833 15 107.5 15c40 0 76 -6.66699 108 -20l123 6zM266.999 -1.00391
c-18.667 1.33301 -33 2.66699 -43 4c-28 -2 -52.667 -10.833 -74 -26.5s-32 -37.5 -32 -65.5c0 -35.333 13.5 -63.333 40.5 -84s67.167 -31 120.5 -31c51.333 0 90.833 10 118.5 30s41.5 47.333 41.5 82c0 34 -13.333 56.833 -40 68.5s-70.667 19.167 -132 22.5z
M272.999 455.997c-92 0 -138 -38.668 -138 -116.001c0 -41.333 11.833 -73.666 35.5 -96.999s56.167 -35 97.5 -35c40.667 0 72.167 11.667 94.5 35s33.5 56 33.5 98s-10.5 71.667 -31.5 89s-51.5 26 -91.5 26z" />
    <glyph glyph-name="h" unicode="h" horiz-adv-x="603" 
d="M229 0l-191.999 0.000976562l-4 60l60 3v624l-59 3l3 60h136v-293h1l4 3c2 2 5.16699 4.66699 9.5 8s9.66602 7.16602 15.999 11.499s14.166 8.5 23.499 12.5s19.5 7.66699 30.5 11s23.833 6 38.5 8s30 3 46 3c118.667 0 178 -51.667 178 -155v-300l60 -3l-4 -56h-136
v344c0 68 -42 102 -126 102c-28.667 0 -54.667 -4.33301 -78 -13s-39.666 -17 -48.999 -25l-14 -13v-336l60 -3z" />
    <glyph glyph-name="i" unicode="i" horiz-adv-x="270" 
d="M233 0h-192l-4 60l60 3v374l-59 3l3 60h136v-441l60 -3zM172 609c-8.66699 -6.66699 -20.333 -10 -35 -10c-16 0 -28 3.66699 -36 11c-9.33301 7.33301 -14 18.666 -14 33.999c0 14.667 4.66699 26.334 14 35.001c9.33301 7.33301 21 11 35 11
c13.333 0 25.333 -3.66699 36 -11c9.33301 -9.33301 14 -21 14 -35s-4.66699 -25.667 -14 -35z" />
    <glyph glyph-name="j" unicode="j" horiz-adv-x="266" 
d="M-65 -246l21 64c15.333 -6.66699 35 -10 59 -10c23.333 0 43.5 13.667 60.5 41s25.5 66 25.5 116v472l-58 3l4 60h134v-535c0 -74.667 -15.5 -131.5 -46.5 -170.5s-67.833 -58.5 -110.5 -58.5c-20.667 0 -38.5 1.5 -53.5 4.5s-24.5 6.16699 -28.5 9.5zM176 609
c-8.66699 -6.66699 -20.333 -10 -35 -10c-16 0 -28 3.66699 -36 11c-9.33301 7.33301 -14 18.666 -14 33.999c0 14.667 4.66699 26.334 14 35.001c9.33301 7.33301 21 11 35 11c13.333 0 25.333 -3.66699 36 -11c9.33301 -9.33301 14 -21 14 -35s-4.66699 -25.667 -14 -35z
" />
    <glyph glyph-name="k" unicode="k" horiz-adv-x="545" 
d="M222 0h-185l-4 60l60 3v624l-59 3l3 60h136v-473l67 33l114 134l-34 2l4 54h192v-60l-92 -9l-131 -148l164 -218l92 -1l-4 -64h-123l-40 42l-156 202l-53 -26v-163l52 -3z" />
    <glyph glyph-name="l" unicode="l" horiz-adv-x="266" 
d="M229 0h-192l-4 60l60 3v624l-59 3l3 60h136v-691l60 -3z" />
    <glyph glyph-name="m" unicode="m" horiz-adv-x="852" 
d="M825 0l-136.998 0.000976562v359c0 34 -7 57.167 -21 69.5s-36.667 18.5 -68 18.5c-50.667 0 -93 -17 -127 -51c0 -2 0.166992 -5.83301 0.5 -11.5s0.5 -9.83398 0.5 -12.501v-313l60 -3l-4 -56h-137v359c0 34 -6.83301 57.167 -20.5 69.5s-35.834 18.5 -66.501 18.5
c-51.333 0 -94 -17 -128 -51v-337l60 -3l-4 -56h-192l-4 60l60 3v374l-59 3l3 60h127l6 -49c38 42 90.333 63 157 63c65.333 0 107.666 -20.667 126.999 -62c41.333 41.333 97.333 62 168 62c48.667 0 84.667 -11 108 -33s35 -58.667 35 -110v-312l60 -3z" />
    <glyph glyph-name="n" unicode="n" horiz-adv-x="607" 
d="M233 0l-191.999 -0.000976562l-4 60l60 3v374l-59 3l3 60h127l7 -44c4.66699 6 11.5 12.333 20.5 19s27.667 14.834 56 24.501s59.833 14.5 94.5 14.5c119.333 0 179 -51.667 179 -155v-300l59 -3l-3 -56h-137v344c0 68 -41.667 102 -125 102
c-28.667 0 -54.834 -4.33301 -78.501 -13s-40.167 -17 -49.5 -25l-14 -13v-336l60 -3z" />
    <glyph glyph-name="o" unicode="o" horiz-adv-x="573" 
d="M286 -14c-80 0 -141.333 23.833 -184 71.5s-64 113.167 -64 196.5c0 82.667 21.167 146.667 63.5 192s103.833 68 184.5 68s142.167 -22.667 184.5 -68s63.5 -109.333 63.5 -192s-21.667 -148 -65 -196s-104.333 -72 -183 -72zM286 45c56 0 97.501 18.167 124.501 54.5
s40.5 87.5 40.5 153.5c0 134.667 -55 202 -165 202s-165 -67.333 -165 -202c0 -65.333 13.667 -116.333 41 -153s68.666 -55 123.999 -55z" />
    <glyph glyph-name="p" unicode="p" horiz-adv-x="600" 
d="M229 -250l-192 -0.00195312l-4 60l60 3v624l-59 3l3 60h126l7 -56c36 46.667 91.667 70 167 70c69.333 0 124.166 -20.667 164.499 -62s60.5 -100.666 60.5 -177.999c0 -85.333 -20.5 -154.666 -61.5 -207.999s-99.167 -80 -174.5 -80c-32 0 -60.667 4 -86 12
s-42.666 16 -51.999 24l-15 12v-225l60 -3zM309 451.998c-20.667 0 -39.665 -3.00098 -56.998 -9.00098s-31.5 -13.5 -42.5 -22.5s-19 -16.333 -24 -22s-9.16699 -11.167 -12.5 -16.5v-290c4 -4.66699 10 -9.83398 18 -15.501s22.167 -12 42.5 -19
s42.166 -10.5 65.499 -10.5c61.333 0 106.666 19.833 135.999 59.5s44 94.834 44 165.501c0 64.667 -14.167 110.834 -42.5 138.501s-70.833 41.5 -127.5 41.5z" />
    <glyph glyph-name="q" unicode="q" horiz-adv-x="593" 
d="M563 -250l-191.998 -0.00390625l-4 60l60 3v246h-1c-1.33301 -2 -3 -4.66699 -5 -8s-7.5 -9.16602 -16.5 -17.499s-19 -15.666 -30 -21.999s-26 -12.166 -45 -17.499s-39.5 -8 -61.5 -8c-68.667 0 -124 23.833 -166 71.5s-63 110.834 -63 189.501
c0 83.333 20.833 148.666 62.5 195.999s100.834 71 177.501 71c27.333 0 53.166 -3.83301 77.499 -11.5s41.166 -14.667 50.499 -21s16.666 -12.166 21.999 -17.499l15 36h64v-691l59 -3zM292.002 47.9961c62 0 106.999 23.334 134.999 70.001v288
c-31.333 31.333 -73 47 -125 47c-62.667 0 -108.5 -16.833 -137.5 -50.5s-43.5 -84.834 -43.5 -153.501c0 -66 14.833 -116 44.5 -150s71.834 -51 126.501 -51z" />
    <glyph glyph-name="r" unicode="r" horiz-adv-x="424" 
d="M241 0h-199.999l-4 60l60 3v374l-64 3l4 60h123l7 -77h1c1.33301 2.66699 3.16602 6 5.49902 10s7.83301 11.167 16.5 21.5s18.167 19.5 28.5 27.5s23.666 15.333 39.999 22s33.5 10 51.5 10c14.667 0 29.334 -1.16699 44.001 -3.5s25.667 -4.5 33 -6.5l11 -4v-148h-58
l-5 95c-16 1.33301 -29.667 2 -41 2c-24 0 -45.667 -6.5 -65 -19.5s-33 -25.833 -41 -38.5l-11 -19v-313l68 -3z" />
    <glyph glyph-name="s" unicode="s" horiz-adv-x="469" 
d="M409 367h-54.002l-6 49c-31.333 27.333 -66.333 41 -105 41c-31.333 0 -56.666 -6.33301 -75.999 -19s-29 -30 -29 -52c0 -22.667 10.167 -41.167 30.5 -55.5s45.166 -25.833 74.499 -34.5s58.5 -18 87.5 -28s53.667 -25.333 74 -46s30.5 -46.667 30.5 -78
c0 -46 -17.5 -83.833 -52.5 -113.5s-89.167 -44.5 -162.5 -44.5c-31.333 0 -60.666 2.16699 -87.999 6.5s-47 8.83301 -59 13.5l-18 6l-7 127l50 4l6 -83c38 -11.333 76 -17 114 -17c44.667 0 78.334 8.83301 101.001 26.5s34 39.5 34 65.5c0 22.667 -10.167 41 -30.5 55
s-44.833 25 -73.5 33s-57.5 16.833 -86.5 26.5s-53.667 25 -74 46s-30.5 48.167 -30.5 81.5c0 41.333 16.333 74.5 49 99.5s74 37.5 124 37.5c44 0 85.667 -14.333 125 -43l11 34h41v-138z" />
    <glyph glyph-name="t" unicode="t" horiz-adv-x="366" 
d="M333 437l-152 0.000976562v-285c0 -34.667 5.16699 -59.834 15.5 -75.501s27.5 -23.5 51.5 -23.5l77 8v-54c-29.333 -10 -63.333 -15 -102 -15c-42 0 -72.833 11 -92.5 33s-29.5 58.333 -29.5 109v303h-61v60l61 2l9 151h71v-150h152v-63z" />
    <glyph glyph-name="u" unicode="u" horiz-adv-x="603" 
d="M430 105l0.000976562 332l-59 3l4 60h136v-441l59 -3l-3 -56h-127l-7 45c-39.333 -39.333 -96.666 -59 -171.999 -59c-55.333 0 -98.833 15.5 -130.5 46.5s-47.5 73.833 -47.5 128.5v276l-59 3l4 60h135v-324c0 -36.667 11.167 -66 33.5 -88s53.166 -33 92.499 -33
c28.667 0 54.667 4.16699 78 12.5s39.666 16.5 48.999 24.5z" />
    <glyph glyph-name="v" unicode="v" horiz-adv-x="515" 
d="M301 0h-87l-170 437l-70 3l4 60h131l150 -417h1l131 357l-47 2v58h194v-60l-68 -3z" />
    <glyph glyph-name="w" unicode="w" horiz-adv-x="784" 
d="M610 0h-85l-132 399l-136 -399h-85l-128 437l-66 3l4 60h130l104 -402h1l134 402h79l138 -402h1l93 346l-53 2v54h194v-60l-62 -3z" />
    <glyph glyph-name="x" unicode="x" horiz-adv-x="573" 
d="M186 0h-184v60l86 2l145 193l-137 182l-88 3l4 60h129l146 -204h1l105 146l-30 1l4 57h187v-60l-79 -3l-136 -182l149 -197l86 -2l-3 -56h-122l-40 44l-124 168l-114 -154h19z" />
    <glyph glyph-name="y" unicode="y" horiz-adv-x="527" 
d="M10 -243l8 55c23.333 -8 46.333 -12 69 -12c46.667 0 95 66.667 145 200l-187 437l-71 3l4 60h130l166 -412h1l133 352l-53 2v58h193v-60l-66 -3l-175 -448c-66 -168.667 -136 -253 -210 -253c-21.333 0 -39.333 1.66699 -54 5s-23.667 7 -27 11z" />
    <glyph glyph-name="z" unicode="z" horiz-adv-x="482" 
d="M436 446l-297 -385h235l7 90l58 -4l-4 -147h-395v54l296 385h-213l-6 -80h-57l3 141v4l65 -4h308v-54z" />
    <glyph glyph-name="braceleft" unicode="{" horiz-adv-x="433" 
d="M394 -107v-57c-75.333 0 -128 11.833 -158 35.5s-45 58.834 -45 105.501c0 24 5 57.333 15 100s15 73.667 15 93c0 25.333 -12 46.666 -36 63.999s-48 26 -72 26v64c24 0 48 8.66699 72 26s36 38.666 36 63.999c0 19.333 -5 50.333 -15 93s-15 76 -15 100
c0 46.667 15 81.834 45 105.501s82.667 35.5 158 35.5v-57c-48.667 0 -83 -8.66699 -103 -26s-30 -43 -30 -77c0 -21.333 5 -53 15 -95s15 -74 15 -96c0 -43.333 -23 -78.333 -69 -105c46 -28 69 -63 69 -105c0 -22 -5 -54 -15 -96s-15 -73.667 -15 -95
c0 -34 10 -59.667 30 -77s54.333 -26 103 -26z" />
    <glyph glyph-name="bar" unicode="|" horiz-adv-x="336" 
d="M205 -250h-74v1000h74v-1000z" />
    <glyph glyph-name="braceright" unicode="}" horiz-adv-x="433" 
d="M39 -164v57c48.667 0 83 8.66699 103 26s30 43 30 77c0 21.333 -5 53 -15 95s-15 74 -15 96c0 42.667 23 77.667 69 105c-46 26 -69 61 -69 105c0 22 5 54 15 96s15 73.667 15 95c0 34 -10 59.667 -30 77s-54.333 26 -103 26v57c75.333 0 128 -11.833 158 -35.5
s45 -58.834 45 -105.501c0 -24 -5 -57.333 -15 -100s-15 -73.667 -15 -93c0 -25.333 12 -46.666 36 -63.999s48 -26 72 -26v-64c-24 0 -48 -8.66699 -72 -26s-36 -38.666 -36 -63.999c0 -19.333 5 -50.333 15 -93s15 -76 15 -100c0 -46.667 -15 -81.834 -45 -105.501
s-82.667 -35.5 -158 -35.5z" />
    <glyph glyph-name="asciitilde" unicode="~" horiz-adv-x="665" 
d="M600 380l33 -34.999c-1.33301 -2.66699 -3.16602 -5.83398 -5.49902 -9.50098s-8 -10.5 -17 -20.5s-19 -18.833 -30 -26.5s-26 -14.667 -45 -21s-39.167 -9.5 -60.5 -9.5c-30 0 -57.5 4.5 -82.5 13.5s-45.167 18.833 -60.5 29.5s-35.666 20.5 -60.999 29.5
s-52.666 13.5 -81.999 13.5c-25.333 0 -47.833 -4.33301 -67.5 -13s-33.167 -17 -40.5 -25l-11 -13l-39 38c1.33301 2.66699 3.33301 6.16699 6 10.5s9.16699 11.833 19.5 22.5s21.666 20.167 33.999 28.5s29.166 16 50.499 23s44 10.5 68 10.5
c32.667 0 62.167 -4.66699 88.5 -14s47.166 -19.5 62.499 -30.5s35 -21.167 59 -30.5s49.667 -14 77 -14c22 0 41.667 3.5 59 10.5s29 14.167 35 21.5z" />
    <glyph glyph-name="nbspace" unicode="&#xa0;" horiz-adv-x="343" 
 />
    <glyph glyph-name="exclamdown" unicode="&#xa1;" horiz-adv-x="316" 
d="M199 -250h-85v91l10 447h65l10 -447v-91zM190 428c-10 -8 -21.668 -12.002 -35.001 -12.002c-14 0 -25.667 4 -35 12c-10.667 8.66699 -16 20 -16 34s5.33301 25.333 16 34c8.66699 8 20.334 12 35.001 12c13.333 0 25 -4 35 -12c10.667 -9.33301 16 -20.666 16 -33.999
s-5.33301 -24.666 -16 -33.999z" />
    <glyph glyph-name="cent" unicode="&#xa2;" horiz-adv-x="487" 
d="M304 -50l-60.9961 -0.00195312l-4 106c-64.667 8.66699 -114.334 35.834 -149.001 81.501s-52 107.167 -52 184.5c0 78 17.167 138.833 51.5 182.5s84.166 68.5 149.499 74.5l1 121h60l4 -123c29.333 -6 59.666 -21 90.999 -45l11 40h52v-170h-62l-5 71
c-30 32.667 -66 49 -108 49c-56 0 -97 -15.5 -123 -46.5s-39 -81.833 -39 -152.5c0 -70 15.167 -122.667 45.5 -158s72.833 -53 127.5 -53c27.333 0 53.166 5 77.499 15s41.833 20 52.5 30l15 15l36 -40c-1.33301 -2 -3.33301 -4.66699 -6 -8s-9 -9.16602 -19 -17.499
s-20.833 -16 -32.5 -23s-27.667 -13.5 -48 -19.5s-41.833 -9.66699 -64.5 -11z" />
    <glyph glyph-name="sterling" unicode="&#xa3;" horiz-adv-x="590" 
d="M565 0l-511.999 0.00195312v67h44c43.333 28 65 80.667 65 158c0 9.33301 -0.666992 25.333 -2 48l-107 2v61h102c-6.66699 62.667 -10 111.667 -10 147c0 55.333 16.833 99.166 50.5 131.499s79.5 48.5 137.5 48.5c39.333 0 77.666 -14 114.999 -42l10 33h47v-145h-58
l-5 55c-25.333 22 -55.333 33 -90 33c-38 0 -67.333 -10 -88 -30s-31 -49.333 -31 -88c0 -32.667 2 -80.334 6 -143.001h259v-63h-256c2.66699 -96 -10 -164.667 -38 -206h301l8 78l56 -4z" />
    <glyph glyph-name="currency" unicode="&#xa4;" horiz-adv-x="629" 
d="M89 53l-30 37.002l115 109c-24 31.333 -36 69.666 -36 114.999c0 44.667 12 82.667 36 114l-116 111l31 37l113 -119c32 25.333 69.667 38 113 38c42 0 78.667 -12 110 -36l114 116l31 -37l-116 -108c25.333 -32.667 38 -71.334 38 -116.001s-12.333 -83 -37 -115
l116 -110l-31 -37l-113 119c-30.667 -25.333 -68 -38 -112 -38s-81.333 12.333 -112 37zM315 183.002c37.333 0 67.5 11.668 90.5 35.001s34.5 55.333 34.5 96s-11.5 72.667 -34.5 96s-53.167 35 -90.5 35s-67.5 -11.667 -90.5 -35s-34.5 -55 -34.5 -95
c0 -40.667 11.5 -72.834 34.5 -96.501s53.167 -35.5 90.5 -35.5z" />
    <glyph glyph-name="yen" unicode="&#xa5;" horiz-adv-x="637" 
d="M441 0h-236l-4 60l79 3v95h-166v47h166v64l-16 23h-150v47h118l-172 252l-93 3l3 56h237v-56l-52 -2l170 -253l168 252l-51 1v58h228v-60l-92 -2l-167 -249h121v-47h-153l-14 -22v-65h167v-47h-167v-96l80 -2z" />
    <glyph glyph-name="brokenbar" unicode="&#xa6;" horiz-adv-x="336" 
d="M205 -250h-74v400h74v-400zM205 350h-74v400h74v-400z" />
    <glyph glyph-name="section" unicode="&#xa7;" horiz-adv-x="564" 
d="M477 513l-60.999 -0.000976562l-5 53c-32 25.333 -66.667 38 -104 38c-41.333 0 -70.666 -9.33301 -87.999 -28s-26 -41 -26 -67c0 -24 11.167 -43.667 33.5 -59s49.5 -27.666 81.5 -36.999l96.5 -29c32.333 -10 59.666 -25.333 81.999 -46s33.5 -46.667 33.5 -78
c0 -52.667 -24.667 -94.334 -74 -125.001c20 -21.333 30 -46.333 30 -75c0 -47.333 -15.5 -84.666 -46.5 -111.999s-84.833 -41 -161.5 -41c-38 0 -71.5 2 -100.5 6s-48.5 8 -58.5 12l-15 6l-4 149l57 4l13 -110c33.333 -5.33301 67.666 -8 102.999 -8
c88 0 132 30.333 132 91c0 20 -7.83301 36.833 -23.5 50.5s-35.167 24 -58.5 31s-48.833 15.167 -76.5 24.5s-53.167 18.833 -76.5 28.5s-42.833 24.5 -58.5 44.5s-23.5 44 -23.5 72c0 50 22.333 90 67 120c-22.667 21.333 -34 48 -34 80c0 44 16 80.833 48 110.5
s76 44.5 132 44.5c43.333 0 85.333 -14.667 126 -44l13 35h47v-141zM146.001 315.999c0 -29.333 12.833 -52.168 38.5 -68.501s63.167 -31.5 112.5 -45.5s84 -26 104 -36c34 19.333 51 48 51 86c0 26.667 -13 47.834 -39 63.501s-64 30.667 -114 45s-85.667 26.5 -107 36.5
c-30.667 -16 -46 -43 -46 -81z" />
    <glyph glyph-name="dieresis" unicode="&#xa8;" horiz-adv-x="431" 
d="M295 614c-8.66699 -6.66699 -18.667 -10 -30 -10c-12.667 0 -22.667 3.33301 -30 10c-8.66699 8 -13 18 -13 30c0 12.667 4.33301 23 13 31c8.66699 6.66699 18.667 10 30 10c10 0 20 -3.33301 30 -10c8.66699 -8.66699 13 -19 13 -31
c0 -11.333 -4.33301 -21.333 -13 -30zM117 614c-7.33301 -6.66699 -17.334 -10 -30.001 -10c-12 0 -21.667 3.33301 -29 10c-8.66699 8 -13 18 -13 30c0 12.667 4.33301 23 13 31c8.66699 6.66699 18.334 10 29.001 10c11.333 0 21.333 -3.33301 30 -10
c8.66699 -8.66699 13 -19 13 -31c0 -11.333 -4.33301 -21.333 -13 -30z" />
    <glyph glyph-name="copyright" unicode="&#xa9;" horiz-adv-x="850" 
d="M764 323c0 -104.667 -30 -187 -90 -247s-143.667 -90 -251 -90c-106.667 0 -189.667 30 -249 90s-89 142.333 -89 247s30 187.5 90 248.5s142.667 91.5 248 91.5c106.667 0 190.167 -30.5 250.5 -91.5s90.5 -143.833 90.5 -248.5zM709 323
c0 92 -25.5 164.167 -76.5 216.5s-120.833 78.5 -209.5 78.5c-88 0 -157.167 -26.167 -207.5 -78.5s-75.5 -124.5 -75.5 -216.5s25 -163.667 75 -215s119.333 -77 208 -77c89.333 0 159.333 25.667 210 77s76 123 76 215zM548 367l-46.002 -0.000976562l-4 57
c-19.333 19.333 -42.666 29 -69.999 29c-36 0 -64.333 -10.667 -85 -32s-31 -53 -31 -95c0 -40.667 12.333 -74.167 37 -100.5s54 -39.5 88 -39.5c24 0 45.5 4 64.5 12s31.833 16 38.5 24l11 11l18 -34c-1.33301 -2 -3 -4.33301 -5 -7s-7 -7.5 -15 -14.5
s-16.667 -13.333 -26 -19s-22.166 -10.667 -38.499 -15s-33.833 -6.5 -52.5 -6.5c-50 0 -91.833 17.5 -125.5 52.5s-50.5 80.5 -50.5 136.5c0 54.667 15.667 97.334 47 128.001s70.333 46 117 46c31.333 0 60 -10 86 -30l8 22h34v-125z" />
    <glyph glyph-name="ordfeminine" unicode="&#xaa;" horiz-adv-x="450" 
d="M373 320l-57.999 -0.00292969l-12 53c-2.66699 -4.66699 -6.16699 -9.66699 -10.5 -15s-11.333 -12.166 -21 -20.499s-22.834 -15 -39.501 -20s-35.667 -7.5 -57 -7.5c-44.667 0 -78.667 8.66699 -102 26s-35 42.333 -35 75c0 72.667 87.667 114.334 263 125.001v19
c0 26.667 -7.33301 46.334 -22 59.001s-38.667 19 -72 19c-22 0 -42.333 -3.16699 -61 -9.5s-32 -12.833 -40 -19.5l-12 -9l-20 34l5.5 5.5c2.33301 2.33301 8 6.5 17 12.5s18.667 11.167 29 15.5s24.333 8.33301 42 12s36.5 5.5 56.5 5.5c50 0 87.333 -10.333 112 -31
s37 -53 37 -97v-232zM301.001 417.997v81.002c-28 -2 -51.5 -4.33301 -70.5 -7s-38.667 -7 -59 -13s-35.833 -14.167 -46.5 -24.5s-16 -22.833 -16 -37.5c0 -42 30.333 -63 91 -63c14.667 0 28.167 2.16699 40.5 6.5s22 9.66602 29 15.999s13 12.666 18 18.999
s8.5 11.833 10.5 16.5z" />
    <glyph glyph-name="guillemotleft" unicode="&#xab;" horiz-adv-x="560" 
d="M302 384l-133 -135l133 -137l-34 -38l-172 176l172 171zM490 384l-133 -135l133 -137l-34 -38l-172 176l172 171z" />
    <glyph glyph-name="logicalnot" unicode="&#xac;" horiz-adv-x="516" 
d="M454 121h-64v166h-330v61h394v-227z" />
    <glyph glyph-name="uni00AD" unicode="&#xad;" horiz-adv-x="356" 
d="M310 247h-264v61h264v-61z" />
    <glyph glyph-name="registered" unicode="&#xae;" horiz-adv-x="715" 
d="M656 453c0 -92.667 -26.499 -166.334 -79.499 -221.001s-126.167 -82 -219.5 -82c-94 0 -167 27.333 -219 82s-78 128.334 -78 221.001s26.667 166.5 80 221.5s125.666 82.5 216.999 82.5s164 -27.5 218 -82.5s81 -128.833 81 -221.5zM601.001 453
c0 82 -21.333 146.167 -64 192.5s-102.667 69.5 -180 69.5s-137 -23.333 -179 -70s-63 -110.667 -63 -192c0 -82 20.833 -145.5 62.5 -190.5s101.5 -67.5 179.5 -67.5c77.333 0 137.333 22.5 180 67.5s64 108.5 64 190.5zM306.001 294h-44v317h96c88 0 132 -30.333 132 -91
c0 -51.333 -26.333 -83 -79 -95l75 -131h-49l-72 125h-59v-125zM359.001 577h-53v-127h52c56.667 0 85 23.333 85 70c0 38 -28 57 -84 57z" />
    <glyph glyph-name="macron" unicode="&#xaf;" horiz-adv-x="458" 
d="M334 633h-214v42h214v-42z" />
    <glyph glyph-name="degree" unicode="&#xb0;" horiz-adv-x="475" 
d="M237 385c-58 0 -102.834 17.002 -134.501 51.002s-47.5 79.667 -47.5 137s16.167 103.166 48.5 137.499s76.833 51.5 133.5 51.5c56 0 100.5 -17.333 133.5 -52s49.5 -80.334 49.5 -137.001c0 -57.333 -16.167 -103 -48.5 -137s-77.166 -51 -134.499 -51z
M236.999 442.002c36.667 0 65.334 12.001 86.001 36.001s31 56 31 96s-10.333 71.833 -31 95.5s-49.334 35.5 -86.001 35.5s-65.167 -11.833 -85.5 -35.5s-30.5 -55.5 -30.5 -95.5c0 -40.667 10 -72.834 30 -96.501s48.667 -35.5 86 -35.5z" />
    <glyph glyph-name="plusminus" unicode="&#xb1;" horiz-adv-x="543" 
d="M306 328h-65v167h-165v61h165v167h65v-167h163v-61h-163v-167zM504 144h-465v61h465v-61z" />
    <glyph glyph-name="twosuperior" unicode="&#xb2;" 
d="M115 624h-53.002l4 129h43l8 -35c36 28.667 74.333 43 115 43c54.667 0 95.834 -14 123.501 -42s41.5 -64.667 41.5 -110c0 -28 -8.33301 -57.833 -25 -89.5s-39 -61.667 -67 -90s-54.667 -53.333 -80 -75s-52 -42.167 -80 -61.5h212l7 60l52 -4l-4 -119h-361v61
c2 1.33301 11.667 8.33301 29 21s39.333 30.667 66 54s52.667 48 78 74s47 53.833 65 83.5s27 56.167 27 79.5c0 32.667 -8 57.167 -24 73.5s-42.667 24.5 -80 24.5s-68.666 -13.667 -93.999 -41z" />
    <glyph glyph-name="threesuperior" unicode="&#xb3;" 
d="M389 707l-153.999 -176c2.66699 0.666992 6.66699 1 12 1c48 0 87.167 -13.833 117.5 -41.5s45.5 -63.834 45.5 -108.501c0 -51.333 -20.333 -91.5 -61 -120.5s-93.334 -43.5 -158.001 -43.5c-27.333 0 -51.666 2 -72.999 6s-36 8 -44 12l-11 7l-3 104l50 3l7 -64
c20 -6.66699 46 -10 78 -10c45.333 0 80.5 9.83301 105.5 29.5s37.5 45.5 37.5 77.5c0 28.667 -9.5 51.834 -28.5 69.501s-45.5 26.5 -79.5 26.5c-10.667 0 -20.834 -1.5 -30.501 -4.5s-16.5 -5.83301 -20.5 -8.5l-6 -5l-33 36l164 192h-180l-6 -64h-51l3 128l60 -3h259v-43
z" />
    <glyph glyph-name="acute" unicode="&#xb4;" horiz-adv-x="237" 
d="M116 572l-57 4l95 143l77 -8z" />
    <glyph glyph-name="uni00B5" unicode="&#xb5;" horiz-adv-x="613" 
d="M440 105l0.000976562 332.002l-59 3l4 60h136v-441l59 -3l-3 -56h-127l-7 45c-39.333 -39.333 -96.666 -59 -171.999 -59c-38.667 0 -71.667 7.66699 -99 23c0 -28.667 0.166992 -71.834 0.5 -129.501s0.5 -100.834 0.5 -129.501h-81l1 533v154l-59 3l4 60h135v-324
c0 -36.667 11.167 -66 33.5 -88s53.166 -33 92.499 -33c28.667 0 54.667 4.16699 78 12.5s39.666 16.5 48.999 24.5z" />
    <glyph glyph-name="paragraph" unicode="&#xb6;" horiz-adv-x="719" 
d="M597 0l-82 0.000976562v581h-112v-581h-80v244c-178.667 0 -268 72.333 -268 217c0 65.333 22.5 113.166 67.5 143.499s116.833 45.5 215.5 45.5h326v-69h-67v-581z" />
    <glyph glyph-name="periodcentered" unicode="&#xb7;" horiz-adv-x="277" 
d="M172 303c-10 -8 -21.668 -12.002 -35.001 -12.002c-14 0 -25.667 4 -35 12c-10.667 8.66699 -16 20 -16 34s5.33301 25.333 16 34c8.66699 8 20.334 12 35.001 12c13.333 0 25 -4 35 -12c10.667 -9.33301 16 -20.666 16 -33.999s-5.33301 -24.666 -16 -33.999z" />
    <glyph glyph-name="cedilla" unicode="&#xb8;" horiz-adv-x="269" 
d="M43 -215l11.999 31.001c20.667 -19.333 47 -29 79 -29c48 0 72 20.333 72 61c0 16 -8.16699 28.667 -24.5 38s-32.666 15.5 -48.999 18.5s-24.5 4.83301 -24.5 5.5l13 87h41l-9 -65c0 -0.666992 9 -2.83398 27 -6.50098s36 -12 54 -25s27 -30.833 27 -53.5
c0 -30.667 -9.33301 -54.667 -28 -72s-46 -26 -82 -26c-22.667 0 -43 3 -61 9s-30.333 12 -37 18z" />
    <glyph glyph-name="onesuperior" unicode="&#xb9;" 
d="M236 750h62v-463l95 -2l-3 -55h-270l-4 55l109 5v389l-114 -55l-22 53z" />
    <glyph glyph-name="ordmasculine" unicode="&#xba;" horiz-adv-x="485" 
d="M242 310c-66 0 -115.834 16.333 -149.501 49s-50.5 78 -50.5 136s16.833 103.333 50.5 136s83.5 49 149.5 49s116 -16.333 150 -49s51 -78 51 -136s-17.167 -103.333 -51.5 -136s-84.166 -49 -149.499 -49zM241.999 355c84 0 126 46.667 126 140c0 92 -42 138 -126 138
s-126 -46 -126 -138c0 -93.333 42 -140 126 -140z" />
    <glyph glyph-name="guillemotright" unicode="&#xbb;" horiz-adv-x="560" 
d="M275 244l-172 -170l-34 37l133 133l-132 138l33 39zM463 244l-172 -170l-34 37l133 133l-132 138l33 39z" />
    <glyph glyph-name="onequarter" unicode="&#xbc;" horiz-adv-x="909" 
d="M236 750h62v-463l95 -2l-3 -55h-270l-4 55l109 5v389l-114 -55l-22 53zM362 -4l-50 28l352 561l50 -27zM848 -265h-165.001l-3 51l52 2v90h-250l-5 45c58.667 106 104.334 219.333 137.001 340l70 -8c-30.667 -106 -73.667 -213 -129 -321h177v161l11 84h63v-245h63v-52
l-63 -4v-89l45 -3z" />
    <glyph glyph-name="onehalf" unicode="&#xbd;" horiz-adv-x="968" 
d="M236 750h62v-463l95 -2l-3 -55h-270l-4 55l109 5v389l-114 -55l-22 53zM358 -4l-50 28l352 561l50 -27zM616 129h-53.002l4 129h43l8 -35c36 28.667 74.333 43 115 43c54.667 0 95.834 -14 123.501 -42s41.5 -64.667 41.5 -110c0 -90.667 -84 -196 -252 -316h212l7 60
l52 -4l-4 -119h-361v61c2 1.33301 11.667 8.33301 29 21s39.333 30.667 66 54s52.667 48 78 74s47 53.833 65 83.5s27 56.167 27 79.5c0 32.667 -8 57.167 -24 73.5s-42.667 24.5 -80 24.5s-68.666 -13.667 -93.999 -41z" />
    <glyph glyph-name="threequarters" unicode="&#xbe;" horiz-adv-x="903" 
d="M389 707l-153.999 -176c2.66699 0.666992 6.66699 1 12 1c48 0 87.167 -13.833 117.5 -41.5s45.5 -63.834 45.5 -108.501c0 -51.333 -20.333 -91.5 -61 -120.5s-93.334 -43.5 -158.001 -43.5c-27.333 0 -51.666 2 -72.999 6s-36 8 -44 12l-11 7l-3 104l50 3l7 -64
c20 -6.66699 46 -10 78 -10c45.333 0 80.5 9.83301 105.5 29.5s37.5 45.5 37.5 77.5c0 28.667 -9.5 51.834 -28.5 69.501s-45.5 26.5 -79.5 26.5c-10.667 0 -20.834 -1.5 -30.501 -4.5s-16.5 -5.83301 -20.5 -8.5l-6 -5l-33 36l164 192h-180l-6 -64h-51l3 128l60 -3h259v-43
zM356.001 -4l-50 28l352 561l50 -27zM842.001 -265h-165.001l-3 51l52 2v90h-250l-5 45c58.667 106 104.334 219.333 137.001 340l70 -8c-30.667 -106 -73.667 -213 -129 -321h177v161l11 84h63v-245h63v-52l-63 -4v-89l45 -3z" />
    <glyph glyph-name="questiondown" unicode="&#xbf;" horiz-adv-x="476" 
d="M414 -245c-32 -12.667 -79.9971 -19.0039 -143.997 -19.0039c-80 0 -137.833 16.333 -173.5 49s-53.5 72 -53.5 118c0 28 4.83301 52.833 14.5 74.5s22.167 39.334 37.5 53.001s32.166 26.5 50.499 38.5l54 36.5c17.667 12.333 33.667 25.833 48 40.5
s25.166 33.834 32.499 57.501s9.66602 50.834 6.99902 81.501l46 4c6 -26 9 -48.667 9 -68c0 -27.333 -5.16699 -51.666 -15.5 -72.999s-23.333 -38.333 -39 -51s-32.667 -25.667 -51 -39l-51 -36.5c-15.667 -11 -28.667 -26 -39 -45s-15.5 -40.167 -15.5 -63.5
c0 -32.667 11.167 -59.667 33.5 -81s59.833 -32 112.5 -32c30 0 55.333 3 76 9l7 102l58 -4zM343.003 427.996c-10 -8 -21.667 -12.002 -35 -12.002c-14.667 0 -26.334 4 -35.001 12c-10.667 8.66699 -16 20 -16 34s5.33301 25.333 16 34c8.66699 8 20.334 12 35.001 12
c13.333 0 25 -4 35 -12c10.667 -9.33301 16 -20.666 16 -33.999s-5.33301 -24.666 -16 -33.999z" />
    <glyph glyph-name="Agrave" unicode="&#xc0;" horiz-adv-x="700" 
d="M209 0h-217l-4 60l79 3l228 587h111l228 -591l79 -3l-4 -56h-225v48l66 2l-59 150h-290l-59 -148l71 -2zM346 583l-124 -328h247zM389 712l-57 -5l-116 139l77 9z" />
    <glyph glyph-name="Aacute" unicode="&#xc1;" horiz-adv-x="700" 
d="M209 0h-217l-4 60l79 3l228 587h111l228 -591l79 -3l-4 -56h-225v48l66 2l-59 150h-290l-59 -148l71 -2zM346 583l-124 -328h247zM365 707l-57 4l95 143l77 -8z" />
    <glyph glyph-name="Acircumflex" unicode="&#xc2;" horiz-adv-x="700" 
d="M209 0h-217l-4 60l79 3l228 587h111l228 -591l79 -3l-4 -56h-225v48l66 2l-59 150h-290l-59 -148l71 -2zM346 583l-124 -328h247zM480 729l-130 95l-129 -95l-27 48l134 101h45l133 -101z" />
    <glyph glyph-name="Atilde" unicode="&#xc3;" horiz-adv-x="700" 
d="M209 0h-217l-4 60l79 3l228 587h111l228 -591l79 -3l-4 -56h-225v48l66 2l-59 150h-290l-59 -148l71 -2zM346 583l-124 -328h247zM520 807l10 -42c-1.33301 -2.66699 -3.33301 -6.16699 -6 -10.5s-11 -10 -25 -17s-31 -10.5 -51 -10.5
c-23.333 0 -54.333 8.16699 -93 24.5s-68.334 24.5 -89.001 24.5c-14 0 -27.5 -2.66699 -40.5 -8s-22.5 -10.666 -28.5 -15.999l-9 -9l-10 47c1.33301 3.33301 4 7.66602 8 12.999s14 12.333 30 21s34.667 13 56 13c25.333 0 57.333 -8.5 96 -25.5
s67.334 -25.5 86.001 -25.5c13.333 0 25.5 1.66699 36.5 5s18.833 7 23.5 11z" />
    <glyph glyph-name="Adieresis" unicode="&#xc4;" horiz-adv-x="700" 
d="M209 0h-217l-4 60l79 3l228 587h111l228 -591l79 -3l-4 -56h-225v48l66 2l-59 150h-290l-59 -148l71 -2zM346 583l-124 -328h247zM468 749c-8.66699 -6.66699 -18.667 -10 -30 -10c-12.667 0 -22.667 3.33301 -30 10c-8.66699 8 -13 18 -13 30c0 12.667 4.33301 23 13 31
c8.66699 6.66699 18.667 10 30 10c10 0 20 -3.33301 30 -10c8.66699 -8.66699 13 -19 13 -31c0 -11.333 -4.33301 -21.333 -13 -30zM290 749c-7.33301 -6.66699 -17.334 -10 -30.001 -10c-12 0 -21.667 3.33301 -29 10c-8.66699 8 -13 18 -13 30c0 12.667 4.33301 23 13 31
c8.66699 6.66699 18.334 10 29.001 10c11.333 0 21.333 -3.33301 30 -10c8.66699 -8.66699 13 -19 13 -31c0 -11.333 -4.33301 -21.333 -13 -30z" />
    <glyph glyph-name="Aring" unicode="&#xc5;" horiz-adv-x="700" 
d="M209 0h-217l-4 60l79 3l228 587h111l228 -591l79 -3l-4 -56h-225v48l66 2l-59 150h-290l-59 -148l71 -2zM346 583l-124 -328h247zM351 722c-30.667 0 -55.332 9.5 -73.999 28.5s-28 43.833 -28 74.5c0 30 9.66699 54.833 29 74.5s43.666 29.5 72.999 29.5
c28.667 0 52.667 -9.83301 72 -29.5s29 -44.5 29 -74.5c0 -30.667 -9.5 -55.5 -28.5 -74.5s-43.167 -28.5 -72.5 -28.5zM351.002 758c18 0 32.999 6.16699 44.999 18.5s18 28.5 18 48.5s-6.16699 36.333 -18.5 49s-27.166 19 -44.499 19c-18 0 -33.167 -6.33301 -45.5 -19
s-18.5 -29 -18.5 -49s6.16699 -36.167 18.5 -48.5s27.5 -18.5 45.5 -18.5z" />
    <glyph glyph-name="AE" unicode="&#xc6;" horiz-adv-x="918" 
d="M855 505h-65l-4 80h-257v-226l296 1v-63h-296v-232h283l8 90l62 -4l-4 -151h-509l-4 45l80 2v153h-245l-98 -152l61 -2l-4 -46h-225l-4 60l96 2l346 528l-81 2l4 58h488l72 4v-149zM437 585l-203 -330h211v330h-8z" />
    <glyph glyph-name="Ccedilla" unicode="&#xc7;" horiz-adv-x="665" 
d="M267 -215l11.9951 30.999c20.667 -19.333 47 -29 79 -29c48 0 72 20.333 72 61c0 16 -8.16699 28.667 -24.5 38s-32.666 15.5 -48.999 18.5s-24.5 4.83301 -24.5 5.5l11 78c-92 8.66699 -163 43.5 -213 104.5s-75 140.167 -75 237.5
c0 101.333 30.167 182.166 90.5 242.499s137.166 90.5 230.499 90.5c53.333 0 104 -16.333 152 -49l14 40h51v-225h-66l-6 121c-39.333 30 -83.666 45 -132.999 45c-73.333 0 -132.833 -23.5 -178.5 -70.5s-68.5 -111.833 -68.5 -194.5c0 -84 22.833 -151 68.5 -201
s107.167 -75 184.5 -75c42 0 81.167 8.66699 117.5 26s62.5 34.666 78.5 51.999l23 25l32 -54c-2 -3.33301 -5.16699 -7.66602 -9.5 -12.999s-14.166 -14.666 -29.499 -27.999s-32.166 -25.166 -50.499 -35.499s-42.666 -19.666 -72.999 -27.999
s-62.166 -12.5 -95.499 -12.5h-3l-7 -54c0 -0.666992 9 -2.83398 27 -6.50098s36 -12 54 -25s27 -30.833 27 -53.5c0 -30.667 -9.33301 -54.667 -28 -72s-46 -26 -82 -26c-22.667 0 -43 3 -61 9s-30.333 12 -37 18z" />
    <glyph glyph-name="Egrave" unicode="&#xc8;" horiz-adv-x="601" 
d="M533 505h-66l-4 80h-257v-226l296 1v-63h-296v-232h284l8 90l62 -4l-4 -151h-510l-4 60l80 3v528l-81 3l4 56h416l72 4v-149zM365 712l-57 -5l-116 139l77 9z" />
    <glyph glyph-name="Eacute" unicode="&#xc9;" horiz-adv-x="601" 
d="M533 505h-66l-4 80h-257v-226l296 1v-63h-296v-232h284l8 90l62 -4l-4 -151h-510l-4 60l80 3v528l-81 3l4 56h416l72 4v-149zM341 707l-57 4l95 143l77 -8z" />
    <glyph glyph-name="Ecircumflex" unicode="&#xca;" horiz-adv-x="601" 
d="M533 505h-66l-4 80h-257v-226l296 1v-63h-296v-232h284l8 90l62 -4l-4 -151h-510l-4 60l80 3v528l-81 3l4 56h416l72 4v-149zM456 729l-130 95l-129 -95l-27 48l134 101h45l133 -101z" />
    <glyph glyph-name="Edieresis" unicode="&#xcb;" horiz-adv-x="601" 
d="M533 505h-66l-4 80h-257v-226l296 1v-63h-296v-232h284l8 90l62 -4l-4 -151h-510l-4 60l80 3v528l-81 3l4 56h416l72 4v-149zM444 749c-8.66699 -6.66699 -18.667 -10 -30 -10c-12.667 0 -22.667 3.33301 -30 10c-8.66699 8 -13 18 -13 30c0 12.667 4.33301 23 13 31
c8.66699 6.66699 18.667 10 30 10c10 0 20 -3.33301 30 -10c8.66699 -8.66699 13 -19 13 -31c0 -11.333 -4.33301 -21.333 -13 -30zM266 749c-7.33301 -6.66699 -17.334 -10 -30.001 -10c-12 0 -21.667 3.33301 -29 10c-8.66699 8 -13 18 -13 30c0 12.667 4.33301 23 13 31
c8.66699 6.66699 18.334 10 29.001 10c11.333 0 21.333 -3.33301 30 -10c8.66699 -8.66699 13 -19 13 -31c0 -11.333 -4.33301 -21.333 -13 -30z" />
    <glyph glyph-name="Igrave" unicode="&#xcc;" horiz-adv-x="329" 
d="M282 0h-236l-4 60l80 3v528l-81 3l4 56h239v-60l-78 -3v-528l80 -3zM202 712l-57 -5l-116 139l77 9z" />
    <glyph glyph-name="Iacute" unicode="&#xcd;" horiz-adv-x="329" 
d="M282 0h-236l-4 60l80 3v528l-81 3l4 56h239v-60l-78 -3v-528l80 -3zM178 707l-57 4l95 143l77 -8z" />
    <glyph glyph-name="Icircumflex" unicode="&#xce;" horiz-adv-x="329" 
d="M282 0h-236l-4 60l80 3v528l-81 3l4 56h239v-60l-78 -3v-528l80 -3zM293 729l-130 95l-129 -95l-27 48l134 101h45l133 -101z" />
    <glyph glyph-name="Idieresis" unicode="&#xcf;" horiz-adv-x="329" 
d="M282 0h-236l-4 60l80 3v528l-81 3l4 56h239v-60l-78 -3v-528l80 -3zM281 749c-8.66699 -6.66699 -18.667 -10 -30 -10c-12.667 0 -22.667 3.33301 -30 10c-8.66699 8 -13 18 -13 30c0 12.667 4.33301 23 13 31c8.66699 6.66699 18.667 10 30 10c10 0 20 -3.33301 30 -10
c8.66699 -8.66699 13 -19 13 -31c0 -11.333 -4.33301 -21.333 -13 -30zM103 749c-7.33301 -6.66699 -17.334 -10 -30.001 -10c-12 0 -21.667 3.33301 -29 10c-8.66699 8 -13 18 -13 30c0 12.667 4.33301 23 13 31c8.66699 6.66699 18.334 10 29.001 10
c11.333 0 21.333 -3.33301 30 -10c8.66699 -8.66699 13 -19 13 -31c0 -11.333 -4.33301 -21.333 -13 -30z" />
    <glyph glyph-name="Eth" unicode="&#xd0;" horiz-adv-x="750" 
d="M46 0l-4 59.999l80 3v233h-94v54h94v241l-81 3l4 56h309c109.333 0 193.5 -26.5 252.5 -79.5s88.5 -132.167 88.5 -237.5s-29.5 -187.166 -88.5 -245.499s-142.833 -87.5 -251.5 -87.5h-309zM354 581.999h-147.999v-232h212v-54h-212v-228h150
c81.333 0 143.666 22.833 186.999 68.5s65 111.167 65 196.5c0 166 -84.667 249 -254 249z" />
    <glyph glyph-name="Ntilde" unicode="&#xd1;" horiz-adv-x="788" 
d="M674 -6h-88l-389 537h-1l4 -31v-440l81 -2l-4 -58h-231l-4 60l80 3v528l-81 3l4 56h165l387 -544l-2 23v461l-81 2l3 58h234v-60l-77 -3v-593zM572 807l10 -42c-1.33301 -2.66699 -3.33301 -6.16699 -6 -10.5s-11 -10 -25 -17s-31 -10.5 -51 -10.5
c-23.333 0 -54.333 8.16699 -93 24.5s-68.334 24.5 -89.001 24.5c-14 0 -27.5 -2.66699 -40.5 -8s-22.5 -10.666 -28.5 -15.999l-9 -9l-10 47c1.33301 3.33301 4 7.66602 8 12.999s14 12.333 30 21s34.667 13 56 13c25.333 0 57.333 -8.5 96 -25.5
s67.334 -25.5 86.001 -25.5c13.333 0 25.5 1.66699 36.5 5s18.833 7 23.5 11z" />
    <glyph glyph-name="Ograve" unicode="&#xd2;" horiz-adv-x="761" 
d="M707 334c0 -104.667 -29.1689 -188.832 -87.502 -252.499s-138.166 -95.5 -239.499 -95.5s-180.833 31.667 -238.5 95s-86.5 147.666 -86.5 252.999c0 103.333 28.667 184 86 242s137 87 239 87c102.667 0 182.834 -29 240.501 -87s86.5 -138.667 86.5 -242z
M619.998 334.002c0 82.667 -21.1689 146.834 -63.502 192.501s-101.166 68.5 -176.499 68.5s-134 -22.833 -176 -68.5s-63 -109.834 -63 -192.501c0 -84.667 21.167 -152.5 63.5 -203.5s100.833 -76.5 175.5 -76.5s133.334 25.5 176.001 76.5s64 118.833 64 203.5z
M417.996 712.002l-57 -5l-116 139l77 9z" />
    <glyph glyph-name="Oacute" unicode="&#xd3;" horiz-adv-x="761" 
d="M707 334c0 -104.667 -29.1689 -188.832 -87.502 -252.499s-138.166 -95.5 -239.499 -95.5s-180.833 31.667 -238.5 95s-86.5 147.666 -86.5 252.999c0 103.333 28.667 184 86 242s137 87 239 87c102.667 0 182.834 -29 240.501 -87s86.5 -138.667 86.5 -242z
M619.998 334.002c0 82.667 -21.1689 146.834 -63.502 192.501s-101.166 68.5 -176.499 68.5s-134 -22.833 -176 -68.5s-63 -109.834 -63 -192.501c0 -84.667 21.167 -152.5 63.5 -203.5s100.833 -76.5 175.5 -76.5s133.334 25.5 176.001 76.5s64 118.833 64 203.5z
M393.996 707.002l-57 4l95 143l77 -8z" />
    <glyph glyph-name="Ocircumflex" unicode="&#xd4;" horiz-adv-x="761" 
d="M707 334c0 -104.667 -29.1689 -188.832 -87.502 -252.499s-138.166 -95.5 -239.499 -95.5s-180.833 31.667 -238.5 95s-86.5 147.666 -86.5 252.999c0 103.333 28.667 184 86 242s137 87 239 87c102.667 0 182.834 -29 240.501 -87s86.5 -138.667 86.5 -242z
M619.998 334.002c0 82.667 -21.1689 146.834 -63.502 192.501s-101.166 68.5 -176.499 68.5s-134 -22.833 -176 -68.5s-63 -109.834 -63 -192.501c0 -84.667 21.167 -152.5 63.5 -203.5s100.833 -76.5 175.5 -76.5s133.334 25.5 176.001 76.5s64 118.833 64 203.5z
M508.996 729.002l-130 95l-129 -95l-27 48l134 101h45l133 -101z" />
    <glyph glyph-name="Otilde" unicode="&#xd5;" horiz-adv-x="761" 
d="M707 334c0 -104.667 -29.1689 -188.832 -87.502 -252.499s-138.166 -95.5 -239.499 -95.5s-180.833 31.667 -238.5 95s-86.5 147.666 -86.5 252.999c0 103.333 28.667 184 86 242s137 87 239 87c102.667 0 182.834 -29 240.501 -87s86.5 -138.667 86.5 -242z
M619.998 334.002c0 82.667 -21.1689 146.834 -63.502 192.501s-101.166 68.5 -176.499 68.5s-134 -22.833 -176 -68.5s-63 -109.834 -63 -192.501c0 -84.667 21.167 -152.5 63.5 -203.5s100.833 -76.5 175.5 -76.5s133.334 25.5 176.001 76.5s64 118.833 64 203.5z
M548.996 807.002l10 -42c-1.33301 -2.66699 -3.33301 -6.16699 -6 -10.5s-11 -10 -25 -17s-31 -10.5 -51 -10.5c-23.333 0 -54.333 8.16699 -93 24.5s-68.334 24.5 -89.001 24.5c-14 0 -27.5 -2.66699 -40.5 -8s-22.5 -10.666 -28.5 -15.999l-9 -9l-10 47
c1.33301 3.33301 4 7.66602 8 12.999s14 12.333 30 21s34.667 13 56 13c25.333 0 57.333 -8.5 96 -25.5s67.334 -25.5 86.001 -25.5c13.333 0 25.5 1.66699 36.5 5s18.5 7 22.5 11z" />
    <glyph glyph-name="Odieresis" unicode="&#xd6;" horiz-adv-x="761" 
d="M707 334c0 -104.667 -29.1689 -188.832 -87.502 -252.499s-138.166 -95.5 -239.499 -95.5s-180.833 31.667 -238.5 95s-86.5 147.666 -86.5 252.999c0 103.333 28.667 184 86 242s137 87 239 87c102.667 0 182.834 -29 240.501 -87s86.5 -138.667 86.5 -242z
M619.998 334.002c0 82.667 -21.1689 146.834 -63.502 192.501s-101.166 68.5 -176.499 68.5s-134 -22.833 -176 -68.5s-63 -109.834 -63 -192.501c0 -84.667 21.167 -152.5 63.5 -203.5s100.833 -76.5 175.5 -76.5s133.334 25.5 176.001 76.5s64 118.833 64 203.5z
M497.996 749.002c-8.66699 -6.66699 -18.667 -10 -30 -10c-12.667 0 -22.667 3.33301 -30 10c-8.66699 8 -13 18 -13 30c0 12.667 4.33301 23 13 31c8.66699 6.66699 18.667 10 30 10c10 0 20 -3.33301 30 -10c8.66699 -8.66699 13 -19 13 -31
c0 -11.333 -4.33301 -21.333 -13 -30zM319.996 749.002c-7.33301 -6.66699 -17.334 -10 -30.001 -10c-12 0 -21.667 3.33301 -29 10c-8.66699 8 -13 18 -13 30c0 12.667 4.33301 23 13 31c8.66699 6.66699 18.334 10 29.001 10c11.333 0 21.333 -3.33301 30 -10
c8.66699 -8.66699 13 -19 13 -31c0 -11.333 -4.33301 -21.333 -13 -30z" />
    <glyph glyph-name="multiply" unicode="&#xd7;" horiz-adv-x="405" 
d="M86 155l-46 49l115 116l-115 117l45 48l117 -118l118 118l45 -48l-116 -117l116 -116l-46 -49l-117 117z" />
    <glyph glyph-name="Oslash" unicode="&#xd8;" horiz-adv-x="761" 
d="M707 334c0 -104.667 -29.168 -188.833 -87.501 -252.5s-138.166 -95.5 -239.499 -95.5c-39.333 0 -77 5.33301 -113 16l-44 -103l-37 6l47 110c-56.667 26 -100.5 66.833 -131.5 122.5s-46.5 121.167 -46.5 196.5c0 103.333 28.667 184 86 242s137 87 239 87
c48.667 0 94 -7.33301 136 -22l42 87l37 -6l-46 -95c50.667 -26 89.667 -64 117 -114s41 -109.667 41 -179zM261.999 82.001l223 493.002c-30.667 13.333 -65.667 20 -105 20c-75.333 0 -134 -22.833 -176 -68.5s-63 -109.834 -63 -192.501
c0 -58.667 10.5 -109.834 31.5 -153.501s50.833 -76.5 89.5 -98.5zM619.999 334.003c0 106 -34.333 181 -103 225l-222 -492c25.333 -8.66699 53.666 -13 84.999 -13c74.667 0 133.334 25.5 176.001 76.5s64 118.833 64 203.5z" />
    <glyph glyph-name="Ugrave" unicode="&#xd9;" horiz-adv-x="742" 
d="M266 594l-78.001 -3v-352c0 -52.667 15.833 -95.834 47.5 -129.501s77.167 -50.5 136.5 -50.5c60 0 105.833 16.833 137.5 50.5s47.5 76.834 47.5 129.501v351l-82 2l3 58h237v-56l-77 -3v-369c0 -68 -22.5 -124.333 -67.5 -169s-111.5 -67 -199.5 -67
c-87.333 0 -153.666 22.5 -198.999 67.5s-68 101.167 -68 168.5v369l-81 3l4 56h239v-56zM425.999 712l-57 -5l-116 139l77 9z" />
    <glyph glyph-name="Uacute" unicode="&#xda;" horiz-adv-x="742" 
d="M266 594l-78.001 -3v-352c0 -52.667 15.833 -95.834 47.5 -129.501s77.167 -50.5 136.5 -50.5c60 0 105.833 16.833 137.5 50.5s47.5 76.834 47.5 129.501v351l-82 2l3 58h237v-56l-77 -3v-369c0 -68 -22.5 -124.333 -67.5 -169s-111.5 -67 -199.5 -67
c-87.333 0 -153.666 22.5 -198.999 67.5s-68 101.167 -68 168.5v369l-81 3l4 56h239v-56zM366.999 707l-57 4l95 143l77 -8z" />
    <glyph glyph-name="Ucircumflex" unicode="&#xdb;" horiz-adv-x="742" 
d="M266 594l-78.001 -3v-352c0 -52.667 15.833 -95.834 47.5 -129.501s77.167 -50.5 136.5 -50.5c60 0 105.833 16.833 137.5 50.5s47.5 76.834 47.5 129.501v351l-82 2l3 58h237v-56l-77 -3v-369c0 -68 -22.5 -124.333 -67.5 -169s-111.5 -67 -199.5 -67
c-87.333 0 -153.666 22.5 -198.999 67.5s-68 101.167 -68 168.5v369l-81 3l4 56h239v-56zM495.999 729l-130 95l-129 -95l-27 48l134 101h45l133 -101z" />
    <glyph glyph-name="Udieresis" unicode="&#xdc;" horiz-adv-x="742" 
d="M266 594l-78.001 -3v-352c0 -52.667 15.833 -95.834 47.5 -129.501s77.167 -50.5 136.5 -50.5c60 0 105.833 16.833 137.5 50.5s47.5 76.834 47.5 129.501v351l-82 2l3 58h237v-56l-77 -3v-369c0 -68 -22.5 -124.333 -67.5 -169s-111.5 -67 -199.5 -67
c-87.333 0 -153.666 22.5 -198.999 67.5s-68 101.167 -68 168.5v369l-81 3l4 56h239v-56zM484.999 749c-8.66699 -6.66699 -18.667 -10 -30 -10c-12.667 0 -22.667 3.33301 -30 10c-8.66699 8 -13 18 -13 30c0 12.667 4.33301 23 13 31c8.66699 6.66699 18.667 10 30 10
c10 0 20 -3.33301 30 -10c8.66699 -8.66699 13 -19 13 -31c0 -11.333 -4.33301 -21.333 -13 -30zM306.999 749c-7.33301 -6.66699 -17.334 -10 -30.001 -10c-12 0 -21.667 3.33301 -29 10c-8.66699 8 -13 18 -13 30c0 12.667 4.33301 23 13 31
c8.66699 6.66699 18.334 10 29.001 10c11.333 0 21.333 -3.33301 30 -10c8.66699 -8.66699 13 -19 13 -31c0 -11.333 -4.33301 -21.333 -13 -30z" />
    <glyph glyph-name="Yacute" unicode="&#xdd;" horiz-adv-x="637" 
d="M441 0h-236l-4 60l79 3v206l-220 322l-93 3l3 56h237v-56l-52 -2l170 -253l168 252l-51 1v58h228v-60l-92 -2l-213 -318v-208l80 -2zM353 707l-57 4l95 143l77 -8z" />
    <glyph glyph-name="Thorn" unicode="&#xde;" horiz-adv-x="589" 
d="M200 0h-154.001l-4 60l80 3v528l-81 3l4 56h155v-114h99c162 0 243 -66.667 243 -200c0 -52.667 -12.333 -97 -37 -133s-54.667 -61.5 -90 -76.5s-73.666 -22.5 -114.999 -22.5h-100v-104zM291.999 471h-91.999v-304h91c49.333 0 89.666 13.167 120.999 39.5
s47 67.833 47 124.5c0 93.333 -55.667 140 -167 140z" />
    <glyph glyph-name="germandbls" unicode="&#xdf;" horiz-adv-x="617" 
d="M173 0l-136.001 0.00195312l-4 60l60 3v488c0 70.667 18.333 123.667 55 159s88.667 53 156 53c61.333 0 108.5 -13.333 141.5 -40s49.5 -65.667 49.5 -117c0 -55.333 -31.667 -97.666 -95 -126.999c119.333 -27.333 179 -105.333 179 -234
c0 -84 -19.333 -148.167 -58 -192.5s-92 -66.5 -160 -66.5c-32 0 -59.167 2.66699 -81.5 8s-36.833 10.666 -43.5 15.999l-10 8l12 50c17.333 -14 50 -21 98 -21c50 0 89.167 16.667 117.5 50s42.5 81.666 42.5 144.999c0 70 -17.167 119.667 -51.5 149
s-91.833 44 -172.5 44l1 11l-1 50c4 0 9.16699 0.5 15.5 1.5s17.833 3.66699 34.5 8s31.334 9.83301 44.001 16.5s24.167 16.667 34.5 30s15.5 28.666 15.5 45.999c0 69.333 -38.333 104 -115 104c-42 0 -73.833 -13 -95.5 -39s-32.5 -63.333 -32.5 -112v-551z" />
    <glyph glyph-name="agrave" unicode="&#xe0;" horiz-adv-x="536" 
d="M146 348l-61 0.00195312l3 157h51l7 -37c42 30.667 87 46 135 46c114.667 0 172 -60.667 172 -182v-273l60 -3l-4 -56h-122l-12 64c-3.33301 -6.66699 -8 -13.167 -14 -19.5s-15 -14.5 -27 -24.5s-28.333 -18.167 -49 -24.5s-43.667 -9.5 -69 -9.5
c-56.667 0 -100.167 12.5 -130.5 37.5s-45.5 60.167 -45.5 105.5c0 26 7.16699 48.667 21.5 68s29.833 34.166 46.5 44.499s42.167 19.5 76.5 27.5s60 13.167 77 15.5s44.5 5.16602 82.5 8.49902c13.333 1.33301 23 2.33301 29 3v35c0 44 -8.5 75.667 -25.5 95
s-46.167 29 -87.5 29c-43.333 0 -80 -14 -110 -42zM240 42.002c18 0 34.834 2.33398 50.501 7.00098s28.167 10.167 37.5 16.5s17.666 13.5 24.999 21.5s12.166 14.167 14.499 18.5l5.5 10.5v127c-91.333 -6.66699 -151.666 -15.334 -180.999 -26.001
c-46.667 -16 -70 -42.667 -70 -80c0 -63.333 39.333 -95 118 -95zM316.001 577.003l-57 -5l-116 139l77 9z" />
    <glyph glyph-name="aacute" unicode="&#xe1;" horiz-adv-x="536" 
d="M146 348l-61 0.00195312l3 157h51l7 -37c42 30.667 87 46 135 46c114.667 0 172 -60.667 172 -182v-273l60 -3l-4 -56h-122l-12 64c-3.33301 -6.66699 -8 -13.167 -14 -19.5s-15 -14.5 -27 -24.5s-28.333 -18.167 -49 -24.5s-43.667 -9.5 -69 -9.5
c-56.667 0 -100.167 12.5 -130.5 37.5s-45.5 60.167 -45.5 105.5c0 26 7.16699 48.667 21.5 68s29.833 34.166 46.5 44.499s42.167 19.5 76.5 27.5s60 13.167 77 15.5s44.5 5.16602 82.5 8.49902c13.333 1.33301 23 2.33301 29 3v35c0 44 -8.5 75.667 -25.5 95
s-46.167 29 -87.5 29c-43.333 0 -80 -14 -110 -42zM240 42.002c18 0 34.834 2.33398 50.501 7.00098s28.167 10.167 37.5 16.5s17.666 13.5 24.999 21.5s12.166 14.167 14.499 18.5l5.5 10.5v127c-91.333 -6.66699 -151.666 -15.334 -180.999 -26.001
c-46.667 -16 -70 -42.667 -70 -80c0 -63.333 39.333 -95 118 -95zM292.001 572.003l-57 4l95 143l77 -8z" />
    <glyph glyph-name="acircumflex" unicode="&#xe2;" horiz-adv-x="536" 
d="M146 348l-61 0.00195312l3 157h51l7 -37c42 30.667 87 46 135 46c114.667 0 172 -60.667 172 -182v-273l60 -3l-4 -56h-122l-12 64c-3.33301 -6.66699 -8 -13.167 -14 -19.5s-15 -14.5 -27 -24.5s-28.333 -18.167 -49 -24.5s-43.667 -9.5 -69 -9.5
c-56.667 0 -100.167 12.5 -130.5 37.5s-45.5 60.167 -45.5 105.5c0 26 7.16699 48.667 21.5 68s29.833 34.166 46.5 44.499s42.167 19.5 76.5 27.5s60 13.167 77 15.5s44.5 5.16602 82.5 8.49902c13.333 1.33301 23 2.33301 29 3v35c0 44 -8.5 75.667 -25.5 95
s-46.167 29 -87.5 29c-43.333 0 -80 -14 -110 -42zM240 42.002c18 0 34.834 2.33398 50.501 7.00098s28.167 10.167 37.5 16.5s17.666 13.5 24.999 21.5s12.166 14.167 14.499 18.5l5.5 10.5v127c-91.333 -6.66699 -151.666 -15.334 -180.999 -26.001
c-46.667 -16 -70 -42.667 -70 -80c0 -63.333 39.333 -95 118 -95zM406.001 594.003l-130 95l-129 -95l-27 48l134 101h45l133 -101z" />
    <glyph glyph-name="atilde" unicode="&#xe3;" horiz-adv-x="536" 
d="M146 348l-61 0.00195312l3 157h51l7 -37c42 30.667 87 46 135 46c114.667 0 172 -60.667 172 -182v-273l60 -3l-4 -56h-122l-12 64c-3.33301 -6.66699 -8 -13.167 -14 -19.5s-15 -14.5 -27 -24.5s-28.333 -18.167 -49 -24.5s-43.667 -9.5 -69 -9.5
c-56.667 0 -100.167 12.5 -130.5 37.5s-45.5 60.167 -45.5 105.5c0 26 7.16699 48.667 21.5 68s29.833 34.166 46.5 44.499s42.167 19.5 76.5 27.5s60 13.167 77 15.5s44.5 5.16602 82.5 8.49902c13.333 1.33301 23 2.33301 29 3v35c0 44 -8.5 75.667 -25.5 95
s-46.167 29 -87.5 29c-43.333 0 -80 -14 -110 -42zM240 42.002c18 0 34.834 2.33398 50.501 7.00098s28.167 10.167 37.5 16.5s17.666 13.5 24.999 21.5s12.166 14.167 14.499 18.5l5.5 10.5v127c-91.333 -6.66699 -151.666 -15.334 -180.999 -26.001
c-46.667 -16 -70 -42.667 -70 -80c0 -63.333 39.333 -95 118 -95zM446.001 672.003l10 -41.999c-1.33301 -2.66699 -3.33301 -6.16699 -6 -10.5s-11 -10 -25 -17s-31 -10.5 -51 -10.5c-23.333 0 -54.333 8.16699 -93 24.5s-68.334 24.5 -89.001 24.5
c-14 0 -27.5 -2.83301 -40.5 -8.5s-22.5 -11.167 -28.5 -16.5l-9 -8l-10 47c1.33301 3.33301 4 7.66602 8 12.999s14 12.333 30 21s34.667 13 56 13c25.333 0 57.333 -8.5 96 -25.5s67.334 -25.5 86.001 -25.5c13.333 0 25.5 1.83301 36.5 5.5s18.833 7.16699 23.5 10.5z
" />
    <glyph glyph-name="adieresis" unicode="&#xe4;" horiz-adv-x="536" 
d="M146 348l-61 0.00195312l3 157h51l7 -37c42 30.667 87 46 135 46c114.667 0 172 -60.667 172 -182v-273l60 -3l-4 -56h-122l-12 64c-3.33301 -6.66699 -8 -13.167 -14 -19.5s-15 -14.5 -27 -24.5s-28.333 -18.167 -49 -24.5s-43.667 -9.5 -69 -9.5
c-56.667 0 -100.167 12.5 -130.5 37.5s-45.5 60.167 -45.5 105.5c0 26 7.16699 48.667 21.5 68s29.833 34.166 46.5 44.499s42.167 19.5 76.5 27.5s60 13.167 77 15.5s44.5 5.16602 82.5 8.49902c13.333 1.33301 23 2.33301 29 3v35c0 44 -8.5 75.667 -25.5 95
s-46.167 29 -87.5 29c-43.333 0 -80 -14 -110 -42zM240 42.002c18 0 34.834 2.33398 50.501 7.00098s28.167 10.167 37.5 16.5s17.666 13.5 24.999 21.5s12.166 14.167 14.499 18.5l5.5 10.5v127c-91.333 -6.66699 -151.666 -15.334 -180.999 -26.001
c-46.667 -16 -70 -42.667 -70 -80c0 -63.333 39.333 -95 118 -95zM395.001 614.003c-8.66699 -6.66699 -18.667 -10 -30 -10c-12.667 0 -22.667 3.33301 -30 10c-8.66699 8 -13 18 -13 30c0 12.667 4.33301 23 13 31c8.66699 6.66699 18.667 10 30 10
c10 0 20 -3.33301 30 -10c8.66699 -8.66699 13 -19 13 -31c0 -11.333 -4.33301 -21.333 -13 -30zM217.001 614.003c-7.33301 -6.66699 -17.334 -10 -30.001 -10c-12 0 -21.667 3.33301 -29 10c-8.66699 8 -13 18 -13 30c0 12.667 4.33301 23 13 31
c8.66699 6.66699 18.334 10 29.001 10c11.333 0 21.333 -3.33301 30 -10c8.66699 -8.66699 13 -19 13 -31c0 -11.333 -4.33301 -21.333 -13 -30z" />
    <glyph glyph-name="aring" unicode="&#xe5;" horiz-adv-x="536" 
d="M146 348l-61 0.00195312l3 157h51l7 -37c42 30.667 87 46 135 46c114.667 0 172 -60.667 172 -182v-273l60 -3l-4 -56h-122l-12 64c-3.33301 -6.66699 -8 -13.167 -14 -19.5s-15 -14.5 -27 -24.5s-28.333 -18.167 -49 -24.5s-43.667 -9.5 -69 -9.5
c-56.667 0 -100.167 12.5 -130.5 37.5s-45.5 60.167 -45.5 105.5c0 26 7.16699 48.667 21.5 68s29.833 34.166 46.5 44.499s42.167 19.5 76.5 27.5s60 13.167 77 15.5s44.5 5.16602 82.5 8.49902c13.333 1.33301 23 2.33301 29 3v35c0 44 -8.5 75.667 -25.5 95
s-46.167 29 -87.5 29c-43.333 0 -80 -14 -110 -42zM240 42.002c18 0 34.834 2.33398 50.501 7.00098s28.167 10.167 37.5 16.5s17.666 13.5 24.999 21.5s12.166 14.167 14.499 18.5l5.5 10.5v127c-91.333 -6.66699 -151.666 -15.334 -180.999 -26.001
c-46.667 -16 -70 -42.667 -70 -80c0 -63.333 39.333 -95 118 -95zM277.001 587.003c-30.667 0 -55.332 9.5 -73.999 28.5s-28 43.833 -28 74.5c0 30 9.66699 54.833 29 74.5s43.666 29.5 72.999 29.5c28.667 0 52.667 -9.83301 72 -29.5s29 -44.5 29 -74.5
c0 -30.667 -9.5 -55.5 -28.5 -74.5s-43.167 -28.5 -72.5 -28.5zM277.003 623.003c18 0 32.999 6.16699 44.999 18.5s18 28.5 18 48.5s-6.16699 36.333 -18.5 49s-27.166 19 -44.499 19c-18 0 -33.167 -6.33301 -45.5 -19s-18.5 -29 -18.5 -49s6.16699 -36.167 18.5 -48.5
s27.5 -18.5 45.5 -18.5z" />
    <glyph glyph-name="ae" unicode="&#xe6;" horiz-adv-x="843" 
d="M800 235l-356.009 0.000976562c2.66699 -62 19.334 -108.833 50.001 -140.5s72.334 -47.5 125.001 -47.5c30 0 57.5 5.5 82.5 16.5s42.5 21.833 52.5 32.5l15 17l38 -41c-1.33301 -2 -3.5 -5 -6.5 -9s-10.167 -11 -21.5 -21s-23.666 -18.667 -36.999 -26
s-31.166 -14.166 -53.499 -20.499s-46.166 -9.5 -71.499 -9.5c-108.667 0 -183.334 41.333 -224.001 124c-33.333 -82.667 -94.333 -124 -183 -124c-56 0 -98.333 12.333 -127 37s-43 60 -43 106c0 21.333 3.83301 40.5 11.5 57.5s21 31.167 40 42.5s35 20.5 48 27.5
s35.333 13.167 67 18.5s52.834 8.66602 63.501 9.99902s33.334 3.66602 68.001 6.99902c4 0.666992 7.16699 1.16699 9.5 1.5s5.33301 0.666016 9 0.999023s6.83398 0.5 9.50098 0.5l2 11v25c0 44 -8.33301 75.5 -25 94.5s-45.667 28.5 -87 28.5
s-76.666 -13.667 -105.999 -41l-4 -54h-61l3 146h51l7 -35c42.667 29.333 86.334 44 131.001 44c72 0 118.333 -28 139 -84c42.667 56 105 84 187 84c68 0 119.833 -18.167 155.5 -54.5s53.5 -90.5 53.5 -162.5c0 -10.667 -1 -21.167 -3 -31.5s-4 -18.166 -6 -23.499z
M603.991 455.001c-48 0 -85.332 -14.333 -111.999 -43s-42.334 -69.334 -47.001 -122.001h293c0.666992 8.66699 1 16.334 1 23.001c0 94.667 -45 142 -135 142zM233.992 42.001c24.667 0 46 5.83105 64 17.498s31.5 26.834 40.5 45.501s15.5 35.834 19.5 51.501
s6.66699 31.5 8 47.5c-1.33301 16 -2 28.333 -2 37c-87.333 -6 -145 -13.667 -173 -23c-46 -15.333 -69 -42.333 -69 -81c0 -63.333 37.333 -95 112 -95z" />
    <glyph glyph-name="ccedilla" unicode="&#xe7;" horiz-adv-x="487" 
d="M175 -215l12 31.002c20.667 -19.333 47 -29 79 -29c48 0 72 20.333 72 61c0 16 -8.16699 28.667 -24.5 38s-32.666 15.5 -48.999 18.5s-24.5 4.83301 -24.5 5.5l11 78c-69.333 6.66699 -122.166 32.834 -158.499 78.501s-54.5 108.5 -54.5 188.5c0 84.667 20 149 60 193
s97.667 66 173 66c42 0 83.333 -16.333 124 -49l11 40h52v-170h-62l-5 71c-30 32.667 -66 49 -108 49c-56 0 -97 -15.5 -123 -46.5s-39 -81.833 -39 -152.5c0 -70 15.167 -122.667 45.5 -158s72.833 -53 127.5 -53c27.333 0 53.166 5 77.499 15s41.833 20 52.5 30l15 15
l36 -40c-1.33301 -2 -3.5 -4.83301 -6.5 -8.5s-9.66699 -9.83398 -20 -18.501s-22 -16.5 -35 -23.5s-30.333 -13.333 -52 -19s-44.834 -8.83398 -69.501 -9.50098l-7 -54c0 -0.666992 9 -2.83398 27 -6.50098s36 -12 54 -25s27 -30.833 27 -53.5
c0 -30.667 -9.33301 -54.667 -28 -72s-46 -26 -82 -26c-22.667 0 -43 3 -61 9s-30.333 12 -37 18z" />
    <glyph glyph-name="egrave" unicode="&#xe8;" horiz-adv-x="518" 
d="M474 235l-356.005 -0.00195312c2.66699 -62 19.334 -108.833 50.001 -140.5s72.334 -47.5 125.001 -47.5c30 0 57.5 5.5 82.5 16.5s42.5 21.833 52.5 32.5l15 17l38 -41c-1.33301 -2 -3.5 -5 -6.5 -9s-10.167 -11 -21.5 -21s-23.666 -18.667 -36.999 -26
s-31.166 -14.166 -53.499 -20.499s-46.166 -9.5 -71.499 -9.5c-78.667 0 -140.5 23 -185.5 69s-67.5 111.333 -67.5 196c0 82.667 21.5 147.167 64.5 193.5s101.167 69.5 174.5 69.5c68 0 119.833 -18.167 155.5 -54.5s53.5 -90.5 53.5 -162.5
c0 -10.667 -1 -21.167 -3 -31.5s-4 -18.166 -6 -23.499zM277.995 454.998c-48 0 -85.332 -14.333 -111.999 -43s-42.334 -69.334 -47.001 -122.001h293c0.666992 8.66699 1 16.334 1 23.001c0 94.667 -45 142 -135 142zM316.996 576.998l-57 -5l-116 139l77 9z" />
    <glyph glyph-name="eacute" unicode="&#xe9;" horiz-adv-x="518" 
d="M474 235l-356.005 -0.00195312c2.66699 -62 19.334 -108.833 50.001 -140.5s72.334 -47.5 125.001 -47.5c30 0 57.5 5.5 82.5 16.5s42.5 21.833 52.5 32.5l15 17l38 -41c-1.33301 -2 -3.5 -5 -6.5 -9s-10.167 -11 -21.5 -21s-23.666 -18.667 -36.999 -26
s-31.166 -14.166 -53.499 -20.499s-46.166 -9.5 -71.499 -9.5c-78.667 0 -140.5 23 -185.5 69s-67.5 111.333 -67.5 196c0 82.667 21.5 147.167 64.5 193.5s101.167 69.5 174.5 69.5c68 0 119.833 -18.167 155.5 -54.5s53.5 -90.5 53.5 -162.5
c0 -10.667 -1 -21.167 -3 -31.5s-4 -18.166 -6 -23.499zM277.995 454.998c-48 0 -85.332 -14.333 -111.999 -43s-42.334 -69.334 -47.001 -122.001h293c0.666992 8.66699 1 16.334 1 23.001c0 94.667 -45 142 -135 142zM292.996 571.998l-57 4l95 143l77 -8z" />
    <glyph glyph-name="ecircumflex" unicode="&#xea;" horiz-adv-x="518" 
d="M474 235l-356.005 -0.00195312c2.66699 -62 19.334 -108.833 50.001 -140.5s72.334 -47.5 125.001 -47.5c30 0 57.5 5.5 82.5 16.5s42.5 21.833 52.5 32.5l15 17l38 -41c-1.33301 -2 -3.5 -5 -6.5 -9s-10.167 -11 -21.5 -21s-23.666 -18.667 -36.999 -26
s-31.166 -14.166 -53.499 -20.499s-46.166 -9.5 -71.499 -9.5c-78.667 0 -140.5 23 -185.5 69s-67.5 111.333 -67.5 196c0 82.667 21.5 147.167 64.5 193.5s101.167 69.5 174.5 69.5c68 0 119.833 -18.167 155.5 -54.5s53.5 -90.5 53.5 -162.5
c0 -10.667 -1 -21.167 -3 -31.5s-4 -18.166 -6 -23.499zM277.995 454.998c-48 0 -85.332 -14.333 -111.999 -43s-42.334 -69.334 -47.001 -122.001h293c0.666992 8.66699 1 16.334 1 23.001c0 94.667 -45 142 -135 142zM407.996 593.998l-130 95l-129 -95l-27 48l134 101h45
l133 -101z" />
    <glyph glyph-name="edieresis" unicode="&#xeb;" horiz-adv-x="518" 
d="M474 235l-356.005 -0.00195312c2.66699 -62 19.334 -108.833 50.001 -140.5s72.334 -47.5 125.001 -47.5c30 0 57.5 5.5 82.5 16.5s42.5 21.833 52.5 32.5l15 17l38 -41c-1.33301 -2 -3.5 -5 -6.5 -9s-10.167 -11 -21.5 -21s-23.666 -18.667 -36.999 -26
s-31.166 -14.166 -53.499 -20.499s-46.166 -9.5 -71.499 -9.5c-78.667 0 -140.5 23 -185.5 69s-67.5 111.333 -67.5 196c0 82.667 21.5 147.167 64.5 193.5s101.167 69.5 174.5 69.5c68 0 119.833 -18.167 155.5 -54.5s53.5 -90.5 53.5 -162.5
c0 -10.667 -1 -21.167 -3 -31.5s-4 -18.166 -6 -23.499zM277.995 454.998c-48 0 -85.332 -14.333 -111.999 -43s-42.334 -69.334 -47.001 -122.001h293c0.666992 8.66699 1 16.334 1 23.001c0 94.667 -45 142 -135 142zM395.996 613.998
c-8.66699 -6.66699 -18.667 -10 -30 -10c-12.667 0 -22.667 3.33301 -30 10c-8.66699 8 -13 18 -13 30c0 12.667 4.33301 23 13 31c8.66699 6.66699 18.667 10 30 10c10 0 20 -3.33301 30 -10c8.66699 -8.66699 13 -19 13 -31c0 -11.333 -4.33301 -21.333 -13 -30z
M217.996 613.998c-7.33301 -6.66699 -17.334 -10 -30.001 -10c-12 0 -21.667 3.33301 -29 10c-8.66699 8 -13 18 -13 30c0 12.667 4.33301 23 13 31c8.66699 6.66699 18.334 10 29.001 10c11.333 0 21.333 -3.33301 30 -10c8.66699 -8.66699 13 -19 13 -31
c0 -11.333 -4.33301 -21.333 -13 -30z" />
    <glyph glyph-name="igrave" unicode="&#xec;" horiz-adv-x="270" 
d="M233 0h-192l-4 60l60 3v374l-59 3l3 60h136v-441l60 -3zM176 577l-57 -5l-116 139l77 9z" />
    <glyph glyph-name="iacute" unicode="&#xed;" horiz-adv-x="270" 
d="M233 0h-192l-4 60l60 3v374l-59 3l3 60h136v-441l60 -3zM152 572l-57 4l95 143l77 -8z" />
    <glyph glyph-name="icircumflex" unicode="&#xee;" horiz-adv-x="270" 
d="M233 0h-192l-4 60l60 3v374l-59 3l3 60h136v-441l60 -3zM266 594l-130 95l-129 -95l-27 48l134 101h45l133 -101z" />
    <glyph glyph-name="idieresis" unicode="&#xef;" horiz-adv-x="270" 
d="M233 0h-192l-4 60l60 3v374l-59 3l3 60h136v-441l60 -3zM255 614c-8.66699 -6.66699 -18.667 -10 -30 -10c-12.667 0 -22.667 3.33301 -30 10c-8.66699 8 -13 18 -13 30c0 12.667 4.33301 23 13 31c8.66699 6.66699 18.667 10 30 10c10 0 20 -3.33301 30 -10
c8.66699 -8.66699 13 -19 13 -31c0 -11.333 -4.33301 -21.333 -13 -30zM77 614c-7.33301 -6.66699 -17.334 -10 -30.001 -10c-12 0 -21.667 3.33301 -29 10c-8.66699 8 -13 18 -13 30c0 12.667 4.33301 23 13 31c8.66699 6.66699 18.334 10 29.001 10
c11.333 0 21.333 -3.33301 30 -10c8.66699 -8.66699 13 -19 13 -31c0 -11.333 -4.33301 -21.333 -13 -30z" />
    <glyph glyph-name="eth" unicode="&#xf0;" horiz-adv-x="580" 
d="M39 260c0 82 20.668 144.833 62.001 188.5s101.666 65.5 180.999 65.5c68 0 125.333 -22.667 172 -68c-17.333 81.333 -54.333 148 -111 200l-128 -62l-15 30l115 56c-19.333 14 -39.333 27 -60 39l34 38c30 -14.667 56.333 -31.667 79 -51l96 47l15 -31l-83 -40
c92.667 -90.667 139 -224 139 -400c0 -89.333 -21.333 -159.333 -64 -210s-104 -76 -184 -76c-78.667 0 -139.667 24.833 -183 74.5s-65 116.167 -65 199.5zM287.001 455c-110.667 0 -165.998 -65.001 -165.998 -195.001c0 -66 13.833 -118.333 41.5 -157
s69.167 -58 124.5 -58s96.666 19.333 123.999 58s41 91.334 41 158.001c0 59.333 -13.833 106.5 -41.5 141.5s-68.834 52.5 -123.501 52.5z" />
    <glyph glyph-name="ntilde" unicode="&#xf1;" horiz-adv-x="607" 
d="M233 0l-191.999 -0.000976562l-4 60l60 3v374l-59 3l3 60h127l7 -44c4.66699 6 11.5 12.333 20.5 19s27.667 14.834 56 24.501s59.833 14.5 94.5 14.5c119.333 0 179 -51.667 179 -155v-300l59 -3l-3 -56h-137v344c0 68 -41.667 102 -125 102
c-28.667 0 -54.834 -4.33301 -78.501 -13s-40.167 -17 -49.5 -25l-14 -13v-336l60 -3zM462.001 671.999l10 -41.999c-1.33301 -2.66699 -3.33301 -6.16699 -6 -10.5s-11 -10 -25 -17s-31 -10.5 -51 -10.5c-23.333 0 -54.333 8.16699 -93 24.5s-68.334 24.5 -89.001 24.5
c-14 0 -27.5 -2.83301 -40.5 -8.5s-22.5 -11.167 -28.5 -16.5l-9 -8l-10 47c1.33301 3.33301 4 7.66602 8 12.999s14 12.333 30 21s34.667 13 56 13c25.333 0 57.333 -8.5 96 -25.5s67.334 -25.5 86.001 -25.5c13.333 0 25.5 1.83301 36.5 5.5s18.833 7.16699 23.5 10.5z
" />
    <glyph glyph-name="ograve" unicode="&#xf2;" horiz-adv-x="573" 
d="M286 -14c-80 0 -141.333 23.833 -184 71.5s-64 113.167 -64 196.5c0 82.667 21.167 146.667 63.5 192s103.833 68 184.5 68s142.167 -22.667 184.5 -68s63.5 -109.333 63.5 -192s-21.667 -148 -65 -196s-104.333 -72 -183 -72zM286 45c56 0 97.501 18.167 124.501 54.5
s40.5 87.5 40.5 153.5c0 134.667 -55 202 -165 202s-165 -67.333 -165 -202c0 -65.333 13.667 -116.333 41 -153s68.666 -55 123.999 -55zM325.001 577l-57 -5l-116 139l77 9z" />
    <glyph glyph-name="oacute" unicode="&#xf3;" horiz-adv-x="573" 
d="M286 -14c-80 0 -141.333 23.833 -184 71.5s-64 113.167 -64 196.5c0 82.667 21.167 146.667 63.5 192s103.833 68 184.5 68s142.167 -22.667 184.5 -68s63.5 -109.333 63.5 -192s-21.667 -148 -65 -196s-104.333 -72 -183 -72zM286 45c56 0 97.501 18.167 124.501 54.5
s40.5 87.5 40.5 153.5c0 134.667 -55 202 -165 202s-165 -67.333 -165 -202c0 -65.333 13.667 -116.333 41 -153s68.666 -55 123.999 -55zM301.001 572l-57 4l95 143l77 -8z" />
    <glyph glyph-name="ocircumflex" unicode="&#xf4;" horiz-adv-x="573" 
d="M286 -14c-80 0 -141.333 23.833 -184 71.5s-64 113.167 -64 196.5c0 82.667 21.167 146.667 63.5 192s103.833 68 184.5 68s142.167 -22.667 184.5 -68s63.5 -109.333 63.5 -192s-21.667 -148 -65 -196s-104.333 -72 -183 -72zM286 45c56 0 97.501 18.167 124.501 54.5
s40.5 87.5 40.5 153.5c0 134.667 -55 202 -165 202s-165 -67.333 -165 -202c0 -65.333 13.667 -116.333 41 -153s68.666 -55 123.999 -55zM415.001 594l-130 95l-129 -95l-27 48l134 101h45l133 -101z" />
    <glyph glyph-name="otilde" unicode="&#xf5;" horiz-adv-x="573" 
d="M286 -14c-80 0 -141.333 23.833 -184 71.5s-64 113.167 -64 196.5c0 82.667 21.167 146.667 63.5 192s103.833 68 184.5 68s142.167 -22.667 184.5 -68s63.5 -109.333 63.5 -192s-21.667 -148 -65 -196s-104.333 -72 -183 -72zM286 45c56 0 97.501 18.167 124.501 54.5
s40.5 87.5 40.5 153.5c0 134.667 -55 202 -165 202s-165 -67.333 -165 -202c0 -65.333 13.667 -116.333 41 -153s68.666 -55 123.999 -55zM455.001 672l10 -41.999c-1.33301 -2.66699 -3.33301 -6.16699 -6 -10.5s-11 -10 -25 -17s-31 -10.5 -51 -10.5
c-23.333 0 -54.333 8.16699 -93 24.5s-68.334 24.5 -89.001 24.5c-14 0 -27.5 -2.83301 -40.5 -8.5s-22.5 -11.167 -28.5 -16.5l-9 -8l-10 47c1.33301 3.33301 4 7.66602 8 12.999s14 12.333 30 21s34.667 13 56 13c25.333 0 57.333 -8.5 96 -25.5
s67.334 -25.5 86.001 -25.5c13.333 0 25.5 1.83301 36.5 5.5s18.5 7.16699 22.5 10.5z" />
    <glyph glyph-name="odieresis" unicode="&#xf6;" horiz-adv-x="573" 
d="M286 -14c-80 0 -141.333 23.833 -184 71.5s-64 113.167 -64 196.5c0 82.667 21.167 146.667 63.5 192s103.833 68 184.5 68s142.167 -22.667 184.5 -68s63.5 -109.333 63.5 -192s-21.667 -148 -65 -196s-104.333 -72 -183 -72zM286 45c56 0 97.501 18.167 124.501 54.5
s40.5 87.5 40.5 153.5c0 134.667 -55 202 -165 202s-165 -67.333 -165 -202c0 -65.333 13.667 -116.333 41 -153s68.666 -55 123.999 -55zM404.001 614c-8.66699 -6.66699 -18.667 -10 -30 -10c-12.667 0 -22.667 3.33301 -30 10c-8.66699 8 -13 18 -13 30
c0 12.667 4.33301 23 13 31c8.66699 6.66699 18.667 10 30 10c10 0 20 -3.33301 30 -10c8.66699 -8.66699 13 -19 13 -31c0 -11.333 -4.33301 -21.333 -13 -30zM226.001 614c-7.33301 -6.66699 -17.334 -10 -30.001 -10c-12 0 -21.667 3.33301 -29 10
c-8.66699 8 -13 18 -13 30c0 12.667 4.33301 23 13 31c8.66699 6.66699 18.334 10 29.001 10c11.333 0 21.333 -3.33301 30 -10c8.66699 -8.66699 13 -19 13 -31c0 -11.333 -4.33301 -21.333 -13 -30z" />
    <glyph glyph-name="divide" unicode="&#xf7;" horiz-adv-x="543" 
d="M304 32c-10 -8 -21.667 -12.002 -35 -12.002c-14 0 -25.667 4 -35 12c-10.667 8.66699 -16 20 -16 34s5.33301 25.333 16 34c9.33301 8 21 12 35 12c13.333 0 25 -4 35 -12c10.667 -9.33301 16 -20.666 16 -33.999s-5.33301 -24.666 -16 -33.999zM306 406.998
c-10 -8 -21.667 -12.002 -35 -12.002c-14 0 -25.667 4 -35 12c-10.667 8.66699 -16 20 -16 34s5.33301 25.333 16 34c9.33301 8 21 12 35 12c13.333 0 25 -4 35 -12c10.667 -9.33301 16 -20.666 16 -33.999s-5.33301 -24.666 -16 -33.999zM504 222.996h-465v61h465v-61z" />
    <glyph glyph-name="oslash" unicode="&#xf8;" horiz-adv-x="585" 
d="M131 -179l-53 6l84 185c-82.667 41.333 -124 122 -124 242c0 82.667 21.167 146.667 63.5 192s103.833 68 184.5 68c34.667 0 67 -4.66699 97 -14l68 150l52 -6l-75 -165c70.667 -41.333 106 -116.333 106 -225c0 -82.667 -21.667 -148 -65 -196s-104.333 -72 -183 -72
c-28 0 -53.667 3 -77 9zM121 253c0 -87.333 22.667 -147.333 68 -180l168 370c-20 8 -43.667 12 -71 12c-110 0 -165 -67.333 -165 -202zM286 45c56 0 97.5 18.167 124.5 54.5s40.5 87.5 40.5 153.5c0 73.333 -17.333 127.333 -52 162l-164 -364c15.333 -4 32.333 -6 51 -6z
" />
    <glyph glyph-name="ugrave" unicode="&#xf9;" horiz-adv-x="603" 
d="M430 105l0.000976562 332l-59 3l4 60h136v-441l59 -3l-3 -56h-127l-7 45c-39.333 -39.333 -96.666 -59 -171.999 -59c-55.333 0 -98.833 15.5 -130.5 46.5s-47.5 73.833 -47.5 128.5v276l-59 3l4 60h135v-324c0 -36.667 11.167 -66 33.5 -88s53.166 -33 92.499 -33
c28.667 0 54.667 4.16699 78 12.5s39.666 16.5 48.999 24.5zM336.001 577l-57 -5l-116 139l77 9z" />
    <glyph glyph-name="uacute" unicode="&#xfa;" horiz-adv-x="603" 
d="M430 105l0.000976562 332l-59 3l4 60h136v-441l59 -3l-3 -56h-127l-7 45c-39.333 -39.333 -96.666 -59 -171.999 -59c-55.333 0 -98.833 15.5 -130.5 46.5s-47.5 73.833 -47.5 128.5v276l-59 3l4 60h135v-324c0 -36.667 11.167 -66 33.5 -88s53.166 -33 92.499 -33
c28.667 0 54.667 4.16699 78 12.5s39.666 16.5 48.999 24.5zM312.001 572l-57 4l95 143l77 -8z" />
    <glyph glyph-name="ucircumflex" unicode="&#xfb;" horiz-adv-x="603" 
d="M430 105l0.000976562 332l-59 3l4 60h136v-441l59 -3l-3 -56h-127l-7 45c-39.333 -39.333 -96.666 -59 -171.999 -59c-55.333 0 -98.833 15.5 -130.5 46.5s-47.5 73.833 -47.5 128.5v276l-59 3l4 60h135v-324c0 -36.667 11.167 -66 33.5 -88s53.166 -33 92.499 -33
c28.667 0 54.667 4.16699 78 12.5s39.666 16.5 48.999 24.5zM427.001 594l-130 95l-129 -95l-27 48l134 101h45l133 -101z" />
    <glyph glyph-name="udieresis" unicode="&#xfc;" horiz-adv-x="603" 
d="M430 105l0.000976562 332l-59 3l4 60h136v-441l59 -3l-3 -56h-127l-7 45c-39.333 -39.333 -96.666 -59 -171.999 -59c-55.333 0 -98.833 15.5 -130.5 46.5s-47.5 73.833 -47.5 128.5v276l-59 3l4 60h135v-324c0 -36.667 11.167 -66 33.5 -88s53.166 -33 92.499 -33
c28.667 0 54.667 4.16699 78 12.5s39.666 16.5 48.999 24.5zM415.001 614c-8.66699 -6.66699 -18.667 -10 -30 -10c-12.667 0 -22.667 3.33301 -30 10c-8.66699 8 -13 18 -13 30c0 12.667 4.33301 23 13 31c8.66699 6.66699 18.667 10 30 10c10 0 20 -3.33301 30 -10
c8.66699 -8.66699 13 -19 13 -31c0 -11.333 -4.33301 -21.333 -13 -30zM237.001 614c-7.33301 -6.66699 -17.334 -10 -30.001 -10c-12 0 -21.667 3.33301 -29 10c-8.66699 8 -13 18 -13 30c0 12.667 4.33301 23 13 31c8.66699 6.66699 18.334 10 29.001 10
c11.333 0 21.333 -3.33301 30 -10c8.66699 -8.66699 13 -19 13 -31c0 -11.333 -4.33301 -21.333 -13 -30z" />
    <glyph glyph-name="yacute" unicode="&#xfd;" horiz-adv-x="527" 
d="M10 -243l8 55c23.333 -8 46.333 -12 69 -12c46.667 0 95 66.667 145 200l-187 437l-71 3l4 60h130l166 -412h1l133 352l-53 2v58h193v-60l-66 -3l-175 -448c-66 -168.667 -136 -253 -210 -253c-21.333 0 -39.333 1.66699 -54 5s-23.667 7 -27 11zM290 572l-57 4l95 143
l77 -8z" />
    <glyph glyph-name="thorn" unicode="&#xfe;" horiz-adv-x="592" 
d="M221 -250l-192 0.00195312l-4 60l60 3v874l-59 3l4 60h136v-305h1l5 7.5c2 3 7.5 8.5 16.5 16.5s19 15 30 21s26 11.5 45 16.5s39.5 7.5 61.5 7.5c70 0 125.833 -20.833 167.5 -62.5s62.5 -100.834 62.5 -177.501c0 -84.667 -21.167 -153.834 -63.5 -207.501
s-101.5 -80.5 -177.5 -80.5c-66 0 -115.667 15.667 -149 47v-224l60 -3zM302 452.002c-19.333 0 -37.168 -2.49902 -53.501 -7.49902s-29.333 -11 -39 -18s-18 -14 -25 -21s-11.833 -12.833 -14.5 -17.5l-4 -8v-287c3.33301 -4 8.33301 -8.83301 15 -14.5
s20.5 -12.334 41.5 -20.001s44.167 -11.5 69.5 -11.5c60.667 0 105.834 20.333 135.501 61s44.5 95.334 44.5 164.001c0 63.333 -14.333 109.166 -43 137.499s-71 42.5 -127 42.5z" />
    <glyph glyph-name="ydieresis" unicode="&#xff;" horiz-adv-x="527" 
d="M10 -243l8 55c23.333 -8 46.333 -12 69 -12c46.667 0 95 66.667 145 200l-187 437l-71 3l4 60h130l166 -412h1l133 352l-53 2v58h193v-60l-66 -3l-175 -448c-66 -168.667 -136 -253 -210 -253c-21.333 0 -39.333 1.66699 -54 5s-23.667 7 -27 11zM393 614
c-8.66699 -6.66699 -18.667 -10 -30 -10c-12.667 0 -22.667 3.33301 -30 10c-8.66699 8 -13 18 -13 30c0 12.667 4.33301 23 13 31c8.66699 6.66699 18.667 10 30 10c10 0 20 -3.33301 30 -10c8.66699 -8.66699 13 -19 13 -31c0 -11.333 -4.33301 -21.333 -13 -30zM215 614
c-7.33301 -6.66699 -17.334 -10 -30.001 -10c-12 0 -21.667 3.33301 -29 10c-8.66699 8 -13 18 -13 30c0 12.667 4.33301 23 13 31c8.66699 6.66699 18.334 10 29.001 10c11.333 0 21.333 -3.33301 30 -10c8.66699 -8.66699 13 -19 13 -31
c0 -11.333 -4.33301 -21.333 -13 -30z" />
    <glyph glyph-name="Amacron" unicode="&#x100;" horiz-adv-x="700" 
d="M209 0h-217l-4 60l79 3l228 587h111l228 -591l79 -3l-4 -56h-225v48l66 2l-59 150h-290l-59 -148l71 -2zM346 583l-124 -328h247zM461 768h-214v42h214v-42z" />
    <glyph glyph-name="amacron" unicode="&#x101;" horiz-adv-x="536" 
d="M146 348l-61 0.00195312l3 157h51l7 -37c42 30.667 87 46 135 46c114.667 0 172 -60.667 172 -182v-273l60 -3l-4 -56h-122l-12 64c-3.33301 -6.66699 -8 -13.167 -14 -19.5s-15 -14.5 -27 -24.5s-28.333 -18.167 -49 -24.5s-43.667 -9.5 -69 -9.5
c-56.667 0 -100.167 12.5 -130.5 37.5s-45.5 60.167 -45.5 105.5c0 26 7.16699 48.667 21.5 68s29.833 34.166 46.5 44.499s42.167 19.5 76.5 27.5s60 13.167 77 15.5s44.5 5.16602 82.5 8.49902c13.333 1.33301 23 2.33301 29 3v35c0 44 -8.5 75.667 -25.5 95
s-46.167 29 -87.5 29c-43.333 0 -80 -14 -110 -42zM240 42.002c18 0 34.834 2.33398 50.501 7.00098s28.167 10.167 37.5 16.5s17.666 13.5 24.999 21.5s12.166 14.167 14.499 18.5l5.5 10.5v127c-91.333 -6.66699 -151.666 -15.334 -180.999 -26.001
c-46.667 -16 -70 -42.667 -70 -80c0 -63.333 39.333 -95 118 -95zM388.001 633.003h-214v42h214v-42z" />
    <glyph glyph-name="Abreve" unicode="&#x102;" horiz-adv-x="700" 
d="M209 0h-217l-4 60l79 3l228 587h111l228 -591l79 -3l-4 -56h-225v48l66 2l-59 150h-290l-59 -148l71 -2zM346 583l-124 -328h247zM351 764c25.333 0 46.499 5.00195 63.499 15.002s27.5 19.667 31.5 29l7 15l70 -10c-0.666992 -2.66699 -1.66699 -6.33398 -3 -11.001
s-6 -12.834 -14 -24.501s-17.667 -22 -29 -31s-28.166 -17.167 -50.499 -24.5s-47.5 -11 -75.5 -11c-28.667 0 -54 3.5 -76 10.5s-38.833 15.5 -50.5 25.5s-21.167 20 -28.5 30s-12 18.333 -14 25l-3 11l69 10c0.666992 -1.33301 1.5 -3.33301 2.5 -6s4 -7.5 9 -14.5
s10.833 -13 17.5 -18s16.667 -9.66699 30 -14s28 -6.5 44 -6.5z" />
    <glyph glyph-name="abreve" unicode="&#x103;" horiz-adv-x="536" 
d="M146 348l-61 0.00195312l3 157h51l7 -37c42 30.667 87 46 135 46c114.667 0 172 -60.667 172 -182v-273l60 -3l-4 -56h-122l-12 64c-3.33301 -6.66699 -8 -13.167 -14 -19.5s-15 -14.5 -27 -24.5s-28.333 -18.167 -49 -24.5s-43.667 -9.5 -69 -9.5
c-56.667 0 -100.167 12.5 -130.5 37.5s-45.5 60.167 -45.5 105.5c0 26 7.16699 48.667 21.5 68s29.833 34.166 46.5 44.499s42.167 19.5 76.5 27.5s60 13.167 77 15.5s44.5 5.16602 82.5 8.49902c13.333 1.33301 23 2.33301 29 3v35c0 44 -8.5 75.667 -25.5 95
s-46.167 29 -87.5 29c-43.333 0 -80 -14 -110 -42zM240 42.002c18 0 34.834 2.33398 50.501 7.00098s28.167 10.167 37.5 16.5s17.666 13.5 24.999 21.5s12.166 14.167 14.499 18.5l5.5 10.5v127c-91.333 -6.66699 -151.666 -15.334 -180.999 -26.001
c-46.667 -16 -70 -42.667 -70 -80c0 -63.333 39.333 -95 118 -95zM278.001 629.003c16 0 30.499 2.00195 43.499 6.00195s23 8.83301 30 14.5s12.833 11.5 17.5 17.5s7.66699 11 9 15l2 6l70 -10c-0.666992 -2.66699 -1.66699 -6.33398 -3 -11.001s-6 -12.834 -14 -24.501
s-17.667 -22 -29 -31s-28.166 -17.167 -50.499 -24.5s-47.5 -11 -75.5 -11c-28.667 0 -54 3.5 -76 10.5s-38.833 15.5 -50.5 25.5s-21.167 20 -28.5 30s-12 18.667 -14 26l-3 10l69 10c0.666992 -1.33301 1.5 -3.33301 2.5 -6s4 -7.5 9 -14.5s10.833 -13 17.5 -18
s16.667 -9.66699 30 -14s28 -6.5 44 -6.5z" />
    <glyph glyph-name="Aogonek" unicode="&#x104;" horiz-adv-x="700" 
d="M681 -208v-42c-122.667 0 -184 39 -184 117c0 50.667 31.333 95 94 133h-107v48l66 2l-59 150h-290l-59 -148l71 -2l-4 -50h-217l-4 60l79 3l228 587h111l228 -591l79 -3l-4 -56h-51l-11 -5.5c-4.66699 -2.33301 -13 -7.5 -25 -15.5s-22.5 -16.833 -31.5 -26.5
s-17.167 -22 -24.5 -37s-11 -30.833 -11 -47.5c0 -50.667 42 -76 126 -76zM346 583l-124 -328h247z" />
    <glyph glyph-name="aogonek" unicode="&#x105;" horiz-adv-x="536" 
d="M476 -208v-41.9971c-122.667 0 -184 39 -184 117c0 51.333 31.667 95.666 95 132.999l-12 64c-3.33301 -6.66699 -8 -13.167 -14 -19.5s-15 -14.5 -27 -24.5s-28.333 -18.167 -49 -24.5s-43.667 -9.5 -69 -9.5c-56.667 0 -100.167 12.5 -130.5 37.5
s-45.5 60.167 -45.5 105.5c0 26 7.16699 48.667 21.5 68s29.833 34.166 46.5 44.499s42.167 19.5 76.5 27.5s60 13.167 77 15.5s44.5 5.16602 82.5 8.49902c13.333 1.33301 23 2.33301 29 3v35c0 44 -8.5 75.667 -25.5 95s-46.167 29 -87.5 29c-43.333 0 -80 -14 -110 -42
l-4 -65h-61l3 157h51l7 -37c42 30.667 87 46 135 46c114.667 0 172 -60.667 172 -182v-273l60 -3l-4 -56h-56l-11 -5.5c-4.66699 -2.33301 -13 -7.5 -25 -15.5s-22.5 -16.833 -31.5 -26.5s-17.167 -22 -24.5 -37s-11 -30.833 -11 -47.5c0 -50.667 42 -76 126 -76z
M240 42.0029c18 0 34.834 2.33398 50.501 7.00098s28.167 10.167 37.5 16.5s17.666 13.5 24.999 21.5s12.166 14.167 14.499 18.5l5.5 10.5v127c-91.333 -6.66699 -151.666 -15.334 -180.999 -26.001c-46.667 -16 -70 -42.667 -70 -80c0 -63.333 39.333 -95 118 -95z" />
    <glyph glyph-name="Cacute" unicode="&#x106;" horiz-adv-x="665" 
d="M593 429l-66.0039 -0.00195312l-6 121c-39.333 30 -83.666 45 -132.999 45c-73.333 0 -132.833 -23.5 -178.5 -70.5s-68.5 -111.833 -68.5 -194.5c0 -84 22.833 -151 68.5 -201s107.167 -75 184.5 -75c42 0 81.167 8.66699 117.5 26s62.5 34.666 78.5 51.999l23 25
l32 -54c-2 -3.33301 -5.16699 -7.66602 -9.5 -12.999s-14.166 -14.666 -29.499 -27.999s-32.166 -25.166 -50.499 -35.499s-42.666 -19.666 -72.999 -27.999s-62.166 -12.5 -95.499 -12.5c-105.333 0 -187 31.167 -245 93.5s-87 145.833 -87 250.5
c0 101.333 30.167 182.166 90.5 242.499s137.166 90.5 230.499 90.5c53.333 0 104 -16.333 152 -49l14 40h51v-225zM399.996 706.998l-57 4l95 143l77 -8z" />
    <glyph glyph-name="cacute" unicode="&#x107;" horiz-adv-x="487" 
d="M458 335h-62l-5 71c-30 32.667 -66 49 -108 49c-56 0 -97 -15.5 -123 -46.5s-39 -81.833 -39 -152.5c0 -70 15.167 -122.667 45.5 -158s72.833 -53 127.5 -53c27.333 0 53.166 5 77.499 15s41.833 20 52.5 30l15 15l36 -40c-1.33301 -2 -3.5 -4.83301 -6.5 -8.5
s-9.83301 -10 -20.5 -19s-22.667 -17 -36 -24s-31.166 -13.333 -53.499 -19s-46.166 -8.5 -71.499 -8.5c-80.667 0 -142.334 23.167 -185.001 69.5s-64 112.833 -64 199.5c0 84.667 20 149 60 193s97.667 66 173 66c42 0 83.333 -16.333 124 -49l11 40h52v-170zM314 572
l-57 4l95 143l77 -8z" />
    <glyph glyph-name="Ccaron" unicode="&#x10c;" horiz-adv-x="665" 
d="M593 429l-66.0039 -0.00195312l-6 121c-39.333 30 -83.666 45 -132.999 45c-73.333 0 -132.833 -23.5 -178.5 -70.5s-68.5 -111.833 -68.5 -194.5c0 -84 22.833 -151 68.5 -201s107.167 -75 184.5 -75c42 0 81.167 8.66699 117.5 26s62.5 34.666 78.5 51.999l23 25
l32 -54c-2 -3.33301 -5.16699 -7.66602 -9.5 -12.999s-14.166 -14.666 -29.499 -27.999s-32.166 -25.166 -50.499 -35.499s-42.666 -19.666 -72.999 -27.999s-62.166 -12.5 -95.499 -12.5c-105.333 0 -187 31.167 -245 93.5s-87 145.833 -87 250.5
c0 101.333 30.167 182.166 90.5 242.499s137.166 90.5 230.499 90.5c53.333 0 104 -16.333 152 -49l14 40h51v-225zM541.996 807.998l-134 -100h-45l-133 100l26 48l129 -96l131 96z" />
    <glyph glyph-name="ccaron" unicode="&#x10d;" horiz-adv-x="487" 
d="M458 335h-62l-5 71c-30 32.667 -66 49 -108 49c-56 0 -97 -15.5 -123 -46.5s-39 -81.833 -39 -152.5c0 -70 15.167 -122.667 45.5 -158s72.833 -53 127.5 -53c27.333 0 53.166 5 77.499 15s41.833 20 52.5 30l15 15l36 -40c-1.33301 -2 -3.5 -4.83301 -6.5 -8.5
s-9.83301 -10 -20.5 -19s-22.667 -17 -36 -24s-31.166 -13.333 -53.499 -19s-46.166 -8.5 -71.499 -8.5c-80.667 0 -142.334 23.167 -185.001 69.5s-64 112.833 -64 199.5c0 84.667 20 149 60 193s97.667 66 173 66c42 0 83.333 -16.333 124 -49l11 40h52v-170zM456 673
l-134 -100h-45l-133 100l26 48l129 -96l131 96z" />
    <glyph glyph-name="Dcaron" unicode="&#x10e;" horiz-adv-x="750" 
d="M46 0l-4 59.999l80 3v528l-81 3l4 56h309c109.333 0 193.5 -26.5 252.5 -79.5s88.5 -132.167 88.5 -237.5s-29.5 -187.166 -88.5 -245.499s-142.833 -87.5 -251.5 -87.5h-309zM354 581.999h-147.999v-514h150c81.333 0 143.666 22.833 186.999 68.5s65 111.167 65 196.5
c0 166 -84.667 249 -254 249zM486.001 807.999l-134 -100h-45l-133 100l26 48l129 -96l131 96z" />
    <glyph glyph-name="dcaron" unicode="&#x10f;" horiz-adv-x="600" 
d="M563 0l-125.999 0.000976562l-8 55c-5.33301 -8 -12.666 -16.333 -21.999 -25s-26.833 -18.167 -52.5 -28.5s-54.834 -15.5 -87.501 -15.5c-68 0 -123.167 24 -165.5 72s-63.5 111 -63.5 189c0 83.333 20.333 148.666 61 195.999s99 71 175 71c32 0 60.667 -4 86 -12
s42.666 -16 51.999 -24l14 -12h1v221l-59 3l4 60h135v-691l60 -3zM291.001 48.001c26.667 0 50.833 5.5 72.5 16.5s36.5 20.833 44.5 29.5s14.333 16.667 19 24v288c-31.333 31.333 -73.333 47 -126 47c-62 0 -107.5 -17.167 -136.5 -51.5s-43.5 -85.166 -43.5 -152.499
c0 -64.667 14.833 -114.334 44.5 -149.001s71.5 -52 125.5 -52zM621 545.001l-47.999 6.99902c11.333 23.333 20.666 53 27.999 89s10 67 8 93l6 35l55 -7c-1.33301 -33.333 -6.83301 -71.666 -16.5 -114.999s-20.5 -77.333 -32.5 -102z" />
    <glyph glyph-name="Dcroat" unicode="&#x110;" horiz-adv-x="750" 
d="M46 0l-4 59.999l80 3v233h-94v54h94v241l-81 3l4 56h309c109.333 0 193.5 -26.5 252.5 -79.5s88.5 -132.167 88.5 -237.5s-29.5 -187.166 -88.5 -245.499s-142.833 -87.5 -251.5 -87.5h-309zM354 581.999h-147.999v-232h212v-54h-212v-228h150
c81.333 0 143.666 22.833 186.999 68.5s65 111.167 65 196.5c0 166 -84.667 249 -254 249z" />
    <glyph glyph-name="dcroat" unicode="&#x111;" horiz-adv-x="600" 
d="M563 0l-126.999 -0.000976562l-7 54c-6 -8 -13.5 -16.167 -22.5 -24.5s-26.5 -17.666 -52.5 -27.999s-55 -15.5 -87 -15.5c-68.667 0 -124 22.333 -166 67s-63 105.667 -63 183c0 84 20.5 151.333 61.5 202s99.167 76 174.5 76c32 0 60.667 -4 86 -12
s42.666 -16 51.999 -24l14 -12h1v150h-141v55h141v79h80v-79h73v-48l-70 -7h-3v-550l60 -2zM291.001 47.999c26.667 0 50.833 5.5 72.5 16.5s36.5 20.833 44.5 29.5s14.333 16.667 19 24v288c-31.333 31.333 -73.333 47 -126 47c-120 0 -180 -71.667 -180 -215
c0 -126.667 56.667 -190 170 -190z" />
    <glyph glyph-name="Emacron" unicode="&#x112;" horiz-adv-x="601" 
d="M533 505h-66l-4 80h-257v-226l296 1v-63h-296v-232h284l8 90l62 -4l-4 -151h-510l-4 60l80 3v528l-81 3l4 56h416l72 4v-149zM437 768h-214v42h214v-42z" />
    <glyph glyph-name="emacron" unicode="&#x113;" horiz-adv-x="518" 
d="M474 235l-356.005 -0.00195312c2.66699 -62 19.334 -108.833 50.001 -140.5s72.334 -47.5 125.001 -47.5c30 0 57.5 5.5 82.5 16.5s42.5 21.833 52.5 32.5l15 17l38 -41c-1.33301 -2 -3.5 -5 -6.5 -9s-10.167 -11 -21.5 -21s-23.666 -18.667 -36.999 -26
s-31.166 -14.166 -53.499 -20.499s-46.166 -9.5 -71.499 -9.5c-78.667 0 -140.5 23 -185.5 69s-67.5 111.333 -67.5 196c0 82.667 21.5 147.167 64.5 193.5s101.167 69.5 174.5 69.5c68 0 119.833 -18.167 155.5 -54.5s53.5 -90.5 53.5 -162.5
c0 -10.667 -1 -21.167 -3 -31.5s-4 -18.166 -6 -23.499zM277.995 454.998c-48 0 -85.332 -14.333 -111.999 -43s-42.334 -69.334 -47.001 -122.001h293c0.666992 8.66699 1 16.334 1 23.001c0 94.667 -45 142 -135 142zM387.996 632.998h-214v42h214v-42z" />
    <glyph glyph-name="Edotaccent" unicode="&#x116;" horiz-adv-x="601" 
d="M533 505h-66l-4 80h-257v-226l296 1v-63h-296v-232h284l8 90l62 -4l-4 -151h-510l-4 60l80 3v528l-81 3l4 56h416l72 4v-149zM362 744c-8.66699 -6.66699 -20.333 -10 -35 -10c-16 0 -28 3.66699 -36 11c-9.33301 7.33301 -14 18.666 -14 33.999
c0 14.667 4.66699 26.334 14 35.001c9.33301 7.33301 21 11 35 11c13.333 0 25.333 -3.66699 36 -11c9.33301 -9.33301 14 -21 14 -35s-4.66699 -25.667 -14 -35z" />
    <glyph glyph-name="edotaccent" unicode="&#x117;" horiz-adv-x="518" 
d="M474 235l-356.005 -0.00195312c2.66699 -62 19.334 -108.833 50.001 -140.5s72.334 -47.5 125.001 -47.5c30 0 57.5 5.5 82.5 16.5s42.5 21.833 52.5 32.5l15 17l38 -41c-1.33301 -2 -3.5 -5 -6.5 -9s-10.167 -11 -21.5 -21s-23.666 -18.667 -36.999 -26
s-31.166 -14.166 -53.499 -20.499s-46.166 -9.5 -71.499 -9.5c-78.667 0 -140.5 23 -185.5 69s-67.5 111.333 -67.5 196c0 82.667 21.5 147.167 64.5 193.5s101.167 69.5 174.5 69.5c68 0 119.833 -18.167 155.5 -54.5s53.5 -90.5 53.5 -162.5
c0 -10.667 -1 -21.167 -3 -31.5s-4 -18.166 -6 -23.499zM277.995 454.998c-48 0 -85.332 -14.333 -111.999 -43s-42.334 -69.334 -47.001 -122.001h293c0.666992 8.66699 1 16.334 1 23.001c0 94.667 -45 142 -135 142zM312.996 608.998
c-8.66699 -6.66699 -20.333 -10 -35 -10c-16 0 -28 3.66699 -36 11c-9.33301 7.33301 -14 18.666 -14 33.999c0 14.667 4.66699 26.334 14 35.001c9.33301 7.33301 21 11 35 11c13.333 0 25.333 -3.66699 36 -11c9.33301 -9.33301 14 -21 14 -35s-4.66699 -25.667 -14 -35z
" />
    <glyph glyph-name="Eogonek" unicode="&#x118;" horiz-adv-x="601" 
d="M577 -208v-42c-122.667 0 -184 39 -184 117c0 50.667 31.333 95 94 133h-441l-4 60l80 3v528l-81 3l4 56h416l72 4v-149h-66l-4 80h-257v-226l296 1v-63h-296v-232h284l8 90l62 -4l-4 -151h-2l-11 -5.5c-4.66699 -2.33301 -13 -7.5 -25 -15.5s-22.5 -16.833 -31.5 -26.5
s-17.167 -22 -24.5 -37s-11 -30.833 -11 -47.5c0 -50.667 42 -76 126 -76z" />
    <glyph glyph-name="eogonek" unicode="&#x119;" horiz-adv-x="518" 
d="M392 -208l-0.000976562 -41.999c-122.667 0 -184 39 -184 117c0 44 24.333 83.667 73 119c-76 2 -135.5 25.833 -178.5 71.5s-64.5 110.167 -64.5 193.5c0 82.667 21.5 147.167 64.5 193.5s101.167 69.5 174.5 69.5c68 0 119.833 -18.167 155.5 -54.5
s53.5 -90.5 53.5 -162.5c0 -10.667 -1 -21.167 -3 -31.5s-4 -18.166 -6 -23.499l-3 -7h-356c2.66699 -62 19.334 -108.833 50.001 -140.5s72.334 -47.5 125.001 -47.5c30 0 57.5 5.5 82.5 16.5s42.5 21.833 52.5 32.5l15 17l38 -41c-1.33301 -1.33301 -3 -3.33301 -5 -6
s-6.83301 -7.83398 -14.5 -15.501s-15.834 -14.667 -24.501 -21s-20.5 -13 -35.5 -20s-30.5 -12.5 -46.5 -16.5c-12.667 -6.66699 -24.667 -14.334 -36 -23.001s-23 -22.5 -35 -41.5s-18 -39.167 -18 -60.5c0 -50.667 42 -76 126 -76zM277.999 455.001
c-48 0 -85.332 -14.333 -111.999 -43s-42.334 -69.334 -47.001 -122.001h293c0.666992 8.66699 1 16.334 1 23.001c0 94.667 -45 142 -135 142z" />
    <glyph glyph-name="Ecaron" unicode="&#x11a;" horiz-adv-x="601" 
d="M533 505h-66l-4 80h-257v-226l296 1v-63h-296v-232h284l8 90l62 -4l-4 -151h-510l-4 60l80 3v528l-81 3l4 56h416l72 4v-149zM483 808l-134 -100h-45l-133 100l26 48l129 -96l131 96z" />
    <glyph glyph-name="ecaron" unicode="&#x11b;" horiz-adv-x="518" 
d="M474 235l-356.005 -0.00195312c2.66699 -62 19.334 -108.833 50.001 -140.5s72.334 -47.5 125.001 -47.5c30 0 57.5 5.5 82.5 16.5s42.5 21.833 52.5 32.5l15 17l38 -41c-1.33301 -2 -3.5 -5 -6.5 -9s-10.167 -11 -21.5 -21s-23.666 -18.667 -36.999 -26
s-31.166 -14.166 -53.499 -20.499s-46.166 -9.5 -71.499 -9.5c-78.667 0 -140.5 23 -185.5 69s-67.5 111.333 -67.5 196c0 82.667 21.5 147.167 64.5 193.5s101.167 69.5 174.5 69.5c68 0 119.833 -18.167 155.5 -54.5s53.5 -90.5 53.5 -162.5
c0 -10.667 -1 -21.167 -3 -31.5s-4 -18.166 -6 -23.499zM277.995 454.998c-48 0 -85.332 -14.333 -111.999 -43s-42.334 -69.334 -47.001 -122.001h293c0.666992 8.66699 1 16.334 1 23.001c0 94.667 -45 142 -135 142zM434.996 672.998l-134 -100h-45l-133 100l26 48
l129 -96l131 96z" />
    <glyph glyph-name="Gbreve" unicode="&#x11e;" horiz-adv-x="723" 
d="M593 459l-62.002 0.000976562l-6 92c-35.333 29.333 -79.666 44 -132.999 44c-83.333 0 -146 -22.333 -188 -67s-63 -109.667 -63 -195c0 -86 21.333 -154 64 -204s100.334 -75 173.001 -75c33.333 0 62.5 4.16699 87.5 12.5s43.833 19 56.5 32s21.667 23.667 27 32
s9.33301 16.5 12 24.5v101h-157v55h228v-311h-50l-11 70c-48 -56 -118.333 -84 -211 -84c-96 0 -170.833 31.333 -224.5 94s-80.5 147 -80.5 253c0 103.333 29.333 184.166 88 242.499s138.667 87.5 240 87.5c50.667 0 100 -16 148 -48l11 39h51v-195zM401.998 764.001
c25.333 0 46.499 5.00195 63.499 15.002s27.833 19.667 32.5 29l6 15l70 -10c-0.666992 -2.66699 -1.66699 -6.33398 -3 -11.001s-6 -12.834 -14 -24.501s-17.667 -22 -29 -31s-28.166 -17.167 -50.499 -24.5s-47.5 -11 -75.5 -11c-28.667 0 -54 3.5 -76 10.5
s-38.833 15.5 -50.5 25.5s-21.167 20 -28.5 30s-12 18.333 -14 25l-3 11l69 10c0.666992 -1.33301 1.5 -3.33301 2.5 -6s4 -7.5 9 -14.5s10.833 -13 17.5 -18s16.667 -9.66699 30 -14s28 -6.5 44 -6.5z" />
    <glyph glyph-name="gbreve" unicode="&#x11f;" horiz-adv-x="532" 
d="M513 439l-62.001 -2.00391c15.333 -25.333 23 -57.666 23 -96.999c0 -58.667 -18.5 -104.5 -55.5 -137.5s-86.5 -49.5 -148.5 -49.5c-2.66699 0 -6 -0.166992 -10 -0.5s-11.167 -1.16602 -21.5 -2.49902s-19.5 -3.16602 -27.5 -5.49902s-15.167 -6.16602 -21.5 -11.499
s-9.5 -11.666 -9.5 -18.999c0 -16 7.66699 -28.667 23 -38s44.333 -15 87 -17c76 -3.33301 132.667 -15.333 170 -36s56 -57 56 -109c0 -54 -20 -97.167 -60 -129.5s-99.333 -48.5 -178 -48.5c-79.333 0 -138.666 15.833 -177.999 47.5s-59 74.167 -59 127.5
c0 62.667 34 105 102 127c-18.667 17.333 -28 41.333 -28 72c0 28 15.333 49.667 46 65c-32.667 15.333 -58 37.166 -76 65.499s-27 61.5 -27 99.5c0 42 11 76.5 33 103.5s48.5 45.5 79.5 55.5s66.833 15 107.5 15c40 0 76 -6.66699 108 -20l123 6zM266.999 -1.00391
c-18.667 1.33301 -33 2.66699 -43 4c-28 -2 -52.667 -10.833 -74 -26.5s-32 -37.5 -32 -65.5c0 -35.333 13.5 -63.333 40.5 -84s67.167 -31 120.5 -31c51.333 0 90.833 10 118.5 30s41.5 47.333 41.5 82c0 34 -13.333 56.833 -40 68.5s-70.667 19.167 -132 22.5z
M272.999 455.997c-92 0 -138 -38.668 -138 -116.001c0 -41.333 11.833 -73.666 35.5 -96.999s56.167 -35 97.5 -35c40.667 0 72.167 11.667 94.5 35s33.5 56 33.5 98s-10.5 71.667 -31.5 89s-51.5 26 -91.5 26zM256.999 628.996c16 0 30.499 2.00195 43.499 6.00195
s23 8.83301 30 14.5s12.833 11.5 17.5 17.5s7.66699 11 9 15l2 6l70 -10c-0.666992 -2.66699 -1.66699 -6.33398 -3 -11.001s-6 -12.834 -14 -24.501s-17.667 -22 -29 -31s-28.166 -17.167 -50.499 -24.5s-47.5 -11 -75.5 -11c-28.667 0 -54 3.5 -76 10.5
s-38.833 15.5 -50.5 25.5s-21.167 20 -28.5 30s-12 18.667 -14 26l-3 10l69 10c0.666992 -1.33301 1.5 -3.33301 2.5 -6s4 -7.5 9 -14.5s10.833 -13 17.5 -18s16.667 -9.66699 30 -14s28 -6.5 44 -6.5z" />
    <glyph glyph-name="Gcommaaccent" unicode="&#x122;" horiz-adv-x="723" 
d="M593 459l-62.002 0.000976562l-6 92c-35.333 29.333 -79.666 44 -132.999 44c-83.333 0 -146 -22.333 -188 -67s-63 -109.667 -63 -195c0 -86 21.333 -154 64 -204s100.334 -75 173.001 -75c33.333 0 62.5 4.16699 87.5 12.5s43.833 19 56.5 32s21.667 23.667 27 32
s9.33301 16.5 12 24.5v101h-157v55h228v-311h-50l-11 70c-48 -56 -118.333 -84 -211 -84c-96 0 -170.833 31.333 -224.5 94s-80.5 147 -80.5 253c0 103.333 29.333 184.166 88 242.499s138.667 87.5 240 87.5c50.667 0 100 -16 148 -48l11 39h51v-195zM329.998 -288.999
l-24.999 22.001c25.333 20 43.666 44.167 54.999 72.5s14.666 54.166 9.99902 77.499c-8.66699 1.33301 -15.667 4 -21 8c-8.66699 6.66699 -13 15.667 -13 27s4.33301 20.333 13 27c7.33301 6 16.333 9 27 9s20 -3 28 -9c2.66699 -2.66699 4.33398 -4.66699 5.00098 -6
c10 -12.667 15 -30 15 -52c0 -30 -8.66699 -61.833 -26 -95.5s-40 -60.5 -68 -80.5z" />
    <glyph glyph-name="gcommaaccent" unicode="&#x123;" horiz-adv-x="532" 
d="M513 439l-62.001 -2.00391c15.333 -25.333 23 -57.666 23 -96.999c0 -58.667 -18.5 -104.5 -55.5 -137.5s-86.5 -49.5 -148.5 -49.5c-2.66699 0 -6 -0.166992 -10 -0.5s-11.167 -1.16602 -21.5 -2.49902s-19.5 -3.16602 -27.5 -5.49902s-15.167 -6.16602 -21.5 -11.499
s-9.5 -11.666 -9.5 -18.999c0 -16 7.66699 -28.667 23 -38s44.333 -15 87 -17c76 -3.33301 132.667 -15.333 170 -36s56 -57 56 -109c0 -54 -20 -97.167 -60 -129.5s-99.333 -48.5 -178 -48.5c-79.333 0 -138.666 15.833 -177.999 47.5s-59 74.167 -59 127.5
c0 62.667 34 105 102 127c-18.667 17.333 -28 41.333 -28 72c0 28 15.333 49.667 46 65c-32.667 15.333 -58 37.166 -76 65.499s-27 61.5 -27 99.5c0 42 11 76.5 33 103.5s48.5 45.5 79.5 55.5s66.833 15 107.5 15c40 0 76 -6.66699 108 -20l123 6zM266.999 -1.00391
c-18.667 1.33301 -33 2.66699 -43 4c-28 -2 -52.667 -10.833 -74 -26.5s-32 -37.5 -32 -65.5c0 -35.333 13.5 -63.333 40.5 -84s67.167 -31 120.5 -31c51.333 0 90.833 10 118.5 30s41.5 47.333 41.5 82c0 34 -13.333 56.833 -40 68.5s-70.667 19.167 -132 22.5z
M272.999 455.997c-92 0 -138 -38.668 -138 -116.001c0 -41.333 11.833 -73.666 35.5 -96.999s56.167 -35 97.5 -35c40.667 0 72.167 11.667 94.5 35s33.5 56 33.5 98s-10.5 71.667 -31.5 89s-51.5 26 -91.5 26zM307.999 818.996l24.999 -22.001
c-25.333 -20 -43.666 -44.167 -54.999 -72.5s-14.666 -54.166 -9.99902 -77.499c8.66699 -1.33301 15.667 -4 21 -8c8.66699 -6.66699 13 -15.667 13 -27s-4.33301 -20.333 -13 -27c-7.33301 -6 -16.333 -9 -27 -9s-20 3 -28 9
c-2.66699 2.66699 -4.33398 4.66699 -5.00098 6c-10 12.667 -15 30 -15 52c0 30 8.66699 61.833 26 95.5s40 60.5 68 80.5z" />
    <glyph glyph-name="uni012A" unicode="&#x12a;" horiz-adv-x="329" 
d="M282 0h-236l-4 60l80 3v528l-81 3l4 56h239v-60l-78 -3v-528l80 -3zM274 768h-214v42h214v-42z" />
    <glyph glyph-name="imacron" unicode="&#x12b;" horiz-adv-x="270" 
d="M233 0h-192l-4 60l60 3v374l-59 3l3 60h136v-441l60 -3zM247 633h-214v42h214v-42z" />
    <glyph glyph-name="Iogonek" unicode="&#x12e;" horiz-adv-x="329" 
d="M229 -208v-42c-122.667 0 -184 39 -184 117c0 50.667 31.333 95 94 133h-93l-4 60l80 3v528l-81 3l4 56h239v-60l-78 -3v-528l80 -3l-4 -56h-76l-11 -5.5c-4.66699 -2.33301 -13 -7.5 -25 -15.5s-22.5 -16.833 -31.5 -26.5s-17.167 -22 -24.5 -37s-11 -30.833 -11 -47.5
c0 -50.667 42 -76 126 -76z" />
    <glyph glyph-name="iogonek" unicode="&#x12f;" horiz-adv-x="270" 
d="M200 -208v-42c-122.667 0 -184 39 -184 117c0 50.667 31.333 95 94 133h-69l-4 60l60 3v374l-59 3l3 60h136v-441l60 -3l-4 -56h-56l-11 -5.5c-4.66699 -2.33301 -13 -7.5 -25 -15.5s-22.5 -16.833 -31.5 -26.5s-17.167 -22 -24.5 -37s-11 -30.833 -11 -47.5
c0 -50.667 42 -76 126 -76zM172 609c-8.66699 -6.66699 -20.333 -10 -35 -10c-16 0 -28 3.66699 -36 11c-9.33301 7.33301 -14 18.666 -14 33.999c0 14.667 4.66699 26.334 14 35.001c9.33301 7.33301 21 11 35 11c13.333 0 25.333 -3.66699 36 -11
c9.33301 -9.33301 14 -21 14 -35s-4.66699 -25.667 -14 -35z" />
    <glyph glyph-name="Idotaccent" unicode="&#x130;" horiz-adv-x="329" 
d="M282 0h-236l-4 60l80 3v528l-81 3l4 56h239v-60l-78 -3v-528l80 -3zM199 744c-8.66699 -6.66699 -20.333 -10 -35 -10c-16 0 -28 3.66699 -36 11c-9.33301 7.33301 -14 18.666 -14 33.999c0 14.667 4.66699 26.334 14 35.001c9.33301 7.33301 21 11 35 11
c13.333 0 25.333 -3.66699 36 -11c9.33301 -9.33301 14 -21 14 -35s-4.66699 -25.667 -14 -35z" />
    <glyph glyph-name="dotlessi" unicode="&#x131;" horiz-adv-x="270" 
d="M233 0h-192l-4 60l60 3v374l-59 3l3 60h136v-441l60 -3z" />
    <glyph glyph-name="Kcommaaccent" unicode="&#x136;" horiz-adv-x="713" 
d="M713 0h-153l-39 34l-221 254l-94 -64v-162l80 -2l-4 -60h-236l-4 60l80 3v528l-81 3l4 56h231v-52l-70 -3v-289l92 62l207 230l-44 2v50h229v-60l-107 -3l-220 -245l245 -281l109 -1zM300 -289l-24.999 22.001c25.333 20 43.666 44.167 54.999 72.5
s14.666 54.166 9.99902 77.499c-8.66699 1.33301 -15.667 4 -21 8c-8.66699 6.66699 -13 15.667 -13 27s4.33301 20.333 13 27c6.66699 6 15.667 9 27 9c10.667 0 20 -3 28 -9c2.66699 -2.66699 4.33398 -4.66699 5.00098 -6c10 -12.667 15 -30 15 -52
c0 -30 -8.66699 -61.833 -26 -95.5s-40 -60.5 -68 -80.5z" />
    <glyph glyph-name="kcommaaccent" unicode="&#x137;" horiz-adv-x="547" 
d="M222 0h-185l-4 60l60 3v624l-59 3l3 60h136v-473l67 33l114 134l-34 2l4 54h192v-60l-92 -9l-131 -148l164 -218l92 -1l-4 -64h-123l-40 42l-156 202l-53 -26v-163l52 -3zM244 -289l-24.999 22.001c25.333 20 43.666 44.167 54.999 72.5s14.666 54.166 9.99902 77.499
c-8.66699 1.33301 -15.667 4 -21 8c-8.66699 6.66699 -13 15.667 -13 27s4.33301 20.333 13 27c7.33301 6 16.333 9 27 9s20 -3 28 -9c2.66699 -2.66699 4.33398 -4.66699 5.00098 -6c10 -12.667 15 -30 15 -52c0 -30 -8.66699 -61.833 -26 -95.5s-40 -60.5 -68 -80.5z" />
    <glyph glyph-name="Lacute" unicode="&#x139;" horiz-adv-x="559" 
d="M46 0l-4 60l80 3v528l-81 3l4 56h239v-60l-78 -3v-522h276l8 94l62 -4l-4 -155h-502zM176 707l-57 4l95 143l77 -8z" />
    <glyph glyph-name="lacute" unicode="&#x13a;" horiz-adv-x="266" 
d="M229 0h-192l-4 60l60 3v624l-59 3l3 60h136v-691l60 -3zM163 797l-57 4l95 143l77 -8z" />
    <glyph glyph-name="Lcommaaccent" unicode="&#x13b;" horiz-adv-x="559" 
d="M46 0l-4 60l80 3v528l-81 3l4 56h239v-60l-78 -3v-522h276l8 94l62 -4l-4 -155h-502zM262 -289l-24.999 22.001c25.333 20 43.666 44.167 54.999 72.5s14.666 54.166 9.99902 77.499c-8.66699 1.33301 -15.667 4 -21 8c-8.66699 6.66699 -13 15.667 -13 27
s4.33301 20.333 13 27c7.33301 6 16.333 9 27 9s20 -3 28 -9c2.66699 -2.66699 4.33398 -4.66699 5.00098 -6c10 -12.667 15 -30 15 -52c0 -30 -8.66699 -61.833 -26 -95.5s-40 -60.5 -68 -80.5z" />
    <glyph glyph-name="lcommaaccent" unicode="&#x13c;" horiz-adv-x="266" 
d="M229 0h-192l-4 60l60 3v624l-59 3l3 60h136v-691l60 -3zM88 -289l-24.999 22c25.333 20 43.666 44.167 54.999 72.5s14.666 54.166 9.99902 77.499c-8.66699 1.33301 -15.667 4 -21 8c-8.66699 6.66699 -13 15.667 -13 27s4.33301 20.333 13 27c7.33301 6 16.333 9 27 9
s20 -3 28 -9c2.66699 -2.66699 4.33398 -4.66699 5.00098 -6c10 -13.333 15 -30.666 15 -51.999c0 -30 -8.66699 -61.833 -26 -95.5s-40 -60.5 -68 -80.5z" />
    <glyph glyph-name="Lcaron" unicode="&#x13d;" horiz-adv-x="559" 
d="M46 0l-4 60l80 3v528l-81 3l4 56h239v-60l-78 -3v-522h276l8 94l62 -4l-4 -155h-502zM324 808l-134 -100h-45l-133 100l26 48l129 -96l131 96z" />
    <glyph glyph-name="lcaron" unicode="&#x13e;" horiz-adv-x="266" 
d="M229 0h-192l-4 60l60 3v624l-59 3l3 60h136v-691l60 -3zM288 545l-47.999 6.99902c11.333 23.333 20.666 53 27.999 89s10 67 8 93l6 35l55 -7c-1.33301 -33.333 -6.83301 -71.666 -16.5 -114.999s-20.5 -77.333 -32.5 -102z" />
    <glyph glyph-name="Lslash" unicode="&#x141;" horiz-adv-x="579" 
d="M60 0l-4 60l80 3v198l-78 -46l-21 35l99 59v282l-81 3l4 56h239v-60l-78 -3v-228l147 87l21 -34l-168 -101v-246h276l8 94l62 -4l-4 -155h-502z" />
    <glyph glyph-name="lslash" unicode="&#x142;" horiz-adv-x="314" 
d="M255 0h-192l-4 60l60 3v253l-83 -53l-22 34l105 67v323l-59 3l3 60h136v-335l90 58l22 -34l-112 -72v-308l60 -3z" />
    <glyph glyph-name="Nacute" unicode="&#x143;" horiz-adv-x="788" 
d="M674 -6h-88l-389 537h-1l4 -31v-440l81 -2l-4 -58h-231l-4 60l80 3v528l-81 3l4 56h165l387 -544l-2 23v461l-81 2l3 58h234v-60l-77 -3v-593zM418 707l-57 4l95 143l77 -8z" />
    <glyph glyph-name="nacute" unicode="&#x144;" horiz-adv-x="607" 
d="M233 0l-191.999 -0.000976562l-4 60l60 3v374l-59 3l3 60h127l7 -44c4.66699 6 11.5 12.333 20.5 19s27.667 14.834 56 24.501s59.833 14.5 94.5 14.5c119.333 0 179 -51.667 179 -155v-300l59 -3l-3 -56h-137v344c0 68 -41.667 102 -125 102
c-28.667 0 -54.834 -4.33301 -78.501 -13s-40.167 -17 -49.5 -25l-14 -13v-336l60 -3zM307.001 571.999l-57 4l95 143l77 -8z" />
    <glyph glyph-name="Ncommaaccent" unicode="&#x145;" horiz-adv-x="788" 
d="M674 -6h-88l-389 537h-1l4 -31v-440l81 -2l-4 -58h-231l-4 60l80 3v528l-81 3l4 56h165l387 -544l-2 23v461l-81 2l3 58h234v-60l-77 -3v-593zM346 -289l-24.999 22.001c25.333 20 43.666 44.167 54.999 72.5s14.666 54.166 9.99902 77.499
c-8.66699 1.33301 -15.667 4 -21 8c-8.66699 6.66699 -13 15.667 -13 27s4.33301 20.333 13 27c7.33301 6 16.333 9 27 9s20 -3 28 -9c2.66699 -2.66699 4.33398 -4.66699 5.00098 -6c10 -12.667 15 -30 15 -52c0 -30 -8.66699 -61.833 -26 -95.5s-40 -60.5 -68 -80.5z" />
    <glyph glyph-name="ncommaaccent" unicode="&#x146;" horiz-adv-x="607" 
d="M233 0l-191.999 -0.000976562l-4 60l60 3v374l-59 3l3 60h127l7 -44c4.66699 6 11.5 12.333 20.5 19s27.667 14.834 56 24.501s59.833 14.5 94.5 14.5c119.333 0 179 -51.667 179 -155v-300l59 -3l-3 -56h-137v344c0 68 -41.667 102 -125 102
c-28.667 0 -54.834 -4.33301 -78.501 -13s-40.167 -17 -49.5 -25l-14 -13v-336l60 -3zM279.001 -289.001l-24.999 22.001c25.333 20 43.666 44.167 54.999 72.5s14.666 54.166 9.99902 77.499c-8.66699 1.33301 -15.667 4 -21 8c-8.66699 6.66699 -13 15.667 -13 27
s4.33301 20.333 13 27c7.33301 6 16.333 9 27 9s20 -3 28 -9c2.66699 -2.66699 4.33398 -4.66699 5.00098 -6c10 -12.667 15 -30 15 -52c0 -30 -8.66699 -61.833 -26 -95.5s-40 -60.5 -68 -80.5z" />
    <glyph glyph-name="Ncaron" unicode="&#x147;" horiz-adv-x="788" 
d="M674 -6h-88l-389 537h-1l4 -31v-440l81 -2l-4 -58h-231l-4 60l80 3v528l-81 3l4 56h165l387 -544l-2 23v461l-81 2l3 58h234v-60l-77 -3v-593zM576 808l-134 -100h-45l-133 100l26 48l129 -96l131 96z" />
    <glyph glyph-name="ncaron" unicode="&#x148;" horiz-adv-x="607" 
d="M233 0l-191.999 -0.000976562l-4 60l60 3v374l-59 3l3 60h127l7 -44c4.66699 6 11.5 12.333 20.5 19s27.667 14.834 56 24.501s59.833 14.5 94.5 14.5c119.333 0 179 -51.667 179 -155v-300l59 -3l-3 -56h-137v344c0 68 -41.667 102 -125 102
c-28.667 0 -54.834 -4.33301 -78.501 -13s-40.167 -17 -49.5 -25l-14 -13v-336l60 -3zM449.001 672.999l-134 -100h-45l-133 100l26 48l129 -96l131 96z" />
    <glyph glyph-name="Omacron" unicode="&#x14c;" horiz-adv-x="761" 
d="M707 334c0 -104.667 -29.1689 -188.832 -87.502 -252.499s-138.166 -95.5 -239.499 -95.5s-180.833 31.667 -238.5 95s-86.5 147.666 -86.5 252.999c0 103.333 28.667 184 86 242s137 87 239 87c102.667 0 182.834 -29 240.501 -87s86.5 -138.667 86.5 -242z
M619.998 334.002c0 82.667 -21.1689 146.834 -63.502 192.501s-101.166 68.5 -176.499 68.5s-134 -22.833 -176 -68.5s-63 -109.834 -63 -192.501c0 -84.667 21.167 -152.5 63.5 -203.5s100.833 -76.5 175.5 -76.5s133.334 25.5 176.001 76.5s64 118.833 64 203.5z
M489.996 768.002h-214v42h214v-42z" />
    <glyph glyph-name="omacron" unicode="&#x14d;" horiz-adv-x="573" 
d="M286 -14c-80 0 -141.333 23.833 -184 71.5s-64 113.167 -64 196.5c0 82.667 21.167 146.667 63.5 192s103.833 68 184.5 68s142.167 -22.667 184.5 -68s63.5 -109.333 63.5 -192s-21.667 -148 -65 -196s-104.333 -72 -183 -72zM286 45c56 0 97.501 18.167 124.501 54.5
s40.5 87.5 40.5 153.5c0 134.667 -55 202 -165 202s-165 -67.333 -165 -202c0 -65.333 13.667 -116.333 41 -153s68.666 -55 123.999 -55zM397.001 633h-214v42h214v-42z" />
    <glyph glyph-name="Ohungarumlaut" unicode="&#x150;" horiz-adv-x="761" 
d="M707 334c0 -104.667 -29.1689 -188.832 -87.502 -252.499s-138.166 -95.5 -239.499 -95.5s-180.833 31.667 -238.5 95s-86.5 147.666 -86.5 252.999c0 103.333 28.667 184 86 242s137 87 239 87c102.667 0 182.834 -29 240.501 -87s86.5 -138.667 86.5 -242z
M619.998 334.002c0 82.667 -21.1689 146.834 -63.502 192.501s-101.166 68.5 -176.499 68.5s-134 -22.833 -176 -68.5s-63 -109.834 -63 -192.501c0 -84.667 21.167 -152.5 63.5 -203.5s100.833 -76.5 175.5 -76.5s133.334 25.5 176.001 76.5s64 118.833 64 203.5z
M332.996 731.002l-59 6l65 145l48 -18zM482.996 731.002l-59 6l64 145l48 -18z" />
    <glyph glyph-name="ohungarumlaut" unicode="&#x151;" horiz-adv-x="573" 
d="M286 -14c-80 0 -141.333 23.833 -184 71.5s-64 113.167 -64 196.5c0 82.667 21.167 146.667 63.5 192s103.833 68 184.5 68s142.167 -22.667 184.5 -68s63.5 -109.333 63.5 -192s-21.667 -148 -65 -196s-104.333 -72 -183 -72zM286 45c56 0 97.501 18.167 124.501 54.5
s40.5 87.5 40.5 153.5c0 134.667 -55 202 -165 202s-165 -67.333 -165 -202c0 -65.333 13.667 -116.333 41 -153s68.666 -55 123.999 -55zM239.001 596l-59 6l65 145l48 -18zM389.001 596l-59 6l64 145l48 -18z" />
    <glyph glyph-name="OE" unicode="&#x152;" horiz-adv-x="1100" 
d="M1031 505l-64.999 0.000976562l-4 80h-257v-206c0 -2 0.166992 -5.33301 0.5 -10s0.5 -8 0.5 -10l295 1v-63h-296v-232h283l8 90l62 -4l-4 -151h-433v83c-58.667 -64.667 -139 -97 -241 -97c-101.333 0 -180.833 31.667 -238.5 95s-86.5 147.666 -86.5 252.999
c0 103.333 28.667 184 86 242s137 87 239 87c103.333 0 183.666 -29.333 240.999 -88v75h338l72 4v-149zM620.001 334.001c0 82.667 -21.1689 146.834 -63.502 192.501s-101.166 68.5 -176.499 68.5s-134 -22.833 -176 -68.5s-63 -109.834 -63 -192.501
c0 -84.667 21.167 -152.5 63.5 -203.5s100.833 -76.5 175.5 -76.5s133.334 25.5 176.001 76.5s64 118.833 64 203.5z" />
    <glyph glyph-name="oe" unicode="&#x153;" horiz-adv-x="932" 
d="M888 235l-355.001 -0.00195312v-13c4.66699 -58 22 -101.667 52 -131s70.667 -44 122 -44c30 0 57.5 5.5 82.5 16.5s42.5 21.833 52.5 32.5l15 17l38 -41c-1.33301 -2 -3.5 -5 -6.5 -9s-10.167 -11 -21.5 -21s-23.666 -18.667 -36.999 -26
s-31.166 -14.166 -53.499 -20.499s-46.166 -9.5 -71.499 -9.5c-98.667 0 -169.334 34.333 -212.001 103c-42.667 -68.667 -111.667 -103 -207 -103c-80 0 -141.333 23.833 -184 71.5s-64 113.167 -64 196.5c0 82.667 21.167 146.667 63.5 192s103.833 68 184.5 68
c97.333 0 166.666 -33 207.999 -99c42 66 107.667 99 197 99c68 0 119.833 -18.167 155.5 -54.5s53.5 -90.5 53.5 -162.5c0 -10.667 -1 -21.167 -3 -31.5s-4 -18.166 -6 -23.499zM285.999 44.998c56 0 97.501 18.167 124.501 54.5s40.5 87.5 40.5 153.5
c0 134.667 -55 202 -165 202s-165 -67.333 -165 -202c0 -65.333 13.667 -116.333 41 -153s68.666 -55 123.999 -55zM692 454.998c-48 0 -85.332 -14.333 -111.999 -43s-42.334 -69.334 -47.001 -122.001h293c0.666992 8.66699 1 16.334 1 23.001c0 94.667 -45 142 -135 142z
" />
    <glyph glyph-name="Racute" unicode="&#x154;" horiz-adv-x="628" 
d="M642 0l-142.999 -0.000976562l-33 33l-144 199h-122v-177l73 -3l-4 -52h-223l-4 60l80 6v525l-81 3l4 56h254c78 0 138 -16 180 -48s63 -80 63 -144c0 -49.333 -12.833 -92.166 -38.5 -128.499s-58.834 -62.833 -99.501 -79.5l142 -189l100 -1zM285.001 588.999
l-84.999 -0.000976562v-294h109c41.333 0 76.166 14.333 104.499 43s42.5 67.334 42.5 116.001c0 90 -57 135 -171 135zM316.002 706.998l-57 4l95 143l77 -8z" />
    <glyph glyph-name="racute" unicode="&#x155;" horiz-adv-x="424" 
d="M241 0h-199.999l-4 60l60 3v374l-64 3l4 60h123l7 -77h1c1.33301 2.66699 3.16602 6 5.49902 10s7.83301 11.167 16.5 21.5s18.167 19.5 28.5 27.5s23.666 15.333 39.999 22s33.5 10 51.5 10c14.667 0 29.334 -1.16699 44.001 -3.5s25.667 -4.5 33 -6.5l11 -4v-148h-58
l-5 95c-16 1.33301 -29.667 2 -41 2c-24 0 -45.667 -6.5 -65 -19.5s-33 -25.833 -41 -38.5l-11 -19v-313l68 -3zM226.001 572l-57 4l95 143l77 -8z" />
    <glyph glyph-name="Rcommaaccent" unicode="&#x156;" horiz-adv-x="628" 
d="M642 0l-142.999 -0.000976562l-33 33l-144 199h-122v-177l73 -3l-4 -52h-223l-4 60l80 6v525l-81 3l4 56h254c78 0 138 -16 180 -48s63 -80 63 -144c0 -49.333 -12.833 -92.166 -38.5 -128.499s-58.834 -62.833 -99.501 -79.5l142 -189l100 -1zM285.001 588.999
l-84.999 -0.000976562v-294h109c41.333 0 76.166 14.333 104.499 43s42.5 67.334 42.5 116.001c0 90 -57 135 -171 135zM280.002 -289.002l-24.999 22.001c25.333 20 43.666 44.167 54.999 72.5s14.666 54.166 9.99902 77.499c-8.66699 1.33301 -15.667 4 -21 8
c-8.66699 6.66699 -13 15.667 -13 27s4.33301 20.333 13 27c7.33301 6 16.333 9 27 9s20 -3 28 -9c2.66699 -2.66699 4.33398 -4.66699 5.00098 -6c10 -12.667 15 -30 15 -52c0 -30 -8.66699 -61.833 -26 -95.5s-40 -60.5 -68 -80.5z" />
    <glyph glyph-name="rcommaaccent" unicode="&#x157;" horiz-adv-x="424" 
d="M241 0h-199.999l-4 60l60 3v374l-64 3l4 60h123l7 -77h1c1.33301 2.66699 3.16602 6 5.49902 10s7.83301 11.167 16.5 21.5s18.167 19.5 28.5 27.5s23.666 15.333 39.999 22s33.5 10 51.5 10c14.667 0 29.334 -1.16699 44.001 -3.5s25.667 -4.5 33 -6.5l11 -4v-148h-58
l-5 95c-16 1.33301 -29.667 2 -41 2c-24 0 -45.667 -6.5 -65 -19.5s-33 -25.833 -41 -38.5l-11 -19v-313l68 -3zM89.001 -289l-24.999 22c25.333 20 43.666 44.167 54.999 72.5s14.666 54.166 9.99902 77.499c-8.66699 1.33301 -15.667 4 -21 8
c-8.66699 6.66699 -13 15.667 -13 27s4.33301 20.333 13 27c6.66699 6 15.667 9 27 9c10.667 0 20 -3 28 -9c2.66699 -2.66699 4.33398 -4.66699 5.00098 -6c10 -13.333 15 -30.666 15 -51.999c0 -30 -8.66699 -61.833 -26 -95.5s-40 -60.5 -68 -80.5z" />
    <glyph glyph-name="Rcaron" unicode="&#x158;" horiz-adv-x="628" 
d="M642 0l-142.999 -0.000976562l-33 33l-144 199h-122v-177l73 -3l-4 -52h-223l-4 60l80 6v525l-81 3l4 56h254c78 0 138 -16 180 -48s63 -80 63 -144c0 -49.333 -12.833 -92.166 -38.5 -128.499s-58.834 -62.833 -99.501 -79.5l142 -189l100 -1zM285.001 588.999
l-84.999 -0.000976562v-294h109c41.333 0 76.166 14.333 104.499 43s42.5 67.334 42.5 116.001c0 90 -57 135 -171 135zM458.002 807.998l-134 -100h-45l-133 100l26 48l129 -96l131 96z" />
    <glyph glyph-name="rcaron" unicode="&#x159;" horiz-adv-x="424" 
d="M241 0h-199.999l-4 60l60 3v374l-64 3l4 60h123l7 -77h1c1.33301 2.66699 3.16602 6 5.49902 10s7.83301 11.167 16.5 21.5s18.167 19.5 28.5 27.5s23.666 15.333 39.999 22s33.5 10 51.5 10c14.667 0 29.334 -1.16699 44.001 -3.5s25.667 -4.5 33 -6.5l11 -4v-148h-58
l-5 95c-16 1.33301 -29.667 2 -41 2c-24 0 -45.667 -6.5 -65 -19.5s-33 -25.833 -41 -38.5l-11 -19v-313l68 -3zM368.001 673l-134 -100h-45l-133 100l26 48l129 -96l131 96z" />
    <glyph glyph-name="Sacute" unicode="&#x15a;" horiz-adv-x="580" 
d="M497 501l-64.998 -0.000976562l-5 55c-34 30 -74.333 45 -121 45c-45.333 0 -80.333 -10 -105 -30s-37 -48 -37 -84c0 -30 12.5 -54.5 37.5 -73.5s55.333 -33.833 91 -44.5s71.5 -22 107.5 -34s66.5 -30.5 91.5 -55.5s37.5 -57.167 37.5 -96.5
c0 -60 -20.667 -107.833 -62 -143.5s-99.333 -53.5 -174 -53.5c-42.667 0 -82.334 3.33301 -119.001 10s-62.667 13.334 -78 20.001l-23 10l-2 143l62 4l7 -101c46.667 -16 95 -24 145 -24c53.333 0 93.666 11.833 120.999 35.5s41 53.834 41 90.501
c0 28.667 -12.5 51.667 -37.5 69s-55.5 31.166 -91.5 41.499s-72 21.666 -108 33.999s-66.5 31.833 -91.5 58.5s-37.5 61 -37.5 103c0 54.667 18.833 98.834 56.5 132.501s89.167 50.5 154.5 50.5c48.667 0 96 -16.333 142 -49l13 40h50v-153zM325.002 706.999l-57 4l95 143
l77 -8z" />
    <glyph glyph-name="sacute" unicode="&#x15b;" horiz-adv-x="469" 
d="M409 367h-54.002l-6 49c-31.333 27.333 -66.333 41 -105 41c-31.333 0 -56.666 -6.33301 -75.999 -19s-29 -30 -29 -52c0 -22.667 10.167 -41.167 30.5 -55.5s45.166 -25.833 74.499 -34.5s58.5 -18 87.5 -28s53.667 -25.333 74 -46s30.5 -46.667 30.5 -78
c0 -46 -17.5 -83.833 -52.5 -113.5s-89.167 -44.5 -162.5 -44.5c-31.333 0 -60.666 2.16699 -87.999 6.5s-47 8.83301 -59 13.5l-18 6l-7 127l50 4l6 -83c38 -11.333 76 -17 114 -17c44.667 0 78.334 8.83301 101.001 26.5s34 39.5 34 65.5c0 22.667 -10.167 41 -30.5 55
s-44.833 25 -73.5 33s-57.5 16.833 -86.5 26.5s-53.667 25 -74 46s-30.5 48.167 -30.5 81.5c0 41.333 16.333 74.5 49 99.5s74 37.5 124 37.5c44 0 85.667 -14.333 125 -43l11 34h41v-138zM260.998 572l-57 4l95 143l77 -8z" />
    <glyph glyph-name="Scedilla" unicode="&#x15e;" horiz-adv-x="580" 
d="M184 -215l12 31.002c20.667 -19.333 47 -29 79 -29c48 0 72 20.333 72 61c0 16 -8.16699 28.667 -24.5 38s-32.666 15.5 -48.999 18.5s-24.5 4.83301 -24.5 5.5l11 77c-36.667 1.33301 -70.5 5.33301 -101.5 12s-53.167 13 -66.5 19l-19 8l-2 143l62 4l7 -101
c46.667 -16 95 -24 145 -24c53.333 0 93.666 11.833 120.999 35.5s41 53.834 41 90.501c0 28.667 -12.5 51.667 -37.5 69s-55.5 31.166 -91.5 41.499s-72 21.666 -108 33.999s-66.5 31.833 -91.5 58.5s-37.5 61 -37.5 103c0 54.667 18.833 98.834 56.5 132.501
s89.167 50.5 154.5 50.5c48.667 0 96 -16.333 142 -49l13 40h50v-153h-65l-5 55c-34 30 -74.333 45 -121 45c-45.333 0 -80.333 -10 -105 -30s-37 -48 -37 -84c0 -30 12.5 -54.5 37.5 -73.5s55.333 -33.833 91 -44.5s71.5 -22 107.5 -34s66.5 -30.5 91.5 -55.5
s37.5 -57.167 37.5 -96.5c0 -58.667 -20 -105.834 -60 -141.501s-96 -54.167 -168 -55.5l-7 -54c0 -0.666992 9 -2.83398 27 -6.50098s36 -12 54 -25s27 -30.833 27 -53.5c0 -30.667 -9.33301 -54.667 -28 -72s-46 -26 -82 -26c-22.667 0 -43 3 -61 9s-30.333 12 -37 18z
" />
    <glyph glyph-name="scedilla" unicode="&#x15f;" horiz-adv-x="469" 
d="M129 -215l11.998 31.001c20.667 -19.333 47 -29 79 -29c48 0 72 20.333 72 61c0 16 -8.16699 28.667 -24.5 38s-32.666 15.5 -48.999 18.5s-24.5 4.83301 -24.5 5.5l11 76c-28 0.666992 -54.5 3.16699 -79.5 7.5s-42.833 8.5 -53.5 12.5l-16 6l-7 127l50 4l6 -83
c38 -11.333 76 -17 114 -17c44.667 0 78.334 8.83301 101.001 26.5s34 39.5 34 65.5c0 22.667 -10.167 41 -30.5 55s-44.833 25 -73.5 33s-57.5 16.833 -86.5 26.5s-53.667 25 -74 46s-30.5 48.167 -30.5 81.5c0 41.333 16.333 74.5 49 99.5s74 37.5 124 37.5
c44 0 85.667 -14.333 125 -43l11 34h41v-138h-54l-6 49c-31.333 27.333 -66.333 41 -105 41c-31.333 0 -56.666 -6.33301 -75.999 -19s-29 -30 -29 -52c0 -22.667 10.167 -41.167 30.5 -55.5s45.166 -25.833 74.499 -34.5s58.5 -18 87.5 -28s53.667 -25.333 74 -46
s30.5 -46.667 30.5 -78c0 -43.333 -15.667 -79.5 -47 -108.5s-79 -45.167 -143 -48.5l-7 -55c0 -0.666992 9 -2.83398 27 -6.50098s36 -12 54 -25s27 -30.833 27 -53.5c0 -30.667 -9.33301 -54.667 -28 -72s-46 -26 -82 -26c-22.667 0 -43 3 -61 9s-30.333 12 -37 18z" />
    <glyph glyph-name="Scaron" unicode="&#x160;" horiz-adv-x="580" 
d="M497 501l-64.998 -0.000976562l-5 55c-34 30 -74.333 45 -121 45c-45.333 0 -80.333 -10 -105 -30s-37 -48 -37 -84c0 -30 12.5 -54.5 37.5 -73.5s55.333 -33.833 91 -44.5s71.5 -22 107.5 -34s66.5 -30.5 91.5 -55.5s37.5 -57.167 37.5 -96.5
c0 -60 -20.667 -107.833 -62 -143.5s-99.333 -53.5 -174 -53.5c-42.667 0 -82.334 3.33301 -119.001 10s-62.667 13.334 -78 20.001l-23 10l-2 143l62 4l7 -101c46.667 -16 95 -24 145 -24c53.333 0 93.666 11.833 120.999 35.5s41 53.834 41 90.501
c0 28.667 -12.5 51.667 -37.5 69s-55.5 31.166 -91.5 41.499s-72 21.666 -108 33.999s-66.5 31.833 -91.5 58.5s-37.5 61 -37.5 103c0 54.667 18.833 98.834 56.5 132.501s89.167 50.5 154.5 50.5c48.667 0 96 -16.333 142 -49l13 40h50v-153zM467.002 807.999l-134 -100
h-45l-133 100l26 48l129 -96l131 96z" />
    <glyph glyph-name="scaron" unicode="&#x161;" horiz-adv-x="469" 
d="M409 367h-54.002l-6 49c-31.333 27.333 -66.333 41 -105 41c-31.333 0 -56.666 -6.33301 -75.999 -19s-29 -30 -29 -52c0 -22.667 10.167 -41.167 30.5 -55.5s45.166 -25.833 74.499 -34.5s58.5 -18 87.5 -28s53.667 -25.333 74 -46s30.5 -46.667 30.5 -78
c0 -46 -17.5 -83.833 -52.5 -113.5s-89.167 -44.5 -162.5 -44.5c-31.333 0 -60.666 2.16699 -87.999 6.5s-47 8.83301 -59 13.5l-18 6l-7 127l50 4l6 -83c38 -11.333 76 -17 114 -17c44.667 0 78.334 8.83301 101.001 26.5s34 39.5 34 65.5c0 22.667 -10.167 41 -30.5 55
s-44.833 25 -73.5 33s-57.5 16.833 -86.5 26.5s-53.667 25 -74 46s-30.5 48.167 -30.5 81.5c0 41.333 16.333 74.5 49 99.5s74 37.5 124 37.5c44 0 85.667 -14.333 125 -43l11 34h41v-138zM392.998 673l-134 -100h-45l-133 100l26 48l129 -96l131 96z" />
    <glyph glyph-name="Tcommaaccent" unicode="&#x162;" horiz-adv-x="540" 
d="M60 494h-62l4 160l72 -4h396l72 4v-160h-62l-6 91h-162v-523l80 -2l-4 -60h-236l-4 60l80 3v522h-160zM226 -289l-24.999 22.001c25.333 20 43.666 44.167 54.999 72.5s14.666 54.166 9.99902 77.499c-8.66699 1.33301 -15.667 4 -21 8
c-8.66699 6.66699 -13 15.667 -13 27s4.33301 20.333 13 27c7.33301 6 16.333 9 27 9s20 -3 28 -9c2.66699 -2.66699 4.33398 -4.66699 5.00098 -6c10 -12.667 15 -30 15 -52c0 -30 -8.66699 -61.833 -26 -95.5s-40 -60.5 -68 -80.5z" />
    <glyph glyph-name="tcommaaccent" unicode="&#x163;" horiz-adv-x="366" 
d="M333 437l-152 0.000976562v-285c0 -34.667 5.16699 -59.834 15.5 -75.501s27.5 -23.5 51.5 -23.5l77 8v-54c-29.333 -10 -63.333 -15 -102 -15c-42 0 -72.833 11 -92.5 33s-29.5 58.333 -29.5 109v303h-61v60l61 2l9 151h71v-150h152v-63zM143 -288.999l-24.999 22
c25.333 20 43.666 44.167 54.999 72.5s14.666 54.166 9.99902 77.499c-8.66699 1.33301 -15.667 4 -21 8c-8.66699 6.66699 -13 15.667 -13 27s4.33301 20.333 13 27c7.33301 6 16.333 9 27 9s20 -3 28 -9c2.66699 -2.66699 4.33398 -4.66699 5.00098 -6
c10 -13.333 15 -30.666 15 -51.999c0 -30 -8.66699 -61.833 -26 -95.5s-40 -60.5 -68 -80.5z" />
    <glyph glyph-name="Tcaron" unicode="&#x164;" horiz-adv-x="540" 
d="M60 494h-62l4 160l72 -4h396l72 4v-160h-62l-6 91h-162v-523l80 -2l-4 -60h-236l-4 60l80 3v522h-160zM426 808l-134 -100h-45l-133 100l26 48l129 -96l131 96z" />
    <glyph glyph-name="tcaron" unicode="&#x165;" horiz-adv-x="366" 
d="M333 437l-152 0.000976562v-285c0 -34.667 5.16699 -59.834 15.5 -75.501s27.5 -23.5 51.5 -23.5l77 8v-54c-29.333 -10 -63.333 -15 -102 -15c-42 0 -72.833 11 -92.5 33s-29.5 58.333 -29.5 109v303h-61v60l61 2l9 151h71v-150h152v-63zM328 545.001l-47.999 6.99902
c11.333 23.333 20.666 53 27.999 89s10 67 8 93l6 35l55 -7c-1.33301 -33.333 -6.83301 -71.666 -16.5 -114.999s-20.5 -77.333 -32.5 -102z" />
    <glyph glyph-name="Umacron" unicode="&#x16a;" horiz-adv-x="742" 
d="M266 594l-78.001 -3v-352c0 -52.667 15.833 -95.834 47.5 -129.501s77.167 -50.5 136.5 -50.5c60 0 105.833 16.833 137.5 50.5s47.5 76.834 47.5 129.501v351l-82 2l3 58h237v-56l-77 -3v-369c0 -68 -22.5 -124.333 -67.5 -169s-111.5 -67 -199.5 -67
c-87.333 0 -153.666 22.5 -198.999 67.5s-68 101.167 -68 168.5v369l-81 3l4 56h239v-56zM473.999 768h-214v42h214v-42z" />
    <glyph glyph-name="umacron" unicode="&#x16b;" horiz-adv-x="603" 
d="M430 105l0.000976562 332l-59 3l4 60h136v-441l59 -3l-3 -56h-127l-7 45c-39.333 -39.333 -96.666 -59 -171.999 -59c-55.333 0 -98.833 15.5 -130.5 46.5s-47.5 73.833 -47.5 128.5v276l-59 3l4 60h135v-324c0 -36.667 11.167 -66 33.5 -88s53.166 -33 92.499 -33
c28.667 0 54.667 4.16699 78 12.5s39.666 16.5 48.999 24.5zM408.001 633h-214v42h214v-42z" />
    <glyph glyph-name="Uring" unicode="&#x16e;" horiz-adv-x="742" 
d="M266 594l-78.001 -3v-352c0 -52.667 15.833 -95.834 47.5 -129.501s77.167 -50.5 136.5 -50.5c60 0 105.833 16.833 137.5 50.5s47.5 76.834 47.5 129.501v351l-82 2l3 58h237v-56l-77 -3v-369c0 -68 -22.5 -124.333 -67.5 -169s-111.5 -67 -199.5 -67
c-87.333 0 -153.666 22.5 -198.999 67.5s-68 101.167 -68 168.5v369l-81 3l4 56h239v-56zM363.999 722c-30.667 0 -55.332 9.5 -73.999 28.5s-28 43.833 -28 74.5c0 30 9.66699 54.833 29 74.5s43.666 29.5 72.999 29.5c28.667 0 52.667 -9.83301 72 -29.5
s29 -44.5 29 -74.5c0 -30.667 -9.5 -55.5 -28.5 -74.5s-43.167 -28.5 -72.5 -28.5zM364.001 758c18 0 32.999 6.16699 44.999 18.5s18 28.5 18 48.5s-6.16699 36.333 -18.5 49s-27.166 19 -44.499 19c-18 0 -33.167 -6.33301 -45.5 -19s-18.5 -29 -18.5 -49
s6.16699 -36.167 18.5 -48.5s27.5 -18.5 45.5 -18.5z" />
    <glyph glyph-name="uring" unicode="&#x16f;" horiz-adv-x="603" 
d="M430 105l0.000976562 332l-59 3l4 60h136v-441l59 -3l-3 -56h-127l-7 45c-39.333 -39.333 -96.666 -59 -171.999 -59c-55.333 0 -98.833 15.5 -130.5 46.5s-47.5 73.833 -47.5 128.5v276l-59 3l4 60h135v-324c0 -36.667 11.167 -66 33.5 -88s53.166 -33 92.499 -33
c28.667 0 54.667 4.16699 78 12.5s39.666 16.5 48.999 24.5zM297.001 587c-30.667 0 -55.332 9.5 -73.999 28.5s-28 43.833 -28 74.5c0 30 9.66699 54.833 29 74.5s43.666 29.5 72.999 29.5c28.667 0 52.667 -9.83301 72 -29.5s29 -44.5 29 -74.5
c0 -30.667 -9.5 -55.5 -28.5 -74.5s-43.167 -28.5 -72.5 -28.5zM297.003 623c18 0 32.999 6.16699 44.999 18.5s18 28.5 18 48.5s-6.16699 36.333 -18.5 49s-27.166 19 -44.499 19c-18 0 -33.167 -6.33301 -45.5 -19s-18.5 -29 -18.5 -49s6.16699 -36.167 18.5 -48.5
s27.5 -18.5 45.5 -18.5z" />
    <glyph glyph-name="Uhungarumlaut" unicode="&#x170;" horiz-adv-x="742" 
d="M266 594l-78.001 -3v-352c0 -52.667 15.833 -95.834 47.5 -129.501s77.167 -50.5 136.5 -50.5c60 0 105.833 16.833 137.5 50.5s47.5 76.834 47.5 129.501v351l-82 2l3 58h237v-56l-77 -3v-369c0 -68 -22.5 -124.333 -67.5 -169s-111.5 -67 -199.5 -67
c-87.333 0 -153.666 22.5 -198.999 67.5s-68 101.167 -68 168.5v369l-81 3l4 56h239v-56zM308.999 731l-59 6l65 145l48 -18zM458.999 731l-59 6l64 145l48 -18z" />
    <glyph glyph-name="uhungarumlaut" unicode="&#x171;" horiz-adv-x="603" 
d="M430 105l0.000976562 332l-59 3l4 60h136v-441l59 -3l-3 -56h-127l-7 45c-39.333 -39.333 -96.666 -59 -171.999 -59c-55.333 0 -98.833 15.5 -130.5 46.5s-47.5 73.833 -47.5 128.5v276l-59 3l4 60h135v-324c0 -36.667 11.167 -66 33.5 -88s53.166 -33 92.499 -33
c28.667 0 54.667 4.16699 78 12.5s39.666 16.5 48.999 24.5zM250.001 596l-59 6l65 145l48 -18zM400.001 596l-59 6l64 145l48 -18z" />
    <glyph glyph-name="Uogonek" unicode="&#x172;" horiz-adv-x="742" 
d="M479 -208l0.000976562 -42.001c-122.667 0 -184 39 -184 117c0 44 24.333 83.667 73 119c-86.667 0.666992 -152.334 23.334 -197.001 68.001s-67 100.667 -67 168v369l-81 3l4 56h239v-56l-78 -3v-352c0 -52.667 15.833 -95.834 47.5 -129.501s77.167 -50.5 136.5 -50.5
c60 0 105.833 16.833 137.5 50.5s47.5 76.834 47.5 129.501v351l-82 2l3 58h237v-56l-77 -3v-369c0 -58 -16.833 -108.167 -50.5 -150.5s-83.167 -68.833 -148.5 -79.5c-57.333 -32.667 -86 -74 -86 -124c0 -50.667 42 -76 126 -76z" />
    <glyph glyph-name="uogonek" unicode="&#x173;" horiz-adv-x="603" 
d="M532 -208l0.000976562 -42c-122.667 0 -184 39 -184 117c0 50.667 31.333 95 94 133h-2l-7 45c-39.333 -39.333 -96.666 -59 -171.999 -59c-55.333 0 -98.833 15.5 -130.5 46.5s-47.5 73.833 -47.5 128.5v276l-59 3l4 60h135v-324c0 -36.667 11.167 -66 33.5 -88
s53.166 -33 92.499 -33c28.667 0 54.667 4.16699 78 12.5s39.666 16.5 48.999 24.5l14 13v332l-59 3l4 60h136v-441l59 -3l-3 -56h-58l-11 -5.5c-4.66699 -2.33301 -13 -7.5 -25 -15.5s-22.5 -16.833 -31.5 -26.5s-17.167 -22 -24.5 -37s-11 -30.833 -11 -47.5
c0 -50.667 42 -76 126 -76z" />
    <glyph glyph-name="Ydieresis" unicode="&#x178;" horiz-adv-x="637" 
d="M441 0h-236l-4 60l79 3v206l-220 322l-93 3l3 56h237v-56l-52 -2l170 -253l168 252l-51 1v58h228v-60l-92 -2l-213 -318v-208l80 -2zM457 749c-8.66699 -6.66699 -18.667 -10 -30 -10c-12.667 0 -22.667 3.33301 -30 10c-8.66699 8 -13 18 -13 30
c0 12.667 4.33301 23 13 31c8.66699 6.66699 18.667 10 30 10c10 0 20 -3.33301 30 -10c8.66699 -8.66699 13 -19 13 -31c0 -11.333 -4.33301 -21.333 -13 -30zM279 749c-7.33301 -6.66699 -17.334 -10 -30.001 -10c-12 0 -21.667 3.33301 -29 10c-8.66699 8 -13 18 -13 30
c0 12.667 4.33301 23 13 31c8.66699 6.66699 18.334 10 29.001 10c11.333 0 21.333 -3.33301 30 -10c8.66699 -8.66699 13 -19 13 -31c0 -11.333 -4.33301 -21.333 -13 -30z" />
    <glyph glyph-name="Zacute" unicode="&#x179;" horiz-adv-x="608" 
d="M559 593l-407 -528h345l8 90l62 -4l-4 -151h-518v57l407 528h-331l-6 -80h-65l3 145v4l73 -4h433v-57zM336 707l-57 4l95 143l77 -8z" />
    <glyph glyph-name="zacute" unicode="&#x17a;" horiz-adv-x="482" 
d="M436 446l-297 -385h235l7 90l58 -4l-4 -147h-395v54l296 385h-213l-6 -80h-57l3 141v4l65 -4h308v-54zM274 572l-57 4l95 143l77 -8z" />
    <glyph glyph-name="Zdotaccent" unicode="&#x17b;" horiz-adv-x="608" 
d="M559 593l-407 -528h345l8 90l62 -4l-4 -151h-518v57l407 528h-331l-6 -80h-65l3 145v4l73 -4h433v-57zM349 744c-8.66699 -6.66699 -20.333 -10 -35 -10c-16 0 -28 3.66699 -36 11c-9.33301 7.33301 -14 18.666 -14 33.999c0 14.667 4.66699 26.334 14 35.001
c9.33301 7.33301 21 11 35 11c13.333 0 25.333 -3.66699 36 -11c9.33301 -9.33301 14 -21 14 -35s-4.66699 -25.667 -14 -35z" />
    <glyph glyph-name="zdotaccent" unicode="&#x17c;" horiz-adv-x="482" 
d="M436 446l-297 -385h235l7 90l58 -4l-4 -147h-395v54l296 385h-213l-6 -80h-57l3 141v4l65 -4h308v-54zM295 609c-8.66699 -6.66699 -20.333 -10 -35 -10c-16 0 -28 3.66699 -36 11c-9.33301 7.33301 -14 18.666 -14 33.999c0 14.667 4.66699 26.334 14 35.001
c9.33301 7.33301 21 11 35 11c13.333 0 25.333 -3.66699 36 -11c9.33301 -9.33301 14 -21 14 -35s-4.66699 -25.667 -14 -35z" />
    <glyph glyph-name="Zcaron" unicode="&#x17d;" horiz-adv-x="608" 
d="M559 593l-407 -528h345l8 90l62 -4l-4 -151h-518v57l407 528h-331l-6 -80h-65l3 145v4l73 -4h433v-57zM478 808l-134 -100h-45l-133 100l26 48l129 -96l131 96z" />
    <glyph glyph-name="zcaron" unicode="&#x17e;" horiz-adv-x="482" 
d="M436 446l-297 -385h235l7 90l58 -4l-4 -147h-395v54l296 385h-213l-6 -80h-57l3 141v4l65 -4h308v-54zM416 673l-134 -100h-45l-133 100l26 48l129 -96l131 96z" />
    <glyph glyph-name="longs" unicode="&#x17f;" horiz-adv-x="274" 
d="M387 614h-57.001l-5 56c-18 22 -40.667 33 -68 33c-31.333 0 -53.166 -9.33301 -65.499 -28s-18.5 -52.667 -18.5 -102v-515l60 -2l-4 -56h-192l-4 60l60 3v518c0 62 11.667 107.833 35 137.5s59 44.5 107 44.5c32 0 64 -12.333 96 -37l9 28h47v-140z" />
    <glyph glyph-name="florin" unicode="&#x192;" horiz-adv-x="364" 
d="M397 614l-58 0.00195312l-5 63c-17.333 17.333 -36.666 26 -57.999 26c-30.667 0 -52.167 -9.33301 -64.5 -28s-18.5 -52.667 -18.5 -102v-73h171v-63h-171v-482c0 -74.667 -15.333 -129.834 -46 -165.501s-67.667 -53.5 -111 -53.5c-20.667 0 -38.5 1.5 -53.5 4.5
s-24.5 6.16699 -28.5 9.5l-7 4l21 64c15.333 -6.66699 35 -10 59 -10s44.333 12.167 61 36.5s25 61.166 25 110.499v482h-61v60l61 3v81c0 63.333 10.667 109.5 32 138.5s55.666 43.5 102.999 43.5c26.667 0 56.667 -11.333 90 -34l5 25h54v-140z" />
    <glyph glyph-name="dotlessj" unicode="&#x237;" horiz-adv-x="266" 
d="M-65 -246l21 64c15.333 -6.66699 35 -10 59 -10c23.333 0 43.5 13.667 60.5 41s25.5 66 25.5 116v472l-58 3l4 60h134v-535c0 -74.667 -15.5 -131.5 -46.5 -170.5s-67.833 -58.5 -110.5 -58.5c-20.667 0 -38.5 1.5 -53.5 4.5s-24.5 6.16699 -28.5 9.5z" />
    <glyph glyph-name="circumflex" unicode="&#x2c6;" horiz-adv-x="388" 
d="M323 594l-130 95l-129 -95l-27 48l134 101h45l133 -101z" />
    <glyph glyph-name="caron" unicode="&#x2c7;" horiz-adv-x="388" 
d="M350 673l-134 -100h-45l-133 100l26 48l129 -96l131 96z" />
    <glyph glyph-name="breve" unicode="&#x2d8;" horiz-adv-x="408" 
d="M204 629c16 0 30.499 2.00195 43.499 6.00195s23 8.83301 30 14.5s12.833 11.5 17.5 17.5s7.66699 11 9 15l2 6l70 -10c-0.666992 -2.66699 -1.66699 -6.33398 -3 -11.001s-6 -12.834 -14 -24.501s-17.667 -22 -29 -31s-28.166 -17.167 -50.499 -24.5
s-47.5 -11 -75.5 -11c-28.667 0 -54 3.5 -76 10.5s-38.833 15.5 -50.5 25.5s-21.167 20 -28.5 30s-12 18.667 -14 26l-3 10l69 10c0.666992 -1.33301 1.5 -3.33301 2.5 -6s4 -7.5 9 -14.5s10.833 -13 17.5 -18s16.667 -9.66699 30 -14s28 -6.5 44 -6.5z" />
    <glyph glyph-name="dotaccent" unicode="&#x2d9;" horiz-adv-x="420" 
d="M280 609c-8.66699 -6.66699 -20.333 -10 -35 -10c-16 0 -28 3.66699 -36 11c-9.33301 7.33301 -14 18.666 -14 33.999c0 14.667 4.66699 26.334 14 35.001c9.33301 7.33301 21 11 35 11c13.333 0 25.333 -3.66699 36 -11c9.33301 -9.33301 14 -21 14 -35
s-4.66699 -25.667 -14 -35z" />
    <glyph glyph-name="ring" unicode="&#x2da;" horiz-adv-x="475" 
d="M177 587c-30.667 0 -55.332 9.5 -73.999 28.5s-28 43.833 -28 74.5c0 30 9.66699 54.833 29 74.5s43.666 29.5 72.999 29.5c28.667 0 52.667 -9.83301 72 -29.5s29 -44.5 29 -74.5c0 -30.667 -9.5 -55.5 -28.5 -74.5s-43.167 -28.5 -72.5 -28.5zM177.002 623
c18 0 32.999 6.16699 44.999 18.5s18 28.5 18 48.5s-6.16699 36.333 -18.5 49s-27.166 19 -44.499 19c-18 0 -33.167 -6.33301 -45.5 -19s-18.5 -29 -18.5 -49s6.16699 -36.167 18.5 -48.5s27.5 -18.5 45.5 -18.5z" />
    <glyph glyph-name="ogonek" unicode="&#x2db;" horiz-adv-x="269" 
d="M222 -208l-0.000976562 -42c-122.667 0 -184 39 -184 117c0 19.333 4.83301 37.833 14.5 55.5s21.334 32.5 35.001 44.5s27.5 22.5 41.5 31.5s25.667 15.5 35 19.5l15 6l20 -24l-11 -5.5c-4.66699 -2.33301 -13 -7.5 -25 -15.5s-22.5 -16.833 -31.5 -26.5
s-17.167 -22 -24.5 -37s-11 -30.833 -11 -47.5c0 -50.667 42 -76 126 -76z" />
    <glyph glyph-name="tilde" unicode="&#x2dc;" horiz-adv-x="458" 
d="M395 672l10 -41.999c-1.33301 -2.66699 -3.33301 -6.16699 -6 -10.5s-11 -10 -25 -17s-31 -10.5 -51 -10.5c-23.333 0 -54.333 8.16699 -93 24.5s-68.334 24.5 -89.001 24.5c-14 0 -27.5 -2.83301 -40.5 -8.5s-22.5 -11.167 -28.5 -16.5l-9 -8l-10 47
c1.33301 3.33301 4 7.66602 8 12.999s14 12.333 30 21s34.667 13 56 13c25.333 0 57.333 -8.5 96 -25.5s67.334 -25.5 86.001 -25.5c13.333 0 25.5 1.83301 36.5 5.5s18.5 7.16699 22.5 10.5z" />
    <glyph glyph-name="hungarumlaut" unicode="&#x2dd;" horiz-adv-x="431" 
d="M130 596l-59 6l65 145l48 -18zM280 596l-59 6l64 145l48 -18z" />
    <glyph glyph-name="tonos" unicode="&#x384;" horiz-adv-x="237" 
d="M126 561l-40 12l64 188l53 -16z" />
    <glyph glyph-name="dieresistonos" unicode="&#x385;" horiz-adv-x="237" 
d="M255 615c-7.33301 -6.66699 -17.002 -9.99902 -29.002 -9.99902s-21.667 3.33301 -29 10c-8.66699 8 -13 17.667 -13 29c0 12 4.33301 22 13 30c8.66699 6.66699 18.334 10 29.001 10s20.334 -3.33301 29.001 -10c8.66699 -8.66699 13 -18.667 13 -30
c0 -10.667 -4.33301 -20.334 -13 -29.001zM29.998 615.001c-8.66699 -6.66699 -18.668 -10 -30.001 -10c-12 0 -21.667 3.33301 -29 10c-8 8 -12 17.667 -12 29c0 12 4 22 12 30c8.66699 6.66699 18.334 10 29.001 10c10 0 20 -3.33301 30 -10c8 -8 12 -18 12 -30
c0 -11.333 -4 -21 -12 -29zM109.997 561.001l-40 12l64 188l53 -16z" />
    <glyph glyph-name="Alphatonos" unicode="&#x386;" horiz-adv-x="770" 
d="M279 0h-217l-4 60l79 3l228 587h111l228 -591l79 -3l-4 -56h-225v48l66 2l-59 150h-290l-59 -148l71 -2zM416 583l-124 -328h247zM170 561l-40 12l64 188l53 -16z" />
    <glyph glyph-name="Epsilontonos" unicode="&#x388;" horiz-adv-x="671" 
d="M603 505h-66l-4 80h-257v-226l296 1v-63h-296v-232h284l8 90l62 -4l-4 -151h-510l-4 60l80 3v528l-81 3l4 56h416l72 4v-149zM48 561l-40 12l64 188l53 -16z" />
    <glyph glyph-name="Etatonos" unicode="&#x389;" horiz-adv-x="836" 
d="M352 0h-236l-4 60l80 3v528l-81 3l4 56h239v-60l-78 -3v-233h354v233l-81 3l3 60h239v-60l-77 -3v-528l80 -3l-4 -56h-236l-4 60l80 3v228h-354v-229l80 -2zM48 561l-40 12l64 188l53 -16z" />
    <glyph glyph-name="Iotatonos" unicode="&#x38a;" horiz-adv-x="399" 
d="M352 0h-236l-4 60l80 3v528l-81 3l4 56h239v-60l-78 -3v-528l80 -3zM48 561l-40 12l64 188l53 -16z" />
    <glyph glyph-name="Omicrontonos" unicode="&#x38c;" horiz-adv-x="831" 
d="M777 334c0 -104.667 -29.1689 -188.832 -87.502 -252.499s-138.166 -95.5 -239.499 -95.5s-180.833 31.667 -238.5 95s-86.5 147.666 -86.5 252.999c0 103.333 28.667 184 86 242s137 87 239 87c102.667 0 182.834 -29 240.501 -87s86.5 -138.667 86.5 -242z
M689.998 334.002c0 82.667 -21.1689 146.834 -63.502 192.501s-101.166 68.5 -176.499 68.5s-134 -22.833 -176 -68.5s-63 -109.834 -63 -192.501c0 -84.667 21.167 -152.5 63.5 -203.5s100.833 -76.5 175.5 -76.5s133.334 25.5 176.001 76.5s64 118.833 64 203.5z
M95.9961 561.002l-40 12l64 188l53 -16z" />
    <glyph glyph-name="Upsilontonos" unicode="&#x38e;" horiz-adv-x="707" 
d="M511 0h-236l-4 60l79 3v206l-220 322l-93 3l3 56h237v-56l-52 -2l170 -253l168 252l-51 1v58h228v-60l-92 -2l-213 -318v-208l80 -2zM-7 561l-40 12l64 188l53 -16z" />
    <glyph glyph-name="Omegatonos" unicode="&#x38f;" horiz-adv-x="831" 
d="M393 0l-266.999 0.000976562l-4 106l44 4l7 -50h169l5 4c-22 8.66699 -43.333 19.167 -64 31.5s-43.834 30.166 -69.501 53.499s-46.334 53.666 -62.001 90.999s-23.5 79 -23.5 125c0 90 28.167 162.167 84.5 216.5s135.833 81.5 238.5 81.5s182 -27.167 238 -81.5
s84 -126.5 84 -216.5c0 -37.333 -5.5 -72 -16.5 -104s-24.5 -58.333 -40.5 -79s-34.667 -39.667 -56 -57s-40.166 -30.166 -56.499 -38.499s-32.833 -15.833 -49.5 -22.5l6 -4h168l7 50l45 -4l-4 -106h-267l-4 105l19.5 8.5c8.33301 3.66699 22.833 12.667 43.5 27
s39 30.5 55 48.5s30.5 43 43.5 75s19.5 66.667 19.5 104c0 69.333 -20 124.5 -60 165.5s-98.333 61.5 -175 61.5s-135.167 -20.5 -175.5 -61.5s-60.5 -96.167 -60.5 -165.5c0 -37.333 6.16699 -71.833 18.5 -103.5s27.5 -56.834 45.5 -75.501s36 -34.667 54 -48
s33 -22.666 45 -27.999l19 -8zM98.001 561.001l-40 12l64 188l53 -16z" />
    <glyph glyph-name="iotadieresistonos" unicode="&#x390;" horiz-adv-x="270" 
d="M287 615c-8.66699 -6.66699 -18.668 -10 -30.001 -10c-12 0 -21.667 3.33301 -29 10c-8 8 -12 17.667 -12 29c0 12 4 22 12 30c8.66699 6.66699 18.334 10 29.001 10c10 0 20 -3.33301 30 -10c8 -8 12 -18 12 -30c0 -11.333 -4 -21 -12 -29zM60.999 615
c-7.33301 -6.66699 -17.002 -9.99902 -29.002 -9.99902s-21.667 3.33301 -29 10c-8.66699 8 -13 17.667 -13 29c0 12 4.33301 22 13 30c8.66699 6.66699 18.334 10 29.001 10s20.334 -3.33301 29.001 -10c8.66699 -8.66699 13 -18.667 13 -30
c0 -10.667 -4.33301 -20.334 -13 -29.001zM232.997 0.000976562h-192l-4 60l60 3v374l-59 3l3 60h136v-441l60 -3zM134.997 561.001l-40 12l64 188l53 -16z" />
    <glyph glyph-name="Alpha" unicode="&#x391;" horiz-adv-x="700" 
d="M209 0h-217l-4 60l79 3l228 587h111l228 -591l79 -3l-4 -56h-225v48l66 2l-59 150h-290l-59 -148l71 -2zM346 583l-124 -328h247z" />
    <glyph glyph-name="Beta" unicode="&#x392;" horiz-adv-x="631" 
d="M320 0h-274.001l-4 60l80 3v528l-81 3l4 56h273c74.667 0 130.334 -13.5 167.001 -40.5s55 -65.167 55 -114.5c0 -60 -29 -109 -87 -147c82.667 -22 124 -72.333 124 -151c0 -61.333 -20.833 -109.5 -62.5 -144.5s-106.5 -52.5 -194.5 -52.5zM355.999 308h-159v-247h118
c120.667 0 181 45.333 181 136c0 74 -46.667 111 -140 111zM196.999 363l155 -0.000976562c25.333 0 50 10.5 74 31.5s36 51.833 36 92.5c0 36.667 -12.5 62.834 -37.5 78.501s-61.833 23.5 -110.5 23.5h-117v-226z" />
    <glyph glyph-name="Gamma" unicode="&#x393;" horiz-adv-x="486" 
d="M292 0h-246l-4 60l80 3v528l-81 3l4 56h374l72 4v-177h-65l-5 108h-215v-526l90 -3z" />
    <glyph glyph-name="Delta" unicode="&#x394;" horiz-adv-x="665" 
d="M631 0h-597v65l243 585h111l243 -585v-65zM330 588l-214 -521h429z" />
    <glyph glyph-name="Epsilon" unicode="&#x395;" horiz-adv-x="601" 
d="M533 505h-66l-4 80h-257v-226l296 1v-63h-296v-232h284l8 90l62 -4l-4 -151h-510l-4 60l80 3v528l-81 3l4 56h416l72 4v-149z" />
    <glyph glyph-name="Zeta" unicode="&#x396;" horiz-adv-x="608" 
d="M559 593l-407 -528h345l8 90l62 -4l-4 -151h-518v57l407 528h-331l-6 -80h-65l3 145v4l73 -4h433v-57z" />
    <glyph glyph-name="Eta" unicode="&#x397;" horiz-adv-x="766" 
d="M282 0h-236l-4 60l80 3v528l-81 3l4 56h239v-60l-78 -3v-233h354v233l-81 3l3 60h239v-60l-77 -3v-528l80 -3l-4 -56h-236l-4 60l80 3v228h-354v-229l80 -2z" />
    <glyph glyph-name="Theta" unicode="&#x398;" horiz-adv-x="761" 
d="M520 290h-279v63h279v-63zM707 334c0 -104.667 -29.1689 -188.832 -87.502 -252.499s-138.166 -95.5 -239.499 -95.5s-180.833 31.667 -238.5 95s-86.5 147.666 -86.5 252.999c0 103.333 28.667 184 86 242s137 87 239 87c102.667 0 182.834 -29 240.501 -87
s86.5 -138.667 86.5 -242zM619.998 334.002c0 82.667 -21.1689 146.834 -63.502 192.501s-101.166 68.5 -176.499 68.5s-134 -22.833 -176 -68.5s-63 -109.834 -63 -192.501c0 -84.667 21.167 -152.5 63.5 -203.5s100.833 -76.5 175.5 -76.5s133.334 25.5 176.001 76.5
s64 118.833 64 203.5z" />
    <glyph glyph-name="Iota" unicode="&#x399;" horiz-adv-x="329" 
d="M282 0h-236l-4 60l80 3v528l-81 3l4 56h239v-60l-78 -3v-528l80 -3z" />
    <glyph glyph-name="Kappa" unicode="&#x39a;" horiz-adv-x="713" 
d="M713 0h-153l-39 34l-221 254l-94 -64v-162l80 -2l-4 -60h-236l-4 60l80 3v528l-81 3l4 56h231v-52l-70 -3v-289l92 62l207 230l-44 2v50h229v-60l-107 -3l-220 -245l245 -281l109 -1z" />
    <glyph glyph-name="Lambda" unicode="&#x39b;" horiz-adv-x="681" 
d="M213 0h-221l-4 60l78 3l219 587h111l219 -591l78 -3l-4 -56h-225v52l65 6l-191 523l-193 -525l72 -2z" />
    <glyph glyph-name="Mu" unicode="&#x39c;" horiz-adv-x="1002" 
d="M269 0h-223l-4 60l80 3l1 528l-81 3l3 56h186l272 -564l269 564h185v-60l-78 -3l1 -525l80 -2l-4 -60h-225l-4 52l72 3v481h-1l-258 -536h-80l-259 536h-1v-483l73 -3z" />
    <glyph glyph-name="Nu" unicode="&#x39d;" horiz-adv-x="788" 
d="M674 -6h-88l-389 537h-1l4 -31v-440l81 -2l-4 -58h-231l-4 60l80 3v528l-81 3l4 56h165l387 -544l-2 23v461l-81 2l3 58h234v-60l-77 -3v-593z" />
    <glyph glyph-name="Xi" unicode="&#x39e;" horiz-adv-x="608" 
d="M563 0h-518l-4 151l60 4l6 -88h394l6 88l60 -4zM101 505h-60l4 145h521l1 -145h-60l-6 78h-394zM461 291h-314v63h314v-63z" />
    <glyph glyph-name="Omicron" unicode="&#x39f;" horiz-adv-x="761" 
d="M707 334c0 -104.667 -29.1689 -188.832 -87.502 -252.499s-138.166 -95.5 -239.499 -95.5s-180.833 31.667 -238.5 95s-86.5 147.666 -86.5 252.999c0 103.333 28.667 184 86 242s137 87 239 87c102.667 0 182.834 -29 240.501 -87s86.5 -138.667 86.5 -242z
M619.998 334.002c0 82.667 -21.1689 146.834 -63.502 192.501s-101.166 68.5 -176.499 68.5s-134 -22.833 -176 -68.5s-63 -109.834 -63 -192.501c0 -84.667 21.167 -152.5 63.5 -203.5s100.833 -76.5 175.5 -76.5s133.334 25.5 176.001 76.5s64 118.833 64 203.5z" />
    <glyph glyph-name="Pi" unicode="&#x3a0;" horiz-adv-x="748" 
d="M282 0h-236l-4 60l80 3v528l-81 3l4 56h658v-56l-77 -3v-529l80 -2l-4 -60h-236l-4 60l80 3v522h-336v-523l80 -2z" />
    <glyph glyph-name="Rho" unicode="&#x3a1;" horiz-adv-x="580" 
d="M291 0h-245l-4 60l80 3v528l-81 3l4 56h254c162 0 243 -65.333 243 -196c0 -31.333 -4.66699 -59.833 -14 -85.5s-21.833 -47.167 -37.5 -64.5s-34 -31.833 -55 -43.5s-42.833 -20.167 -65.5 -25.5s-46 -8 -70 -8h-100v-172l94 -3zM285 589h-85v-303h84
c50 0 91 13.167 123 39.5s48 67.5 48 123.5c0 93.333 -56.667 140 -170 140z" />
    <glyph glyph-name="Sigma" unicode="&#x3a3;" horiz-adv-x="584" 
d="M542 501h-65l-4 84h-302l169 -258l-193 -260h344l6 88l64 -4l-5 -151h-511v62l200 264l-174 263v61h399l72 4v-153z" />
    <glyph glyph-name="Tau" unicode="&#x3a4;" horiz-adv-x="540" 
d="M60 494h-62l4 160l72 -4h396l72 4v-160h-62l-6 91h-162v-523l80 -2l-4 -60h-236l-4 60l80 3v522h-160z" />
    <glyph glyph-name="Upsilon" unicode="&#x3a5;" horiz-adv-x="637" 
d="M441 0h-236l-4 60l79 3v206l-220 322l-93 3l3 56h237v-56l-52 -2l170 -253l168 252l-51 1v58h228v-60l-92 -2l-213 -318v-208l80 -2z" />
    <glyph glyph-name="Phi" unicode="&#x3a6;" horiz-adv-x="803" 
d="M522 0l-241.999 -0.00195312l-4 53l87 3v62c-216 1.33301 -324 76 -324 224c0 77.333 27.167 131.5 81.5 162.5s135.166 46.833 242.499 47.5v62l-81 3l4 49h230v-49l-78 -3v-62c107.333 -0.666992 188.5 -16.167 243.5 -46.5s82.5 -84.166 82.5 -161.499
c0 -149.333 -108.667 -224.666 -326 -225.999v-62l88 -3zM678.001 341.998c0 59.333 -19.167 100.167 -57.5 122.5s-99.166 33.833 -182.499 34.5v-327c81.333 0.666992 141.666 14 180.999 40s59 69.333 59 130zM125.001 339.999c0 -59.333 19.333 -102 58 -128
s98.667 -39.333 180 -40v327c-83.333 -0.666992 -143.833 -12.5 -181.5 -35.5s-56.5 -64.167 -56.5 -123.5z" />
    <glyph glyph-name="Chi" unicode="&#x3a7;" horiz-adv-x="696" 
d="M244 594l-47 -2l151 -208v-1l1 1l151 207l-48 1v58h235v-60l-98 -2l-191 -261l199 -266l101 -1l-3 -60h-240v56l45 1l-154 210l-154 -208l47 -1v-58h-237l-4 60l102 2l196 263l-195 266l-97 3l3 56h237v-56z" />
    <glyph glyph-name="Psi" unicode="&#x3a8;" horiz-adv-x="827" 
d="M530 0l-227 -0.000976562l-4 60l79 3v133c-101.333 0.666992 -177.833 24.334 -229.5 71.001s-77.5 108.667 -77.5 186v138l-81 3l3 56h162v-185c0 -62 19.167 -110.833 57.5 -146.5s93.5 -53.834 165.5 -54.501v339l-80 2l4 61h229v-61l-77 -2v-339
c72 0.666992 126.333 17.667 163 51s55 81 55 143v192h148v-56l-64 -3v-145c0 -77.333 -25 -138.166 -75 -182.499s-125.667 -66.833 -227 -67.5v-134l80 -2z" />
    <glyph glyph-name="Omega" unicode="&#x3a9;" horiz-adv-x="761" 
d="M323 0l-266.999 0.000976562l-4 106l44 4l7 -50h169l5 4c-22 8.66699 -43.333 19.167 -64 31.5s-43.834 30.166 -69.501 53.499s-46.334 53.666 -62.001 90.999s-23.5 79 -23.5 125c0 90 28.167 162.167 84.5 216.5s135.833 81.5 238.5 81.5s182 -27.167 238 -81.5
s84 -126.5 84 -216.5c0 -37.333 -5.5 -72 -16.5 -104s-24.5 -58.333 -40.5 -79s-34.667 -39.667 -56 -57s-40.166 -30.166 -56.499 -38.499s-32.833 -15.833 -49.5 -22.5l6 -4h168l7 50l45 -4l-4 -106h-267l-4 105l19.5 8.5c8.33301 3.66699 22.833 12.667 43.5 27
s39 30.5 55 48.5s30.5 43 43.5 75s19.5 66.667 19.5 104c0 69.333 -20 124.5 -60 165.5s-98.333 61.5 -175 61.5s-135.167 -20.5 -175.5 -61.5s-60.5 -96.167 -60.5 -165.5c0 -37.333 6.16699 -71.833 18.5 -103.5s27.5 -56.834 45.5 -75.501s36 -34.667 54 -48
s33 -22.666 45 -27.999l19 -8z" />
    <glyph glyph-name="Iotadieresis" unicode="&#x3aa;" horiz-adv-x="329" 
d="M282 0h-236l-4 60l80 3v528l-81 3l4 56h239v-60l-78 -3v-528l80 -3zM283 764c-8.66699 -6.66699 -18.667 -10 -30 -10c-12.667 0 -22.667 3.33301 -30 10c-8.66699 8 -13 18 -13 30c0 12.667 4.33301 23 13 31c8.66699 6.66699 18.667 10 30 10c10 0 20 -3.33301 30 -10
c8.66699 -8.66699 13 -19 13 -31c0 -11.333 -4.33301 -21.333 -13 -30zM105 764c-7.33301 -6.66699 -17.334 -10 -30.001 -10c-12 0 -21.667 3.33301 -29 10c-8.66699 8 -13 18 -13 30c0 12.667 4.33301 23 13 31c8.66699 6.66699 18.334 10 29.001 10
c11.333 0 21.333 -3.33301 30 -10c8.66699 -8.66699 13 -19 13 -31c0 -11.333 -4.33301 -21.333 -13 -30z" />
    <glyph glyph-name="Upsilondieresis" unicode="&#x3ab;" horiz-adv-x="637" 
d="M441 0h-236l-4 60l79 3v206l-220 322l-93 3l3 56h237v-56l-52 -2l170 -253l168 252l-51 1v58h228v-60l-92 -2l-213 -318v-208l80 -2zM457 749c-8.66699 -6.66699 -18.667 -10 -30 -10c-12.667 0 -22.667 3.33301 -30 10c-8.66699 8 -13 18 -13 30
c0 12.667 4.33301 23 13 31c8.66699 6.66699 18.667 10 30 10c10 0 20 -3.33301 30 -10c8.66699 -8.66699 13 -19 13 -31c0 -11.333 -4.33301 -21.333 -13 -30zM279 749c-7.33301 -6.66699 -17.334 -10 -30.001 -10c-12 0 -21.667 3.33301 -29 10c-8.66699 8 -13 18 -13 30
c0 12.667 4.33301 23 13 31c8.66699 6.66699 18.334 10 29.001 10c11.333 0 21.333 -3.33301 30 -10c8.66699 -8.66699 13 -19 13 -31c0 -11.333 -4.33301 -21.333 -13 -30z" />
    <glyph glyph-name="alphatonos" unicode="&#x3ac;" horiz-adv-x="600" 
d="M564 0l-126.998 -0.000976562l-8 59c-5.33301 -8.66699 -12.5 -17.334 -21.5 -26.001s-26.333 -18.667 -52 -30s-54.834 -17 -87.501 -17c-68.667 0 -124.167 23.833 -166.5 71.5s-63.5 110.834 -63.5 189.501c0 84 20.5 149.5 61.5 196.5s101.167 70.5 180.5 70.5
c30.667 0 58.167 -4.66699 82.5 -14s41.166 -18.666 50.499 -27.999l14 -15h2l5 43h74v-441l59 -3zM291.002 47.999c29.333 0 55.332 6.33105 77.999 18.998s38.334 25.334 47.001 38.001l12 19v271c-2.66699 4 -7.16699 9.33301 -13.5 16s-20.333 15.334 -42 26.001
s-45.5 16 -71.5 16c-62 0 -107.5 -17.167 -136.5 -51.5s-43.5 -85.166 -43.5 -152.499c0 -64.667 14.833 -114.334 44.5 -149.001s71.5 -52 125.5 -52zM300.001 560.997l-40 12l64 188l53 -16z" />
    <glyph glyph-name="epsilontonos" unicode="&#x3ad;" horiz-adv-x="472" 
d="M231 283l102.996 -0.00195312v-52h-102c-35.333 0 -63 -6.66699 -83 -20s-30 -33 -30 -59c0 -29.333 13.333 -54.666 40 -75.999s63 -32 109 -32c22.667 0 43.834 2.33301 63.501 7s35.334 10.334 47.001 17.001s21.667 13.334 30 20.001s14.166 12.334 17.499 17.001
l5 7l27 -40c-1.33301 -2 -3.16602 -5 -5.49902 -9s-8.66602 -11 -18.999 -21s-22.166 -18.667 -35.499 -26s-32.333 -14.166 -57 -20.499s-52 -9.5 -82 -9.5c-67.333 0 -120.666 15.833 -159.999 47.5s-59 70.834 -59 117.501c0 59.333 33 97.666 99 114.999
c-49.333 26 -74 64.333 -74 115c0 40 16.333 72.167 49 96.5s74.334 36.5 125.001 36.5c47.333 0 88.666 -15.333 123.999 -46l9 37h50v-138h-61l-4 47c-26.667 28.667 -59.334 43 -98.001 43c-36 0 -64.5 -8 -85.5 -24s-31.5 -36.667 -31.5 -62
c0 -14.667 3 -27.834 9 -39.501s13.333 -20.334 22 -26.001s17.5 -10.334 26.5 -14.001s16.5 -6.16699 22.5 -7.5zM238.996 560.998l-40 12l64 188l53 -16z" />
    <glyph glyph-name="etatonos" unicode="&#x3ae;" horiz-adv-x="599" 
d="M311 561l-40 12l64 188l53 -16zM233 0h-191.998l-4 60l60 3v374l-59 3l3 60h127l6 -45c4.66699 5.33301 11.5 11.5 20.5 18.5s27.667 15.5 56 25.5s60.166 15 95.499 15c119.333 0 179 -51.667 179 -155v-609h-81v594c0 68 -41.667 102 -125 102
c-28.667 0 -54.834 -4.33301 -78.501 -13s-40.167 -17 -49.5 -25l-14 -13v-336l60 -3z" />
    <glyph glyph-name="iotatonos" unicode="&#x3af;" horiz-adv-x="270" 
d="M233 0h-192l-4 60l60 3v374l-59 3l3 60h136v-441l60 -3zM152 561l-40 12l64 188l53 -16z" />
    <glyph glyph-name="upsilondieresistonos" unicode="&#x3b0;" horiz-adv-x="586" 
d="M451 614c-7.33301 -6.66699 -17.334 -10 -30.001 -10c-12 0 -21.667 3.33301 -29 10c-8.66699 8 -13 18 -13 30c0 12.667 4.33301 23 13 31c8.66699 6.66699 18.334 10 29.001 10c11.333 0 21.333 -3.33301 30 -10c8.66699 -8.66699 13 -19 13 -31
c0 -11.333 -4.33301 -21.333 -13 -30zM225.999 614c-8.66699 -6.66699 -18.667 -10 -30 -10c-12.667 0 -22.667 3.33301 -30 10c-8 8 -12 18 -12 30c0 12.667 4 23 12 31c8.66699 6.66699 18.667 10 30 10c10 0 20 -3.33301 30 -10c8.66699 -8.66699 13 -19 13 -31
c0 -11.333 -4.33301 -21.333 -13 -30zM430.999 176l-0.000976562 261l-60 3l4 60h136v-331c0 -56 -19 -100.5 -57 -133.5s-90.667 -49.5 -158 -49.5s-119.666 16.5 -156.999 49.5s-56 77.5 -56 133.5v268l-59 3l4 60h135v-324c0 -37.333 12.167 -67.666 36.5 -90.999
s56.5 -35 96.5 -35s72.5 11.667 97.5 35s37.5 53.666 37.5 90.999zM294.998 561l-40 12l64 188l53 -16z" />
    <glyph glyph-name="alpha" unicode="&#x3b1;" horiz-adv-x="600" 
d="M564 0l-126.998 -0.000976562l-8 59c-5.33301 -8.66699 -12.5 -17.334 -21.5 -26.001s-26.333 -18.667 -52 -30s-54.834 -17 -87.501 -17c-68.667 0 -124.167 23.833 -166.5 71.5s-63.5 110.834 -63.5 189.501c0 84 20.5 149.5 61.5 196.5s101.167 70.5 180.5 70.5
c30.667 0 58.167 -4.66699 82.5 -14s41.166 -18.666 50.499 -27.999l14 -15h2l5 43h74v-441l59 -3zM291.002 47.999c29.333 0 55.332 6.33105 77.999 18.998s38.334 25.334 47.001 38.001l12 19v271c-2.66699 4 -7.16699 9.33301 -13.5 16s-20.333 15.334 -42 26.001
s-45.5 16 -71.5 16c-62 0 -107.5 -17.167 -136.5 -51.5s-43.5 -85.166 -43.5 -152.499c0 -64.667 14.833 -114.334 44.5 -149.001s71.5 -52 125.5 -52z" />
    <glyph glyph-name="beta" unicode="&#x3b2;" horiz-adv-x="593" 
d="M165 -250l-80 0.000976562v801c0 141.333 69.667 212 209 212c62.667 0 111.5 -14.167 146.5 -42.5s52.5 -68.5 52.5 -120.5c0 -67.333 -34 -122.666 -102 -165.999c109.333 -23.333 164 -89.333 164 -198c0 -70.667 -21.5 -130 -64.5 -178s-99.5 -72 -169.5 -72
c-22 0 -42.333 2.16699 -61 6.5s-33.5 9.66602 -44.5 15.999s-20.667 12.666 -29 18.999s-13.833 11.833 -16.5 16.5l-5 6v-300zM472 240.001c0 54.667 -14.999 93.499 -44.999 116.499s-80.333 34.5 -151 34.5v58c4 0.666992 9 1.83398 15 3.50098
s16.833 6.16699 32.5 13.5s29.5 15.833 41.5 25.5s23 23.5 33 41.5s15 37.667 15 59c0 73.333 -39.667 110 -119 110c-86 0 -129 -53.667 -129 -161v-436c3.33301 -5.33301 8.66602 -11.833 15.999 -19.5s21.333 -16 42 -25s44 -13.5 70 -13.5
c54.667 0 98.167 18.5 130.5 55.5s48.5 82.833 48.5 137.5z" />
    <glyph glyph-name="gamma" unicode="&#x3b3;" horiz-adv-x="515" 
d="M300 -250h-81v250l-174 437l-71 3l4 60h131l150 -422l131 360l-46 5l4 57h190v-60l-69 -3l-169 -437v-250z" />
    <glyph glyph-name="delta" unicode="&#x3b4;" horiz-adv-x="573" 
d="M286 -14c-80 0 -141.332 23.833 -183.999 71.5s-64 113.167 -64 196.5c0 123.333 44.333 203 133 239c-42.667 31.333 -64 75 -64 131c0 45.333 19.167 79.833 57.5 103.5s85.166 35.5 140.499 35.5c54.667 0 104 -3.66699 148 -11l30 3v-107h-56l-5 43
c-45.333 4.66699 -83.333 7 -114 7c-37.333 0 -68.5 -6.5 -93.5 -19.5s-37.5 -34.833 -37.5 -65.5c0 -60 32.333 -93 97 -99h12c80.667 0 142.167 -22.667 184.5 -68s63.5 -109.333 63.5 -192s-21.667 -148 -65 -196s-104.333 -72 -183 -72zM286.001 45
c56 0 97.501 18.167 124.501 54.5s40.5 87.5 40.5 153.5c0 134.667 -55 202 -165 202s-165 -67.333 -165 -202c0 -65.333 13.667 -116.333 41 -153s68.666 -55 123.999 -55z" />
    <glyph glyph-name="epsilon" unicode="&#x3b5;" horiz-adv-x="472" 
d="M231 283l102.996 -0.00195312v-52h-102c-35.333 0 -63 -6.66699 -83 -20s-30 -33 -30 -59c0 -29.333 13.333 -54.666 40 -75.999s63 -32 109 -32c22.667 0 43.834 2.33301 63.501 7s35.334 10.334 47.001 17.001s21.667 13.334 30 20.001s14.166 12.334 17.499 17.001
l5 7l27 -40c-1.33301 -2 -3.16602 -5 -5.49902 -9s-8.66602 -11 -18.999 -21s-22.166 -18.667 -35.499 -26s-32.333 -14.166 -57 -20.499s-52 -9.5 -82 -9.5c-67.333 0 -120.666 15.833 -159.999 47.5s-59 70.834 -59 117.501c0 59.333 33 97.666 99 114.999
c-49.333 26 -74 64.333 -74 115c0 40 16.333 72.167 49 96.5s74.334 36.5 125.001 36.5c47.333 0 88.666 -15.333 123.999 -46l9 37h50v-138h-61l-4 47c-26.667 28.667 -59.334 43 -98.001 43c-36 0 -64.5 -8 -85.5 -24s-31.5 -36.667 -31.5 -62
c0 -14.667 3 -27.834 9 -39.501s13.333 -20.334 22 -26.001s17.5 -10.334 26.5 -14.001s16.5 -6.16699 22.5 -7.5z" />
    <glyph glyph-name="zeta" unicode="&#x3b6;" horiz-adv-x="451" 
d="M100 782l3.99805 -32h341v-55c-204 -228 -306 -395.667 -306 -503c0 -88.667 70 -133 210 -133c40 0 69.167 -6.5 87.5 -19.5s27.5 -34.167 27.5 -63.5c0 -24 -2.66699 -48.5 -8 -73.5s-10.666 -43.833 -15.999 -56.5l-9 -19l-63 8c18 40.667 27 79 27 115
c0 20 -5.66699 33.333 -17 40s-33.333 10 -66 10c-170.667 -0 -256 63.333 -256 190c0 62.667 29.333 139.5 88 230.5s127.334 179.833 206.001 266.5h-237l-65 -4l-4 95z" />
    <glyph glyph-name="eta" unicode="&#x3b7;" horiz-adv-x="599" 
d="M233 0h-191.998l-4 60l60 3v374l-59 3l3 60h127l6 -45c4.66699 5.33301 11.5 11.5 20.5 18.5s27.667 15.5 56 25.5s60.166 15 95.499 15c119.333 0 179 -51.667 179 -155v-609h-81v594c0 68 -41.667 102 -125 102c-28.667 0 -54.834 -4.33301 -78.501 -13
s-40.167 -17 -49.5 -25l-14 -13v-336l60 -3z" />
    <glyph glyph-name="theta" unicode="&#x3b8;" horiz-adv-x="585" 
d="M293 -14c-82 0 -143.833 33.499 -185.5 100.499s-62.5 165.5 -62.5 295.5c0 254 82.667 381 248 381c164.667 0 247 -127 247 -381c0 -129.333 -20.833 -227.666 -62.5 -294.999s-103.167 -101 -184.5 -101zM293 704.999c-56.667 0 -98 -23.333 -124 -70
s-39.667 -122.667 -41 -228h330c-2 105.333 -16 181.333 -42 228s-67 70 -123 70zM293 43.999c54.667 0 95 24.167 121 72.5s40.333 123.5 43 225.5h-329c3.33301 -102 18 -177.167 44 -225.5s66.333 -72.5 121 -72.5z" />
    <glyph glyph-name="iota" unicode="&#x3b9;" horiz-adv-x="270" 
d="M233 0h-192l-4 60l60 3v374l-59 3l3 60h136v-441l60 -3z" />
    <glyph glyph-name="kappa" unicode="&#x3ba;" horiz-adv-x="551" 
d="M226 0h-185l-4 60l60 3v374l-67 3l4 60h143v-224l73 34l105 134l-31 2l3 54h187v-60l-87 -8l-124 -149l159 -218l91 -1l-4 -64h-123l-39 42l-151 203l-59 -27v-163l52 -3z" />
    <glyph glyph-name="lambda" unicode="&#x3bb;" horiz-adv-x="544" 
d="M559 60v-59.999h-190l-4 57l58 5l-114 346h-1l-194 -408h-126l-4 60l75 2l218 436c-11.333 35.333 -20.333 62.166 -27 80.499s-15 38.5 -25 60.5s-20 37.667 -30 47s-21 14 -33 14l-38 -8l1 57c20.667 9.33301 40.667 14 60 14c34.667 0 64.5 -20.667 89.5 -62
s51.833 -104.333 80.5 -189l152 -450z" />
    <glyph glyph-name="mu" unicode="&#x3bc;" horiz-adv-x="613" 
d="M440 105l0.000976562 332.002l-59 3l4 60h136v-441l59 -3l-3 -56h-127l-7 45c-39.333 -39.333 -96.666 -59 -171.999 -59c-38.667 0 -71.667 7.66699 -99 23c0 -28.667 0.166992 -71.834 0.5 -129.501s0.5 -100.834 0.5 -129.501h-81l1 533v154l-59 3l4 60h135v-324
c0 -36.667 11.167 -66 33.5 -88s53.166 -33 92.499 -33c28.667 0 54.667 4.16699 78 12.5s39.666 16.5 48.999 24.5z" />
    <glyph glyph-name="nu" unicode="&#x3bd;" horiz-adv-x="515" 
d="M301 0h-87l-170 437l-70 3l4 60h131l150 -417h1l131 357l-47 2v58h194v-60l-68 -3z" />
    <glyph glyph-name="xi" unicode="&#x3be;" horiz-adv-x="479" 
d="M409 387l-73.0029 0.00195312c-77.333 0 -132.333 -12.833 -165 -38.5s-49 -66.834 -49 -123.501c0 -31.333 6.83301 -58.333 20.5 -81s32.334 -40 56.001 -52s48.5 -20.5 74.5 -25.5s54.333 -7.5 85 -7.5c41.333 0 71.5 -6.5 90.5 -19.5s28.5 -34.167 28.5 -63.5
c0 -24 -3.66699 -48.5 -11 -73.5s-14.666 -43.833 -21.999 -56.5l-11 -19l-52 8c18 40.667 27 79 27 115c0 20 -5.83301 33.333 -17.5 40s-34.5 10 -68.5 10c-32.667 0 -64 3.33301 -94 10s-60 17.834 -90 33.501s-54 39 -72 70s-27 67.833 -27 110.5
c0 104 50.333 169.333 151 196c-74 35.333 -111 92.333 -111 171c0 56 18 98.667 54 128s80.333 44 133 44c42.667 0 81.334 -14.333 116.001 -43l11 34h51l-1 -145h-61l-5 56c-27.333 25.333 -59.333 38 -96 38c-37.333 0 -67.166 -10 -89.499 -30s-33.5 -50 -33.5 -90
c0 -28 6.66699 -51.833 20 -71.5s30.166 -33.834 50.499 -42.501s39 -14.834 56 -18.501s32.833 -5.5 47.5 -5.5h77v-58z" />
    <glyph glyph-name="omicron" unicode="&#x3bf;" horiz-adv-x="573" 
d="M286 -14c-80 0 -141.333 23.833 -184 71.5s-64 113.167 -64 196.5c0 82.667 21.167 146.667 63.5 192s103.833 68 184.5 68s142.167 -22.667 184.5 -68s63.5 -109.333 63.5 -192s-21.667 -148 -65 -196s-104.333 -72 -183 -72zM286 45c56 0 97.501 18.167 124.501 54.5
s40.5 87.5 40.5 153.5c0 134.667 -55 202 -165 202s-165 -67.333 -165 -202c0 -65.333 13.667 -116.333 41 -153s68.666 -55 123.999 -55z" />
    <glyph glyph-name="pi" unicode="&#x3c0;" horiz-adv-x="611" 
d="M571 0h-137v437h-257v-378l60 -3l-4 -56h-192l-4 60l60 3v374l-59 3l3 60h529v-60l-55 -3v-378l60 -3z" />
    <glyph glyph-name="rho" unicode="&#x3c1;" horiz-adv-x="582" 
d="M155 -250h-80v554c0 62.667 19.167 113.334 57.5 152.001s93.833 58 166.5 58c80.667 0 141.667 -20.333 183 -61s62 -100.334 62 -179.001c0 -85.333 -20.5 -154.5 -61.5 -207.5s-99.167 -79.5 -174.5 -79.5c-20 0 -39 2 -57 6s-32.5 8.83301 -43.5 14.5
s-20.667 11.5 -29 17.5s-14.5 11 -18.5 15l-5 6v-296zM155 310v-206c4.66699 -6.66699 10.667 -13.5 18 -20.5s21.166 -15.167 41.499 -24.5s42.5 -14 66.5 -14c60.667 0 105.834 20.5 135.501 61.5s44.5 96.167 44.5 165.5c0 64 -13.5 110.5 -40.5 139.5
s-68.167 43.5 -123.5 43.5c-47.333 0 -82.833 -13.667 -106.5 -41s-35.5 -62 -35.5 -104z" />
    <glyph glyph-name="sigma1" unicode="&#x3c2;" horiz-adv-x="488" 
d="M460 335l-62 0.000976562l-5 72c-32 32 -67.333 48 -106 48c-56.667 0 -98.5 -15.667 -125.5 -47s-40.5 -82 -40.5 -152s16.667 -120.333 50 -151s84 -46 152 -46c71.333 0 107 -27.667 107 -83c0 -24 -3.66699 -48.5 -11 -73.5s-14.666 -43.833 -21.999 -56.5l-11 -19
l-52 8c18.667 40.667 28 79 28 115c0 19.333 -5.33301 32.5 -16 39.5s-30.334 10.5 -59.001 10.5c-80 0 -141.5 21.167 -184.5 63.5s-64.5 106.166 -64.5 191.499c0 84 19.833 148.167 59.5 192.5s97.167 66.5 172.5 66.5c43.333 0 86 -16.333 128 -49l12 40h50v-170z" />
    <glyph glyph-name="sigma" unicode="&#x3c3;" horiz-adv-x="597" 
d="M286 514c26 0 78 -2.33301 156 -7s123 -7 135 -7v-61c-8.66699 0 -39.667 1.33301 -93 4c30.667 -63.333 46 -127.666 46 -192.999c0 -78.667 -21.167 -142.334 -63.5 -191.001s-102.5 -73 -180.5 -73c-79.333 0 -140.5 24.833 -183.5 74.5s-64.5 116.167 -64.5 199.5
c0 82 21 144.833 63 188.5s103.667 65.5 185 65.5zM413 448l-91.998 5.99902l-35 1c-110 0 -165 -64.667 -165 -194c0 -66.667 13.667 -119.5 41 -158.5s68.666 -58.5 123.999 -58.5s96.666 19.333 123.999 58s41 91.334 41 158.001c0 62 -12.667 124.667 -38 188z" />
    <glyph glyph-name="tau" unicode="&#x3c4;" horiz-adv-x="398" 
d="M377 436h-187.999v-284c0 -34.667 5.16699 -60.167 15.5 -76.5s27.166 -24.5 50.499 -24.5c14 0 28 0.833008 42 2.5s24.333 3.16699 31 4.5l10 3v-54c-21.333 -14 -57.333 -21 -108 -21c-41.333 0 -71.833 11.833 -91.5 35.5s-29.5 61.167 -29.5 112.5v269l3 34h-85v60
l82 3h268v-64z" />
    <glyph glyph-name="upsilon" unicode="&#x3c5;" horiz-adv-x="586" 
d="M431 176l-0.000976562 261l-60 3l4 60h136v-331c0 -56 -19 -100.5 -57 -133.5s-90.667 -49.5 -158 -49.5s-119.666 16.5 -156.999 49.5s-56 77.5 -56 133.5v268l-59 3l4 60h135v-324c0 -37.333 12.167 -67.666 36.5 -90.999s56.5 -35 96.5 -35s72.5 11.667 97.5 35
s37.5 53.666 37.5 90.999z" />
    <glyph glyph-name="phi" unicode="&#x3c6;" horiz-adv-x="695" 
d="M386 -250l-77 -0.00292969v236c-86 0.666992 -152.667 25.667 -200 75s-71 116 -71 200c0 81.333 23.167 143.5 69.5 186.5s113.5 65.167 201.5 66.5v173l-59 3l4 60h132v-236c87.333 -1.33301 154.333 -23.666 201 -66.999s70 -105.666 70 -186.999
c0 -83.333 -23.833 -149.666 -71.5 -198.999s-114.167 -74.333 -199.5 -75v-236zM578 259.997c0 67.333 -15.8311 116.499 -47.498 147.499s-79.834 46.833 -144.501 47.5v-410c63.333 0.666992 111.166 19.334 143.499 56.001s48.5 89.667 48.5 159zM117.002 260.996
c0 -69.333 16.1689 -122.499 48.502 -159.499s80.166 -55.833 143.499 -56.5v410c-64.667 -0.666992 -112.834 -16.334 -144.501 -47.001s-47.5 -79.667 -47.5 -147z" />
    <glyph glyph-name="chi" unicode="&#x3c7;" horiz-adv-x="573" 
d="M186 0h-184v60l86 2l145 193l-137 182l-88 3l4 60h129l146 -204h1l105 146l-30 1l4 57h187v-60l-79 -3l-136 -182l149 -197l86 -2l-3 -56h-122l-40 44l-124 168l-114 -154h19z" />
    <glyph glyph-name="psi" unicode="&#x3c8;" horiz-adv-x="746" 
d="M413 -250l-76 0.000976562v236c-74.667 0.666992 -136.667 21.167 -186 61.5s-74 93.5 -74 159.5v230l-68 3l4 60h140v-279c0 -50.667 17.5 -91.834 52.5 -123.501s78.833 -47.5 131.5 -47.5v637l-60 3l4 60h132v-700c54 0.666992 98.667 16.667 134 48s53 72.333 53 123
v216l-60 7l3 56h134v-293c0 -66 -25 -119.167 -75 -159.5s-113 -60.833 -189 -61.5v-236z" />
    <glyph glyph-name="omega" unicode="&#x3c9;" horiz-adv-x="792" 
d="M359 202l0.000976562 160.001h74v-160c0 -49.333 6.83301 -86.166 20.5 -110.499s41.834 -36.5 84.501 -36.5c41.333 0 73.166 18.167 95.499 54.5s33.5 86.5 33.5 150.5c0 30.667 -2.33301 59.5 -7 86.5s-10.167 48.667 -16.5 65s-13 30.666 -20 42.999
s-12.667 21 -17 26s-6.83301 7.5 -7.5 7.5l65 20c0.666992 0 3.5 -2.33301 8.5 -7s11.667 -13.334 20 -26.001s16.166 -27.667 23.499 -45s13.833 -41 19.5 -71s8.5 -62.333 8.5 -97c0 -87.333 -17 -155.166 -51 -203.499s-83.667 -72.5 -149 -72.5
c-67.333 0 -117 30.667 -149 92c-32 -61.333 -81 -92 -147 -92c-65.333 0 -115 24.167 -149 72.5s-51 116.166 -51 203.499c0 34.667 2.66699 67 8 97s11.833 53.667 19.5 71s15.5 32.333 23.5 45s14.667 21.334 20 26.001s8.33301 7 9 7l65 -20c-2 0 -8 -6.83301 -18 -20.5
s-20.833 -39.5 -32.5 -77.5s-17.5 -81.333 -17.5 -130c0 -64 11.167 -114.167 33.5 -150.5s53.833 -54.5 94.5 -54.5c42.667 0 71 12.167 85 36.5s21 61.166 21 110.499z" />
    <glyph glyph-name="iotadieresis" unicode="&#x3ca;" horiz-adv-x="270" 
d="M233 0h-192l-4 60l60 3v374l-59 3l3 60h136v-441l60 -3zM255 614c-8.66699 -6.66699 -18.667 -10 -30 -10c-12.667 0 -22.667 3.33301 -30 10c-8.66699 8 -13 18 -13 30c0 12.667 4.33301 23 13 31c8.66699 6.66699 18.667 10 30 10c10 0 20 -3.33301 30 -10
c8.66699 -8.66699 13 -19 13 -31c0 -11.333 -4.33301 -21.333 -13 -30zM77 614c-7.33301 -6.66699 -17.334 -10 -30.001 -10c-12 0 -21.667 3.33301 -29 10c-8.66699 8 -13 18 -13 30c0 12.667 4.33301 23 13 31c8.66699 6.66699 18.334 10 29.001 10
c11.333 0 21.333 -3.33301 30 -10c8.66699 -8.66699 13 -19 13 -31c0 -11.333 -4.33301 -21.333 -13 -30z" />
    <glyph glyph-name="upsilondieresis" unicode="&#x3cb;" horiz-adv-x="586" 
d="M431 176l-0.000976562 261l-60 3l4 60h136v-331c0 -56 -19 -100.5 -57 -133.5s-90.667 -49.5 -158 -49.5s-119.666 16.5 -156.999 49.5s-56 77.5 -56 133.5v268l-59 3l4 60h135v-324c0 -37.333 12.167 -67.666 36.5 -90.999s56.5 -35 96.5 -35s72.5 11.667 97.5 35
s37.5 53.666 37.5 90.999zM410.999 614c-8.66699 -6.66699 -18.667 -10 -30 -10c-12.667 0 -22.667 3.33301 -30 10c-8.66699 8 -13 18 -13 30c0 12.667 4.33301 23 13 31c8.66699 6.66699 18.667 10 30 10c10 0 20 -3.33301 30 -10c8.66699 -8.66699 13 -19 13 -31
c0 -11.333 -4.33301 -21.333 -13 -30zM232.999 614c-7.33301 -6.66699 -17.334 -10 -30.001 -10c-12 0 -21.667 3.33301 -29 10c-8.66699 8 -13 18 -13 30c0 12.667 4.33301 23 13 31c8.66699 6.66699 18.334 10 29.001 10c11.333 0 21.333 -3.33301 30 -10
c8.66699 -8.66699 13 -19 13 -31c0 -11.333 -4.33301 -21.333 -13 -30z" />
    <glyph glyph-name="omicrontonos" unicode="&#x3cc;" horiz-adv-x="573" 
d="M286 -14c-80 0 -141.333 23.833 -184 71.5s-64 113.167 -64 196.5c0 82.667 21.167 146.667 63.5 192s103.833 68 184.5 68s142.167 -22.667 184.5 -68s63.5 -109.333 63.5 -192s-21.667 -148 -65 -196s-104.333 -72 -183 -72zM286 45c56 0 97.501 18.167 124.501 54.5
s40.5 87.5 40.5 153.5c0 134.667 -55 202 -165 202s-165 -67.333 -165 -202c0 -65.333 13.667 -116.333 41 -153s68.666 -55 123.999 -55zM292.001 561l-40 12l64 188l53 -16z" />
    <glyph glyph-name="upsilontonos" unicode="&#x3cd;" horiz-adv-x="586" 
d="M431 176l-0.000976562 261l-60 3l4 60h136v-331c0 -56 -19 -100.5 -57 -133.5s-90.667 -49.5 -158 -49.5s-119.666 16.5 -156.999 49.5s-56 77.5 -56 133.5v268l-59 3l4 60h135v-324c0 -37.333 12.167 -67.666 36.5 -90.999s56.5 -35 96.5 -35s72.5 11.667 97.5 35
s37.5 53.666 37.5 90.999zM298.999 561l-40 12l64 188l53 -16z" />
    <glyph glyph-name="omegatonos" unicode="&#x3ce;" horiz-adv-x="792" 
d="M359 202l0.000976562 160.001h74v-160c0 -49.333 6.83301 -86.166 20.5 -110.499s41.834 -36.5 84.501 -36.5c41.333 0 73.166 18.167 95.499 54.5s33.5 86.5 33.5 150.5c0 30.667 -2.33301 59.5 -7 86.5s-10.167 48.667 -16.5 65s-13 30.666 -20 42.999
s-12.667 21 -17 26s-6.83301 7.5 -7.5 7.5l65 20c0.666992 0 3.5 -2.33301 8.5 -7s11.667 -13.334 20 -26.001s16.166 -27.667 23.499 -45s13.833 -41 19.5 -71s8.5 -62.333 8.5 -97c0 -87.333 -17 -155.166 -51 -203.499s-83.667 -72.5 -149 -72.5
c-67.333 0 -117 30.667 -149 92c-32 -61.333 -81 -92 -147 -92c-65.333 0 -115 24.167 -149 72.5s-51 116.166 -51 203.499c0 34.667 2.66699 67 8 97s11.833 53.667 19.5 71s15.5 32.333 23.5 45s14.667 21.334 20 26.001s8.33301 7 9 7l65 -20c-2 0 -8 -6.83301 -18 -20.5
s-20.833 -39.5 -32.5 -77.5s-17.5 -81.333 -17.5 -130c0 -64 11.167 -114.167 33.5 -150.5s53.833 -54.5 94.5 -54.5c42.667 0 71 12.167 85 36.5s21 61.166 21 110.499zM402.001 561.001l-40 12l64 188l53 -16z" />
    <glyph glyph-name="uni0400" unicode="&#x400;" horiz-adv-x="601" 
d="M533 505h-66l-4 80h-257v-226l296 1v-63h-296v-232h284l8 90l62 -4l-4 -151h-510l-4 60l80 3v528l-81 3l4 56h416l72 4v-149zM365 712l-57 -5l-116 139l77 9z" />
    <glyph glyph-name="afii10023" unicode="&#x401;" horiz-adv-x="601" 
d="M533 505h-66l-4 80h-257v-226l296 1v-63h-296v-232h284l8 90l62 -4l-4 -151h-510l-4 60l80 3v528l-81 3l4 56h416l72 4v-149zM444 749c-8.66699 -6.66699 -18.667 -10 -30 -10c-12.667 0 -22.667 3.33301 -30 10c-8.66699 8 -13 18 -13 30c0 12.667 4.33301 23 13 31
c8.66699 6.66699 18.667 10 30 10c10 0 20 -3.33301 30 -10c8.66699 -8.66699 13 -19 13 -31c0 -11.333 -4.33301 -21.333 -13 -30zM266 749c-7.33301 -6.66699 -17.334 -10 -30.001 -10c-12 0 -21.667 3.33301 -29 10c-8.66699 8 -13 18 -13 30c0 12.667 4.33301 23 13 31
c8.66699 6.66699 18.334 10 29.001 10c11.333 0 21.333 -3.33301 30 -10c8.66699 -8.66699 13 -19 13 -31c0 -11.333 -4.33301 -21.333 -13 -30z" />
    <glyph glyph-name="afii10051" unicode="&#x402;" horiz-adv-x="752" 
d="M690 187c0 -134 -52.0029 -201 -156.003 -201c-23.333 0 -44.666 3.66699 -63.999 11s-32.666 15 -39.999 23l-11 11l7 50c22.667 -22.667 49 -34 79 -34c64.667 0 98.334 38.667 101.001 116v55c0 42 -9.66699 71.167 -29 87.5s-53 24.5 -101 24.5
c-62.667 0 -118.667 -21.333 -168 -64v-207l72 -3l-4 -56h-228l-4 60l80 3v524h-155l-5 -76l-66 4l4 139l72 -4h384l72 4l4 -139l-66 -4l-6 76h-154v-259c6 6 15 13.333 27 22s34.667 19.167 68 31.5s68 18.5 104 18.5c66 0 113 -13.333 141 -40s42 -68 42 -124v-49z" />
    <glyph glyph-name="afii10052" unicode="&#x403;" horiz-adv-x="486" 
d="M292 0h-246l-4 60l80 3v528l-81 3l4 56h374l72 4v-177h-65l-5 108h-215v-526l90 -3zM292 707l-57 4l95 143l77 -8z" />
    <glyph glyph-name="afii10053" unicode="&#x404;" horiz-adv-x="669" 
d="M532 284l-387 0.000976562c6.66699 -75.333 31.667 -132.5 75 -171.5s101 -58.5 173 -58.5c26.667 0 52.334 3.33301 77.001 10s45 14.667 61 24s30.333 18.5 43 27.5s22 16.833 28 23.5l8 10l33 -53c-2 -2.66699 -5.33301 -6.5 -10 -11.5s-15 -13.833 -31 -26.5
s-33 -23.834 -51 -33.501s-41.667 -18.5 -71 -26.5s-60 -12 -92 -12c-103.333 0 -184.666 30.667 -243.999 92s-89 144 -89 248c0 102 30 183.667 90 245s137 92 231 92c53.333 0 104.666 -17 153.999 -51l12 42h51v-187h-62l-6 84c-40.667 29.333 -87.334 44 -140.001 44
c-71.333 0 -128.5 -21.167 -171.5 -63.5s-66.5 -103.833 -70.5 -184.5h389v-63z" />
    <glyph glyph-name="afii10054" unicode="&#x405;" horiz-adv-x="580" 
d="M497 501l-64.998 -0.000976562l-5 55c-34 30 -74.333 45 -121 45c-45.333 0 -80.333 -10 -105 -30s-37 -48 -37 -84c0 -30 12.5 -54.5 37.5 -73.5s55.333 -33.833 91 -44.5s71.5 -22 107.5 -34s66.5 -30.5 91.5 -55.5s37.5 -57.167 37.5 -96.5
c0 -60 -20.667 -107.833 -62 -143.5s-99.333 -53.5 -174 -53.5c-42.667 0 -82.334 3.33301 -119.001 10s-62.667 13.334 -78 20.001l-23 10l-2 143l62 4l7 -101c46.667 -16 95 -24 145 -24c53.333 0 93.666 11.833 120.999 35.5s41 53.834 41 90.501
c0 28.667 -12.5 51.667 -37.5 69s-55.5 31.166 -91.5 41.499s-72 21.666 -108 33.999s-66.5 31.833 -91.5 58.5s-37.5 61 -37.5 103c0 54.667 18.833 98.834 56.5 132.501s89.167 50.5 154.5 50.5c48.667 0 96 -16.333 142 -49l13 40h50v-153z" />
    <glyph glyph-name="afii10055" unicode="&#x406;" horiz-adv-x="329" 
d="M282 0h-236l-4 60l80 3v528l-81 3l4 56h239v-60l-78 -3v-528l80 -3z" />
    <glyph glyph-name="afii10056" unicode="&#x407;" horiz-adv-x="329" 
d="M282 0h-236l-4 60l80 3v528l-81 3l4 56h239v-60l-78 -3v-528l80 -3zM283 749c-8.66699 -6.66699 -18.667 -10 -30 -10c-12.667 0 -22.667 3.33301 -30 10c-8.66699 8 -13 18 -13 30c0 12.667 4.33301 23 13 31c8.66699 6.66699 18.667 10 30 10c10 0 20 -3.33301 30 -10
c8.66699 -8.66699 13 -19 13 -31c0 -11.333 -4.33301 -21.333 -13 -30zM105 749c-7.33301 -6.66699 -17.334 -10 -30.001 -10c-12 0 -21.667 3.33301 -29 10c-8.66699 8 -13 18 -13 30c0 12.667 4.33301 23 13 31c8.66699 6.66699 18.334 10 29.001 10
c11.333 0 21.333 -3.33301 30 -10c8.66699 -8.66699 13 -19 13 -31c0 -11.333 -4.33301 -21.333 -13 -30z" />
    <glyph glyph-name="afii10057" unicode="&#x408;" horiz-adv-x="449" 
d="M407 590l-63.001 -3.00098v-400c0 -75.333 -15.667 -127.666 -47 -156.999s-75 -44 -131 -44c-28 0 -53.667 2 -77 6s-39.666 8 -48.999 12l-13 5l-7 139l58 4l7 -92c22.667 -6.66699 46.667 -10 72 -10c68.667 0 103 45.667 103 137v404l-95 3l4 56h238v-60z" />
    <glyph glyph-name="afii10058" unicode="&#x409;" horiz-adv-x="1016" 
d="M692 0h-260.996l-4 60l80 3v522h-216c-0.666992 -195.333 -20.334 -343.5 -59.001 -444.5s-91.334 -151.5 -158.001 -151.5c-10.667 0 -20.334 0.833008 -29.001 2.5s-15 3.5 -19 5.5l-5 3l4 69c7.33301 -3.33301 17.666 -5 30.999 -5c100 0 152.333 175 157 525l-89 3
l3 58h542v-56l-78 -3v-202h94c184.667 0 277 -59.333 277 -178c0 -64.667 -23 -116 -69 -154s-113 -57 -201 -57zM685.004 330h-94v-269h96c63.333 0 111.5 12.667 144.5 38s49.5 61.333 49.5 108c0 44 -16.5 75.5 -49.5 94.5s-81.833 28.5 -146.5 28.5z" />
    <glyph glyph-name="afii10059" unicode="&#x40a;" horiz-adv-x="1069" 
d="M745 0h-261l-4 60l80 3v228h-354v-229l80 -2l-4 -60h-236l-4 60l80 3v528l-81 3l4 56h239v-60l-78 -3v-233h354v237l-81 3l4 56h239v-56l-78 -3v-202h94c184.667 0 277 -59.333 277 -178c0 -64.667 -23 -116 -69 -154s-113 -57 -201 -57zM738 330h-94v-269h96
c63.333 0 111.5 12.667 144.5 38s49.5 61.333 49.5 108c0 44 -16.5 75.5 -49.5 94.5s-81.833 28.5 -146.5 28.5z" />
    <glyph glyph-name="afii10060" unicode="&#x40b;" horiz-adv-x="803" 
d="M534 515l-66 -4l-6 76h-154v-259c6 6 15 13.333 27 22s34.667 19.167 68 31.5s68 18.5 104 18.5c66 0 113 -13.333 141 -40s42 -68 42 -124v-177l80 -3l-4 -56h-232l-4 56l76 3v159c0 42 -9.66699 71.167 -29 87.5s-53 24.5 -101 24.5
c-62.667 0 -118.667 -21.333 -168 -64v-207l76 -3l-4 -56h-232l-4 60l80 3v524h-155l-5 -76l-66 4l4 139l72 -4h384l72 4z" />
    <glyph glyph-name="afii10061" unicode="&#x40c;" horiz-adv-x="713" 
d="M713 0h-153l-39 34l-221 254l-94 -64v-162l80 -2l-4 -60h-236l-4 60l80 3v528l-81 3l4 56h231v-52l-70 -3v-289l92 62l207 230l-44 2v50h229v-60l-107 -3l-220 -245l245 -281l109 -1zM343 707l-57 4l95 143l77 -8z" />
    <glyph glyph-name="uni040D" unicode="&#x40d;" horiz-adv-x="775" 
d="M729 0h-231l-4 56l79 3v436l4 35h-1l-372 -520l-4 -10h-154l-4 60l80 3v528l-81 3l4 56h235v-56l-78 -3v-440l-4 -31h1l372 520l4 10h155v-56l-77 -3v-532l80 -3zM431 712l-57 -5l-116 139l77 9z" />
    <glyph glyph-name="afii10062" unicode="&#x40e;" horiz-adv-x="663" 
d="M219 594l-58.001 -3l208 -359l153 359l-60 1l4 58h220v-56l-78 -2l-195 -426c-31.333 -68 -65.166 -114.833 -101.499 -140.5s-81.833 -38.5 -136.5 -38.5c-16 0 -31.333 1.5 -46 4.5s-25.334 6.16699 -32.001 9.5l-10 5h-1l-4 160l58 4l9 -114
c10.667 -2.66699 23 -4 37 -4c27.333 0 51.833 7.16699 73.5 21.5s43.834 41.833 66.501 82.5l-259 435l-89 3l4 56h237v-56zM356.999 763c16 0 30.333 2.00195 43 6.00195s22.5 8.83301 29.5 14.5s12.667 11.5 17 17.5s7.16602 11 8.49902 15l2 6v1l72 -10
c-0.666992 -2.66699 -1.66699 -6.33398 -3 -11.001s-6 -12.834 -14 -24.501s-17.5 -22 -28.5 -31s-27.667 -17.167 -50 -24.5s-47.833 -11 -76.5 -11s-54 3.5 -76 10.5s-38.833 15.5 -50.5 25.5s-21.167 20 -28.5 30s-12 18.333 -14 25l-3 11l72 10v-1
c0.666992 -1.33301 1.33398 -3.33301 2.00098 -6s3.5 -7.5 8.5 -14.5s10.667 -13 17 -18s16 -9.66699 29 -14s27.5 -6.5 43.5 -6.5z" />
    <glyph glyph-name="afii10145" unicode="&#x40f;" horiz-adv-x="748" 
d="M409 -211h-70l-4 211h-289l-4 60l80 3v528l-81 3l4 56h235v-56l-74 -3v-526h336v526l-77 3l4 56h234v-56l-77 -3v-529l80 -2l-4 -60h-289z" />
    <glyph glyph-name="afii10017" unicode="&#x410;" horiz-adv-x="700" 
d="M209 0h-217l-4 60l79 3l228 587h111l228 -591l79 -3l-4 -56h-225v48l66 2l-59 150h-290l-59 -148l71 -2zM346 583l-124 -328h247z" />
    <glyph glyph-name="afii10018" unicode="&#x411;" horiz-adv-x="631" 
d="M511 499l-65 0.000976562l-4 86h-236v-200h94c184.667 0 277 -59.333 277 -178c0 -64.667 -23 -115.334 -69 -152.001s-113.333 -55 -202 -55h-260l-4 60l80 3v528l-81 3l4 56h394l72 4v-155zM300 326.001h-94v-265h96c129.333 0 194 47.333 194 142
c0 44 -16.5 75.5 -49.5 94.5s-81.833 28.5 -146.5 28.5z" />
    <glyph glyph-name="afii10019" unicode="&#x412;" horiz-adv-x="631" 
d="M320 0h-274.001l-4 60l80 3v528l-81 3l4 56h273c74.667 0 130.334 -13.5 167.001 -40.5s55 -65.167 55 -114.5c0 -60 -29 -109 -87 -147c82.667 -22 124 -72.333 124 -151c0 -61.333 -20.833 -109.5 -62.5 -144.5s-106.5 -52.5 -194.5 -52.5zM355.999 308h-159v-247h118
c120.667 0 181 45.333 181 136c0 74 -46.667 111 -140 111zM196.999 363l155 -0.000976562c25.333 0 50 10.5 74 31.5s36 51.833 36 92.5c0 36.667 -12.5 62.834 -37.5 78.501s-61.833 23.5 -110.5 23.5h-117v-226z" />
    <glyph glyph-name="afii10020" unicode="&#x413;" horiz-adv-x="486" 
d="M292 0h-246l-4 60l80 3v528l-81 3l4 56h374l72 4v-177h-65l-5 108h-215v-526l90 -3z" />
    <glyph glyph-name="afii10021" unicode="&#x414;" horiz-adv-x="720" 
d="M112 -162h-65.999l-4 227h59c29.333 53.333 52.166 120 68.499 200s25.5 188 27.5 324l-85 3l4 58h551v-60l-78 -3v-522h88l-8 -227h-70l-9 162h-467zM507.001 585l-234 0.00195312c-2 -132.667 -10.833 -238.834 -26.5 -318.501s-37.5 -146.834 -65.5 -201.501h326v520z
" />
    <glyph glyph-name="afii10022" unicode="&#x415;" horiz-adv-x="601" 
d="M533 505h-66l-4 80h-257v-226l296 1v-63h-296v-232h284l8 90l62 -4l-4 -151h-510l-4 60l80 3v528l-81 3l4 56h416l72 4v-149z" />
    <glyph glyph-name="afii10024" unicode="&#x416;" horiz-adv-x="998" 
d="M236 592l-42 -1l140 -218h108v218l-73 3l4 56h219v-56l-70 -3v-218h103l158 218l-40 1v58h225v-56l-96 -2l-183 -240l212 -291l100 -1l-4 -60h-141l-38 42l-193 267h-103v-250l80 -3l-4 -56h-232l-3 56l79 3v249h-103l-160 -259l-40 -49h-141v60l91 1l183 278l-169 253
l-93 2l4 56h222v-58z" />
    <glyph glyph-name="afii10025" unicode="&#x417;" horiz-adv-x="557" 
d="M145 498l-62.001 -0.000976562l4 156h50l8 -41c42.667 33.333 85.667 50 129 50c64 0 113.333 -14 148 -42s52 -67.667 52 -119c0 -36 -10.167 -68 -30.5 -96s-45.833 -50.333 -76.5 -67c90.667 -18.667 136 -68 136 -148c0 -60.667 -22 -110 -66 -148s-107 -57 -189 -57
c-33.333 0 -63.666 3.5 -90.999 10.5s-48.833 15.333 -64.5 25s-29 19.334 -40 29.001s-18.5 18.167 -22.5 25.5l-6 10l35 52c1.33301 -2 3.5 -5 6.5 -9s10 -10.833 21 -20.5s23 -18.334 36 -26.001s30.167 -14.5 51.5 -20.5s44 -9 68 -9c56 0 98.833 12.5 128.5 37.5
s44.5 58.5 44.5 100.5c0 38 -13 65.167 -39 81.5s-64 24.5 -114 24.5h-110v66l115 -1c29.333 0.666992 57.333 13.334 84 38.001s40 56 40 94c0 71.333 -43.667 107 -131 107c-40 0 -77.333 -14.333 -112 -43z" />
    <glyph glyph-name="afii10026" unicode="&#x418;" horiz-adv-x="775" 
d="M729 0h-231l-4 56l79 3v436l4 35h-1l-372 -520l-4 -10h-154l-4 60l80 3v528l-81 3l4 56h235v-56l-78 -3v-440l-4 -31h1l372 520l4 10h155v-56l-77 -3v-532l80 -3z" />
    <glyph glyph-name="afii10027" unicode="&#x419;" horiz-adv-x="775" 
d="M392 763c16 0 30.499 2.00195 43.499 6.00195s23 8.83301 30 14.5s12.667 11.5 17 17.5s7.16602 11 8.49902 15l2 6v1l71 -10c-0.666992 -2.66699 -1.66699 -6.33398 -3 -11.001s-6 -12.834 -14 -24.501s-17.5 -22 -28.5 -31s-27.667 -17.167 -50 -24.5
s-47.833 -11 -76.5 -11c-28 0 -53.167 3.5 -75.5 10.5s-39.166 15.5 -50.499 25.5s-20.833 20 -28.5 30s-12.5 18.333 -14.5 25l-3 11l72 10v-1c0.666992 -1.33301 1.33398 -3.33301 2.00098 -6s3.5 -7.5 8.5 -14.5s10.667 -13 17 -18s16 -9.66699 29 -14
s27.5 -6.5 43.5 -6.5zM728.999 0.00195312h-231l-4 56l79 3v436l4 35h-1l-372 -520l-4 -10h-154l-4 60l80 3v528l-81 3l4 56h235v-56l-78 -3v-440l-4 -31h1l372 520l4 10h155v-56l-77 -3v-532l80 -3z" />
    <glyph glyph-name="afii10028" unicode="&#x41a;" horiz-adv-x="713" 
d="M713 0h-153l-39 34l-221 254l-94 -64v-162l80 -2l-4 -60h-236l-4 60l80 3v528l-81 3l4 56h231v-52l-70 -3v-289l92 62l207 230l-44 2v50h229v-60l-107 -3l-220 -245l245 -281l109 -1z" />
    <glyph glyph-name="afii10029" unicode="&#x41b;" horiz-adv-x="714" 
d="M21 0l4.00391 69c7.33301 -3.33301 17.666 -5 30.999 -5c100 0 152.333 175 157 525l-89 3l3 58h541v-60l-77 -3v-525l80 -2l-4 -60h-236l-4 60l80 3v522h-216c-0.666992 -195.333 -20.334 -343.5 -59.001 -444.5s-91.334 -151.5 -158.001 -151.5
c-10.667 0 -20.334 0.833008 -29.001 2.5s-15 3.5 -19 5.5z" />
    <glyph glyph-name="afii10030" unicode="&#x41c;" horiz-adv-x="1002" 
d="M269 0h-223l-4 60l80 3l1 528l-81 3l3 56h186l272 -564l269 564h185v-60l-78 -3l1 -525l80 -2l-4 -60h-225l-4 52l72 3v481h-1l-258 -536h-80l-259 536h-1v-483l73 -3z" />
    <glyph glyph-name="afii10031" unicode="&#x41d;" horiz-adv-x="766" 
d="M282 0h-236l-4 60l80 3v528l-81 3l4 56h239v-60l-78 -3v-233h354v233l-81 3l3 60h239v-60l-77 -3v-528l80 -3l-4 -56h-236l-4 60l80 3v228h-354v-229l80 -2z" />
    <glyph glyph-name="afii10032" unicode="&#x41e;" horiz-adv-x="761" 
d="M707 334c0 -104.667 -29.1689 -188.832 -87.502 -252.499s-138.166 -95.5 -239.499 -95.5s-180.833 31.667 -238.5 95s-86.5 147.666 -86.5 252.999c0 103.333 28.667 184 86 242s137 87 239 87c102.667 0 182.834 -29 240.501 -87s86.5 -138.667 86.5 -242z
M619.998 334.002c0 82.667 -21.1689 146.834 -63.502 192.501s-101.166 68.5 -176.499 68.5s-134 -22.833 -176 -68.5s-63 -109.834 -63 -192.501c0 -84.667 21.167 -152.5 63.5 -203.5s100.833 -76.5 175.5 -76.5s133.334 25.5 176.001 76.5s64 118.833 64 203.5z" />
    <glyph glyph-name="afii10033" unicode="&#x41f;" horiz-adv-x="748" 
d="M282 0h-236l-4 60l80 3v528l-81 3l4 56h658v-56l-77 -3v-529l80 -2l-4 -60h-236l-4 60l80 3v522h-336v-523l80 -2z" />
    <glyph glyph-name="afii10034" unicode="&#x420;" horiz-adv-x="580" 
d="M291 0h-245l-4 60l80 3v528l-81 3l4 56h254c162 0 243 -65.333 243 -196c0 -31.333 -4.66699 -59.833 -14 -85.5s-21.833 -47.167 -37.5 -64.5s-34 -31.833 -55 -43.5s-42.833 -20.167 -65.5 -25.5s-46 -8 -70 -8h-100v-172l94 -3zM285 589h-85v-303h84
c50 0 91 13.167 123 39.5s48 67.5 48 123.5c0 93.333 -56.667 140 -170 140z" />
    <glyph glyph-name="afii10035" unicode="&#x421;" horiz-adv-x="665" 
d="M593 429l-66.0039 -0.00195312l-6 121c-39.333 30 -83.666 45 -132.999 45c-73.333 0 -132.833 -23.5 -178.5 -70.5s-68.5 -111.833 -68.5 -194.5c0 -84 22.833 -151 68.5 -201s107.167 -75 184.5 -75c42 0 81.167 8.66699 117.5 26s62.5 34.666 78.5 51.999l23 25
l32 -54c-2 -3.33301 -5.16699 -7.66602 -9.5 -12.999s-14.166 -14.666 -29.499 -27.999s-32.166 -25.166 -50.499 -35.499s-42.666 -19.666 -72.999 -27.999s-62.166 -12.5 -95.499 -12.5c-105.333 0 -187 31.167 -245 93.5s-87 145.833 -87 250.5
c0 101.333 30.167 182.166 90.5 242.499s137.166 90.5 230.499 90.5c53.333 0 104 -16.333 152 -49l14 40h51v-225z" />
    <glyph glyph-name="afii10036" unicode="&#x422;" horiz-adv-x="540" 
d="M60 494h-62l4 160l72 -4h396l72 4v-160h-62l-6 91h-162v-523l80 -2l-4 -60h-236l-4 60l80 3v522h-160z" />
    <glyph glyph-name="afii10037" unicode="&#x423;" horiz-adv-x="663" 
d="M219 594l-58.001 -3l208 -359l153 359l-60 1l4 58h220v-56l-78 -2l-195 -426c-31.333 -68 -65.166 -114.833 -101.499 -140.5s-81.833 -38.5 -136.5 -38.5c-16 0 -31.333 1.5 -46 4.5s-25.334 6.16699 -32.001 9.5l-10 5h-1l-4 160l58 4l9 -114
c10.667 -2.66699 23 -4 37 -4c27.333 0 51.833 7.16699 73.5 21.5s43.834 41.833 66.501 82.5l-259 435l-89 3l4 56h237v-56z" />
    </font>
</defs>
</svg>
